<svg xmlns="http://www.w3.org/2000/svg" width="1068" height="1200" viewBox="0 0 1068 1200" version="1.1">
	<path d="M 531.603 74.167 C 530.840 76.721, 522.996 117.548, 521.991 124.196 C 521.435 127.878, 520.764 131.478, 520.501 132.196 C 519.833 134.016, 514.232 166.931, 512.025 182 C 511.019 188.875, 509.687 197.200, 509.067 200.500 C 506.636 213.435, 502.700 236.803, 501.993 242.500 C 501.583 245.800, 500.546 251.875, 499.687 256 C 498.829 260.125, 497.422 268.987, 496.560 275.693 C 495.699 282.399, 494.521 289.130, 493.943 290.651 C 492.446 294.586, 491.474 312.557, 492.716 313.325 C 493.943 314.083, 496 302.334, 496 294.572 C 496 291.524, 497.109 285.204, 498.464 280.528 C 499.819 275.852, 501.207 269.657, 501.549 266.763 C 501.891 263.868, 503.017 258.800, 504.051 255.500 C 505.085 252.200, 507.060 244.100, 508.440 237.500 C 511.555 222.601, 513.536 216.718, 514.558 219.329 C 515.543 221.843, 514.493 231.936, 512.137 242.598 C 509.939 252.547, 508.434 264.952, 506.992 285 C 505.887 300.363, 505.747 390.937, 506.802 407.335 C 507.570 419.264, 506.743 421.787, 503.280 418.071 C 499.736 414.267, 496.338 395.214, 495.510 374.505 C 494.967 360.937, 494.151 356.306, 492.716 358.663 C 491.789 360.187, 491.640 388.273, 492.487 401.948 L 493.320 415.395 496.910 418.686 C 503.382 424.619, 496.474 428.999, 489.850 423.163 C 484.417 418.377, 473.238 401.140, 472.030 395.687 C 471.443 393.039, 470.345 389.889, 469.590 388.687 C 468.835 387.484, 467.905 384.293, 467.524 381.595 C 466.762 376.203, 463.548 371, 460.979 371 C 458.241 371, 458.132 371.905, 460.261 376.943 C 462.407 382.025, 462.088 385.727, 459.625 384.305 C 457.321 382.975, 446 368.928, 446 367.400 C 446 366.619, 444.222 364.748, 442.049 363.240 C 439.876 361.733, 437.647 359.257, 437.096 357.737 C 436.546 356.217, 435.286 354.683, 434.297 354.327 C 429.810 352.712, 422.270 343.289, 421.533 338.373 C 420.816 333.590, 415.643 322, 414.225 322 C 413.815 322, 412.247 320.857, 410.740 319.460 C 407.236 316.210, 407.075 313, 410.417 313 C 411.746 313, 413.011 312.468, 413.228 311.817 C 413.874 309.878, 406.880 294.763, 403.833 291.512 C 402.280 289.855, 401.007 288.012, 401.005 287.416 C 401.002 286.819, 399.191 283.749, 396.980 280.592 C 394.768 277.436, 391.826 272.748, 390.441 270.176 C 389.056 267.604, 386.928 264.064, 385.711 262.309 C 384.495 260.554, 382.375 257.248, 381 254.962 C 379.625 252.677, 377.372 250.220, 375.993 249.504 C 372.070 247.464, 359.569 232.031, 360.824 230.776 C 363.809 227.791, 391.990 258.477, 399.369 272.747 C 400.256 274.462, 403.236 277.766, 405.991 280.089 C 409.241 282.830, 411 285.096, 411 286.542 C 411 287.798, 412.060 289.464, 413.430 290.362 C 414.766 291.238, 416.644 293.282, 417.602 294.904 C 418.560 296.526, 421.238 298.899, 423.553 300.177 C 427.718 302.476, 436.123 313.565, 441.232 323.500 C 442.363 325.700, 444.386 328.942, 445.728 330.704 C 447.069 332.466, 449.456 337.515, 451.032 341.925 C 452.608 346.335, 454.866 351.252, 456.048 352.851 C 458.510 356.181, 457.809 358.540, 453.173 362.527 C 450.851 364.525, 450.700 365.046, 451.765 367.382 C 453.479 371.144, 455.649 370.645, 456.688 366.250 C 457.977 360.801, 461.306 360.952, 462 366.490 C 462.341 369.209, 463.046 370.585, 464.214 370.807 C 466.447 371.232, 467.550 367.018, 466.212 363.178 C 464.206 357.425, 466.577 342.379, 470.766 334.275 L 474.500 327.050 472.078 322.462 C 470.745 319.939, 468.495 317.010, 467.078 315.954 C 465.660 314.898, 464.050 313.521, 463.500 312.895 C 462.950 312.268, 454.824 304.048, 445.443 294.628 C 436.061 285.208, 424.811 273.660, 420.443 268.968 C 412.851 260.812, 408.536 255.972, 379.455 223 C 372.422 215.025, 362.793 204.225, 358.058 199 C 353.322 193.775, 347.938 187.700, 346.092 185.500 C 342.878 181.669, 340.658 179.190, 329.500 166.972 C 322.987 159.840, 315.479 151.179, 303.519 137 C 298.183 130.675, 290.147 121.654, 285.659 116.954 C 266.142 96.513, 249.991 80, 249.515 80 C 248.254 80, 249.225 83.973, 251.836 89.500 C 253.395 92.800, 254.965 97.300, 255.324 99.500 C 255.683 101.700, 257.344 106.838, 259.014 110.917 C 260.685 114.996, 262.745 121.746, 263.593 125.917 C 264.441 130.088, 266.185 136.875, 267.468 141 C 268.751 145.125, 270.238 150.300, 270.774 152.500 C 271.309 154.700, 272.664 160.100, 273.784 164.500 C 274.904 168.900, 276.249 174.300, 276.773 176.500 C 277.801 180.816, 280.674 190.550, 286.514 209.500 C 289.932 220.592, 292.341 229.098, 296.424 244.500 C 299.363 255.589, 303.147 268.435, 306.143 277.500 C 307.779 282.450, 309.522 287.850, 310.016 289.500 C 310.510 291.150, 313.012 299.475, 315.575 308 C 318.139 316.525, 321.568 328.225, 323.195 334 C 327.083 347.798, 330.482 359.322, 332.485 365.500 C 335.279 374.119, 336.976 380.434, 336.988 382.258 C 336.995 383.225, 339.485 389.225, 342.522 395.591 C 349.553 410.327, 353 418.523, 353 420.500 C 353 421.358, 354.065 424.634, 355.367 427.780 C 357.807 433.673, 359.666 447.471, 358.147 448.409 C 357.676 448.700, 356.247 447.827, 354.971 446.469 C 353.363 444.758, 351.554 443.989, 349.076 443.965 C 344.902 443.923, 344.018 443.446, 333.461 435.533 C 322.625 427.412, 319.335 424.538, 305.928 411.487 C 295.389 401.227, 286.728 394.939, 285.218 396.449 C 284.894 396.772, 286.851 399.168, 289.565 401.773 C 292.279 404.377, 299.450 412.117, 305.500 418.973 C 311.550 425.829, 322.056 436.976, 328.847 443.745 C 344.234 459.083, 344.206 461.194, 328.664 457.558 C 325.274 456.765, 319.125 455.360, 315 454.437 C 300.972 451.296, 289.518 447.750, 280.868 443.871 C 276.120 441.742, 271.682 440, 271.004 440 C 270.327 440, 268.136 439.119, 266.136 438.043 C 261.180 435.375, 239.070 425, 238.340 425 C 237.725 425, 226.775 419.482, 216.500 413.994 C 202.140 406.326, 184.036 397.243, 182.102 396.737 C 178.074 395.683, 180.056 397.710, 188.250 403.023 C 192.787 405.964, 199.448 410.313, 203.052 412.686 C 206.655 415.059, 210.062 417, 210.624 417 C 211.185 417, 213.411 418.337, 215.572 419.972 C 217.732 421.607, 219.847 422.957, 220.271 422.972 C 220.696 422.987, 222.721 424.061, 224.771 425.357 C 238.238 433.871, 258.788 444.935, 264 446.478 C 265.375 446.884, 268.075 448.713, 270 450.542 C 273.702 454.059, 279.569 456.644, 287 458.033 C 296.200 459.753, 299.693 460.729, 307.500 463.756 C 311.900 465.462, 317.825 467.376, 320.667 468.009 C 327.684 469.572, 330.209 472.257, 326.217 473.910 C 324.069 474.800, 322.646 474.810, 320.434 473.953 C 318.820 473.327, 314.012 472.627, 309.750 472.396 C 300.319 471.885, 299.464 473.646, 306 480.117 C 308.200 482.295, 310 484.604, 310 485.248 C 310 485.892, 311.913 488.266, 314.250 490.523 C 321.470 497.496, 327.590 504.321, 330.358 508.488 C 332.778 512.129, 346.096 523, 348.138 523 C 349.933 523, 348.891 526.360, 346.116 529.521 C 344.529 531.328, 343.057 533.330, 342.844 533.969 C 342.164 536.008, 328.869 538.906, 317.500 539.492 C 311.450 539.805, 301.325 540.447, 295 540.920 C 288.675 541.393, 277.875 541.840, 271 541.912 C 258.972 542.039, 233.178 543.584, 228 544.486 C 226.625 544.726, 221.675 545.171, 217 545.475 C 188.351 547.339, 175.141 548.239, 172.500 548.506 C 170.850 548.673, 162.975 549.307, 155 549.915 C 147.025 550.523, 137.350 551.298, 133.500 551.638 C 129.650 551.978, 119.525 552.216, 111 552.167 C 102.475 552.118, 87.850 552.567, 78.500 553.165 C 58.830 554.422, 50.634 554.321, 36.614 552.647 C 20.534 550.726, 16.141 552.438, 29.312 555.493 C 32.910 556.327, 40.050 558.630, 45.177 560.609 C 50.305 562.589, 57.425 565.248, 61 566.518 C 64.575 567.789, 72 570.464, 77.500 572.462 C 90.381 577.142, 104.453 581.854, 119.500 586.526 C 126.100 588.575, 136.225 591.794, 142 593.678 C 147.775 595.563, 158.575 598.927, 166 601.153 C 173.425 603.380, 181.671 606.084, 184.325 607.161 C 186.979 608.239, 192.479 609.972, 196.548 611.012 C 200.617 612.053, 207.895 614.323, 212.723 616.058 C 221.954 619.375, 228.936 621.550, 243.062 625.508 C 247.771 626.827, 252.852 628.373, 254.352 628.944 C 255.853 629.514, 262.575 631.535, 269.290 633.434 C 296.926 641.249, 319.755 649.944, 326.116 655.079 C 327.945 656.555, 331.036 657.449, 336.387 658.049 C 345.048 659.020, 346 659.402, 346 661.899 C 346 663.933, 342.131 666, 338.322 666 C 334.626 666, 318.417 671.687, 312.378 675.103 C 309.561 676.696, 306.408 678, 305.370 678 C 304.333 678, 301.441 679.088, 298.944 680.417 C 296.447 681.746, 292.632 683.166, 290.465 683.572 C 288.299 683.979, 284.270 685.362, 281.513 686.646 C 278.756 687.930, 275.405 688.985, 274.066 688.990 C 272.727 688.996, 269.800 689.886, 267.562 690.970 C 265.324 692.053, 261.019 693.811, 257.996 694.877 C 254.973 695.942, 246.875 698.923, 240 701.501 C 233.125 704.080, 223.225 707.526, 218 709.159 C 212.775 710.792, 206.475 712.956, 204 713.967 C 194.466 717.863, 183.044 722, 181.801 722.009 C 181.085 722.014, 178.250 723.125, 175.500 724.478 C 172.750 725.831, 169.690 726.952, 168.700 726.969 C 167.711 726.986, 165.461 727.752, 163.700 728.671 C 161.940 729.591, 156.900 731.641, 152.500 733.229 C 139.904 737.773, 105.452 749.989, 95 753.617 C 89.775 755.431, 81.900 758.230, 77.500 759.837 C 73.100 761.444, 66.800 763.736, 63.500 764.931 C 52.084 769.065, 40 774.424, 40 775.353 C 40 776.274, 42.448 776.110, 60 774.009 C 64.675 773.449, 70.413 773.270, 72.752 773.610 C 75.814 774.055, 77.693 773.776, 79.467 772.613 C 80.934 771.652, 86.093 770.563, 92.216 769.922 C 97.872 769.329, 104.975 768.174, 108 767.356 C 113.764 765.795, 120.250 764.885, 138.500 763.073 C 159.184 761.019, 200.713 754.149, 232.500 747.523 C 239.100 746.147, 245.625 745.020, 247 745.019 C 248.375 745.018, 252.425 744.350, 256 743.536 C 265.556 741.358, 303.551 734.393, 310 733.637 C 311.375 733.475, 313.318 733.748, 314.317 734.243 C 315.556 734.856, 316.888 734.648, 318.502 733.591 C 321.842 731.402, 328.637 729.705, 334.500 729.594 C 337.250 729.542, 340.400 728.999, 341.500 728.386 C 343.759 727.128, 352.295 725.931, 362.104 725.495 C 365.737 725.334, 370.102 724.482, 371.805 723.601 C 373.507 722.720, 375.373 722, 375.950 722 C 377.983 722, 376.968 723.965, 374.195 725.399 C 372.652 726.197, 370.861 728.009, 370.216 729.425 C 369.444 731.119, 368.246 732, 366.713 732 C 363.726 732, 360.482 734.353, 361.406 735.848 C 362.586 737.758, 368.504 737.206, 370.500 735 C 371.495 733.900, 373.418 733, 374.773 733 C 376.128 733, 378.774 731.650, 380.653 730 C 384.999 726.184, 388.682 725.924, 386.235 729.605 C 385.831 730.213, 383.781 731.271, 381.680 731.956 C 379.579 732.641, 377.618 733.831, 377.323 734.601 C 377.028 735.370, 375.788 736, 374.567 736 C 373.347 736, 371.258 737.164, 369.924 738.587 C 366.973 741.737, 363.031 743.468, 356.624 744.429 C 351.917 745.135, 351.797 745.237, 352.366 748.081 C 353.144 751.970, 347.106 756, 339.023 756.986 C 335.174 757.455, 334.030 757.895, 335.250 758.437 C 339.484 760.318, 336.777 764.199, 328.250 768.474 C 325.363 769.921, 323 771.557, 323 772.109 C 323 772.661, 320.948 774.020, 318.441 775.129 C 315.933 776.239, 313.626 777.811, 313.314 778.625 C 313.002 779.438, 309.091 782.857, 304.623 786.222 C 295.116 793.383, 288.416 799.068, 270 815.596 C 262.575 822.261, 253.575 830.057, 250 832.922 C 228.694 849.997, 170 903.719, 170 906.146 C 170 908.507, 180.044 902.902, 182.300 899.283 C 182.740 898.577, 184.490 897.281, 186.190 896.402 C 187.889 895.523, 193.155 891.801, 197.890 888.132 C 207.737 880.501, 224.576 868.372, 233.474 862.500 C 236.808 860.300, 244.171 855.125, 249.835 851 C 255.500 846.875, 261.342 842.719, 262.817 841.765 C 264.293 840.811, 268.669 836.761, 272.543 832.765 C 276.416 828.769, 282.653 822.800, 286.404 819.500 C 290.154 816.200, 298.010 809.120, 303.861 803.767 C 309.713 798.414, 316.822 792.114, 319.660 789.767 C 322.498 787.420, 325.393 784.475, 326.094 783.223 C 326.794 781.971, 328.522 780.671, 329.933 780.335 C 333.333 779.526, 335.202 777.968, 334.613 776.434 C 333.937 774.673, 336.791 772.547, 341.714 771.143 C 344.031 770.482, 346.612 768.964, 347.449 767.769 C 348.913 765.679, 353.296 763.023, 361.250 759.403 C 363.524 758.368, 365 757.001, 365 755.930 C 365 750.589, 368.215 749.310, 369.850 754 C 371.420 758.503, 379.172 758.503, 381.500 754 C 383.259 750.598, 386 749.989, 386 753 C 386 754.100, 385.550 755, 385 755 C 384.450 755, 383.993 755.563, 383.984 756.250 C 383.964 757.905, 377.223 765.219, 373.750 767.355 C 372.237 768.285, 371 769.569, 371 770.209 C 371 772.264, 345.734 796.984, 338.688 801.822 C 328.375 808.904, 320.478 813.674, 317.331 814.722 C 315.774 815.241, 314.355 816.416, 314.177 817.333 C 313.698 819.799, 317.835 819.463, 322.018 816.697 C 323.933 815.430, 328.200 813.191, 331.500 811.721 C 334.800 810.251, 339.676 807.931, 342.336 806.566 C 345.463 804.962, 348.114 804.272, 349.836 804.615 C 351.707 804.987, 353.541 804.386, 356 802.595 C 360.662 799.199, 365.850 796.517, 366.500 797.166 C 366.788 797.455, 366.081 799.823, 364.929 802.429 C 361.509 810.160, 362.090 810.051, 376.538 800.250 C 389.054 791.760, 389.036 792.003, 375.122 819.782 C 364.651 840.689, 360.805 849.361, 357.729 859 C 356.939 861.475, 354.161 869.125, 351.555 876 C 348.950 882.875, 344.586 894.575, 341.857 902 C 339.129 909.425, 335.115 920, 332.938 925.500 C 330.760 931, 328.983 936.221, 328.989 937.103 C 329.001 938.908, 325.744 947.814, 320.982 959 C 317.575 967.003, 312.810 979.868, 307.835 994.500 C 304.591 1004.042, 298.805 1019.249, 288.378 1045.642 C 284.870 1054.521, 282 1062.492, 282 1063.355 C 282 1064.219, 281.100 1067.209, 280 1070 C 276.473 1078.949, 277.302 1080.288, 282.772 1074.471 C 295.487 1060.949, 302.092 1053.496, 308.500 1045.439 C 312.350 1040.599, 319.783 1031.882, 325.018 1026.069 C 330.254 1020.256, 335.879 1013.855, 337.518 1011.845 C 341.669 1006.756, 357.368 988.725, 363.991 981.439 C 367.021 978.106, 374.224 969.781, 379.997 962.939 C 385.771 956.098, 395.446 945.093, 401.497 938.485 C 407.549 931.877, 414.738 923.777, 417.473 920.485 C 423.996 912.634, 436.723 898.174, 439.948 894.949 C 441.352 893.546, 446.078 888.422, 450.450 883.562 C 454.823 878.702, 461.798 872.056, 465.950 868.794 C 473.009 863.249, 480 855.817, 480 853.859 C 480 853.387, 480.702 853, 481.560 853 C 482.934 853, 483.036 854.727, 482.416 867.485 C 481.958 876.917, 482.111 884.504, 482.856 889.235 C 483.485 893.231, 484.689 902.350, 485.532 909.500 C 486.375 916.650, 487.696 925.875, 488.467 930 C 489.238 934.125, 490.151 940.650, 490.496 944.500 C 491.288 953.359, 501.375 1010.695, 504.130 1022 C 505.269 1026.675, 506.611 1033.167, 507.111 1036.426 C 507.611 1039.686, 508.893 1045.311, 509.959 1048.926 C 511.861 1055.377, 515.180 1071.115, 516.512 1080 C 516.883 1082.475, 518.236 1089, 519.518 1094.500 C 520.800 1100, 522.598 1108.550, 523.513 1113.500 C 524.428 1118.450, 525.603 1123.850, 526.124 1125.500 C 526.645 1127.150, 527.747 1132.994, 528.572 1138.487 C 529.398 1143.979, 530.525 1148.925, 531.078 1149.478 C 532.313 1150.713, 533.962 1148.424, 533.985 1145.443 C 533.993 1144.311, 535.145 1137.561, 536.545 1130.443 C 539.242 1116.724, 539.613 1114.244, 542.968 1087.500 C 544.142 1078.150, 546.180 1063.525, 547.497 1055 C 548.815 1046.475, 550.380 1035, 550.974 1029.500 C 551.568 1024, 552.498 1016.350, 553.040 1012.500 C 553.583 1008.650, 554.909 998.075, 555.987 989 C 557.066 979.925, 558.619 968.900, 559.439 964.500 C 560.259 960.100, 560.946 954.603, 560.965 952.285 C 560.984 949.967, 561.905 943.442, 563.012 937.785 C 564.119 932.128, 565.488 919.400, 566.056 909.500 C 566.623 899.600, 567.519 887.450, 568.047 882.500 C 574.053 826.158, 574.550 806.967, 570.405 791.500 C 567.031 778.910, 566.530 776, 567.735 776 C 568.264 776, 569.480 777.912, 570.438 780.250 C 573.891 788.679, 578.296 797.708, 584.462 809 C 587.917 815.325, 593.342 825.450, 596.519 831.500 C 601.713 841.391, 607.821 852.152, 613.833 862 C 615.008 863.925, 616.869 867.300, 617.969 869.500 C 619.069 871.700, 621.758 876.425, 623.945 880 C 626.132 883.575, 629.522 889.425, 631.478 893 C 633.434 896.575, 636.368 901.750, 637.998 904.500 C 639.628 907.250, 642.094 911.525, 643.478 914 C 644.863 916.475, 647.564 921.200, 649.481 924.500 C 651.398 927.800, 654.335 932.975, 656.007 936 C 657.679 939.025, 662.242 946.900, 666.146 953.500 C 670.050 960.100, 674.264 967.385, 675.510 969.688 C 676.756 971.992, 678.653 975.142, 679.725 976.688 C 680.797 978.235, 681.918 980.175, 682.215 981 C 682.744 982.467, 700.655 1012.108, 708.802 1025 C 714.508 1034.027, 719.243 1041.813, 720.904 1044.894 C 724.990 1052.477, 736.814 1069.565, 741.909 1075.250 C 746.260 1080.104, 747.054 1078.410, 744.564 1069.588 C 743.774 1066.790, 741.936 1058.875, 740.479 1052 C 739.022 1045.125, 736.996 1036.800, 735.977 1033.500 C 734.958 1030.200, 732.469 1021.425, 730.447 1014 C 728.424 1006.575, 724.358 991.950, 721.411 981.500 C 718.464 971.050, 714.668 957.550, 712.974 951.500 C 711.280 945.450, 709.046 937.575, 708.010 934 C 706.973 930.425, 705.581 924.575, 704.917 921 C 704.253 917.425, 703.144 913.371, 702.454 911.991 C 700.998 909.082, 696.680 892.917, 693.509 878.500 C 692.299 873, 690.298 864.450, 689.061 859.500 C 687.824 854.550, 686.143 847.800, 685.324 844.500 C 684.505 841.200, 682.932 836.143, 681.827 833.263 C 680.410 829.566, 680.010 826.900, 680.467 824.195 C 680.938 821.408, 680.519 818.884, 678.930 814.932 C 676.054 807.777, 673.017 797.943, 673.008 795.750 C 672.997 793.203, 675.111 793.597, 679.572 796.972 C 683.293 799.788, 686 800.788, 686 799.346 C 686 798.212, 678.998 786.117, 677.976 785.485 C 676.730 784.715, 676.706 781.300, 677.942 780.536 C 678.459 780.216, 682.172 782.935, 686.192 786.578 C 690.211 790.221, 695.975 794.882, 699 796.935 C 714.401 807.389, 721.080 812.276, 722.249 813.945 C 722.958 814.958, 727.130 818.521, 731.519 821.863 C 739.069 827.612, 744.684 832.029, 751.500 837.583 C 755.353 840.723, 764.723 847.733, 773 853.669 C 776.575 856.233, 781.750 860.211, 784.500 862.510 C 787.250 864.809, 791.300 867.880, 793.500 869.334 C 800.859 874.199, 802.470 875.396, 808.136 880.211 C 811.235 882.845, 814.119 885, 814.543 885 C 815.254 885, 819.417 887.969, 829.348 895.559 C 831.464 897.177, 834.896 899.625, 836.974 901 C 839.051 902.375, 842.045 904.362, 843.626 905.416 C 845.207 906.470, 848.839 908.892, 851.699 910.797 C 854.558 912.703, 857.899 915.328, 859.123 916.631 C 861.588 919.254, 864 919.747, 864 917.627 C 864 916.139, 859.485 911.876, 847.981 902.500 C 840.324 896.260, 830.162 887.067, 816.500 874.020 C 808.163 866.059, 797.886 857.050, 784.533 846 C 769.407 833.483, 731.890 796.570, 729.693 792.043 C 729.037 790.691, 724.392 785.966, 719.371 781.543 C 714.350 777.119, 707.922 770.716, 705.087 767.313 C 700.527 761.840, 691.823 754.417, 681.404 747.115 C 677.811 744.597, 677.047 743, 679.434 743 C 680.811 743, 684.001 744.779, 697.854 753.268 C 701.348 755.410, 705.968 757.783, 708.120 758.542 C 710.271 759.301, 713.530 761.065, 715.360 762.461 C 718.032 764.499, 719.854 765.009, 724.594 765.044 C 727.842 765.068, 732.300 765.762, 734.500 766.587 C 736.700 767.411, 739.548 768.306, 740.830 768.577 C 744.497 769.350, 743.159 765.843, 738.988 763.750 C 732.536 760.512, 722.314 756, 721.403 755.988 C 719.747 755.967, 698.592 742.434, 693 737.819 C 691.075 736.230, 688.894 734.437, 688.152 733.835 C 686.140 732.198, 688.717 730.942, 691.734 732.089 C 693.055 732.591, 695.792 732.746, 697.818 732.432 C 700.018 732.092, 705.079 732.705, 710.394 733.956 C 715.286 735.107, 720.911 736.250, 722.894 736.495 C 730.683 737.458, 734.604 738.288, 737 739.482 C 738.375 740.168, 742.200 740.997, 745.500 741.326 C 753.160 742.088, 757.386 742.716, 763 743.925 C 768.174 745.040, 781.405 747.732, 788 749.011 C 790.475 749.492, 799.025 751.240, 807 752.897 C 814.975 754.554, 826 756.640, 831.500 757.532 C 837 758.424, 843.975 759.775, 847 760.536 C 853.095 762.068, 894.685 767.523, 908 768.536 C 912.675 768.892, 918.075 769.566, 920 770.034 C 921.925 770.502, 925.525 771.142, 928 771.456 C 930.475 771.770, 936.550 772.679, 941.500 773.475 C 946.450 774.272, 954.100 775.398, 958.500 775.979 C 962.900 776.559, 967.625 777.216, 969 777.438 C 990.119 780.847, 988.934 780.692, 1000.750 781.591 C 1008.876 782.210, 1010 782.100, 1010 780.686 C 1010 779.628, 1008.544 778.709, 1005.750 778.003 C 999.566 776.439, 995.126 774.863, 969 764.958 C 949.661 757.625, 946.074 756.306, 920.500 747.125 C 912.800 744.361, 902.675 740.692, 898 738.972 C 893.325 737.252, 883.200 733.643, 875.500 730.951 C 867.800 728.260, 859.717 725.145, 857.539 724.029 C 855.360 722.913, 851.754 722, 849.526 722 C 846.317 722, 845.269 721.542, 844.487 719.800 C 843.808 718.286, 841.940 717.207, 838.500 716.341 C 835.750 715.649, 831.925 714.213, 830 713.150 C 828.075 712.087, 824.925 710.922, 823 710.561 C 821.075 710.201, 817.475 709.072, 815 708.053 C 812.525 707.034, 804.425 704.328, 797 702.039 C 789.575 699.751, 781.475 697.193, 779 696.355 C 776.525 695.517, 772.475 694.236, 770 693.508 C 767.525 692.781, 763.700 691.488, 761.500 690.636 C 759.300 689.785, 756.528 689.068, 755.340 689.044 C 754.152 689.020, 750.327 687.650, 746.840 686.001 C 743.353 684.351, 739.818 683.001, 738.985 683.001 C 738.152 683, 735.902 682.166, 733.985 681.147 C 732.068 680.128, 728.700 678.747, 726.500 678.077 C 724.300 677.408, 721.600 676.441, 720.500 675.928 C 716.889 674.245, 698.616 668.844, 693 667.800 C 683.783 666.087, 683.655 664.762, 692.481 662.463 C 695.663 661.634, 699.443 660.317, 700.883 659.535 C 702.322 658.754, 708.675 656.714, 715 655.002 C 727.184 651.704, 753.465 644.100, 763.500 640.970 C 766.800 639.940, 773.775 637.756, 779 636.116 C 789.936 632.683, 799.925 629.642, 815.500 625.004 C 821.550 623.203, 828.750 620.930, 831.500 619.953 C 834.250 618.976, 842.125 616.506, 849 614.466 C 859.960 611.212, 896.994 598.998, 920.500 590.884 C 947.958 581.406, 986.779 567.570, 996.500 563.797 C 1000.900 562.090, 1006.975 559.774, 1010 558.652 C 1016.477 556.248, 1018.850 554.450, 1017.426 553.026 C 1016.093 551.693, 977.111 551.626, 965 552.936 C 959.775 553.501, 952.125 554.198, 948 554.486 C 943.875 554.774, 933.975 555.465, 926 556.022 C 918.025 556.579, 900.700 557.062, 887.500 557.096 C 864.372 557.154, 851.767 557.899, 850.377 559.290 C 850.013 559.654, 850.261 560.610, 850.928 561.414 C 852.588 563.414, 846.905 566.363, 841.778 566.162 C 839.729 566.082, 835.229 566.670, 831.777 567.468 C 828.324 568.266, 821.675 569.221, 817 569.590 C 812.325 569.959, 806.700 571.057, 804.500 572.030 C 802.300 573.004, 796.900 574.103, 792.500 574.472 C 788.100 574.841, 781.125 575.977, 777 576.997 C 772.875 578.017, 763.425 579.565, 756 580.437 C 748.575 581.310, 739.488 582.469, 735.807 583.012 C 724.083 584.743, 717.050 584.290, 712.151 581.490 C 709.760 580.123, 707.397 579.255, 706.901 579.561 C 706.406 579.867, 706 579.390, 706 578.500 C 706 577.610, 705.581 577.141, 705.069 577.457 C 704.557 577.774, 703.887 577.627, 703.581 577.131 C 703.129 576.399, 742.772 556, 744.646 556 C 747.312 556, 756 552.575, 756 551.524 C 756 550.790, 753.255 547.766, 749.900 544.804 C 741.601 537.476, 741.575 535.131, 749.660 523.259 C 755.755 514.309, 759.796 510.748, 771 504.454 C 779.300 499.791, 781 498.239, 781 495.324 C 781 493.775, 781.857 492.567, 783.481 491.827 C 785.875 490.736, 787.762 487.429, 786.633 486.300 C 785.231 484.898, 772.262 481.190, 770.359 481.647 C 769.182 481.930, 767.899 481.646, 767.510 481.016 C 766.345 479.131, 767.975 472.942, 769.805 472.301 C 770.737 471.974, 772.625 470.690, 774 469.446 C 776.744 466.965, 787.893 462, 790.720 462 C 792.273 462, 800.912 459.398, 807.765 456.866 C 813.028 454.922, 812.781 448, 807.449 448 C 806.181 448, 804.386 447.243, 803.461 446.318 C 799.969 442.826, 804.006 441.724, 817.868 442.382 C 835.414 443.217, 847.955 439.932, 862.159 430.782 C 867.363 427.430, 873 420.291, 873 417.053 C 873 410.384, 859.535 393.959, 850.829 390.008 C 844.616 387.189, 842.797 387.486, 838.620 392 C 836.585 394.200, 834.074 396, 833.041 396 C 830.150 396, 828 397.077, 828 398.525 C 828 399.247, 826.508 400.759, 824.684 401.886 C 822.861 403.013, 820.541 404.850, 819.529 405.968 C 818.518 407.085, 816.510 408, 815.068 408 C 813.625 408, 811.415 408.722, 810.156 409.604 C 808.458 410.793, 806.721 411.035, 803.433 410.542 L 799 409.877 799 413.371 C 799 416.002, 798.499 417.024, 796.973 417.508 C 795.859 417.862, 794.182 419.355, 793.246 420.826 C 791.108 424.189, 790.024 424.965, 787.437 424.985 C 786.302 424.993, 784.081 426.350, 782.500 428 C 774.914 435.918, 774.637 430.470, 781.256 403.500 C 797.605 336.885, 797.758 336.180, 806.616 286.500 C 808.956 273.381, 810.017 268.191, 813.671 252 C 814.477 248.425, 815.516 243.475, 815.979 241 C 818.557 227.228, 825.006 190.168, 826.943 178 C 829.223 163.673, 844.136 95.207, 845.433 93.108 C 845.765 92.572, 846.419 90.079, 846.889 87.567 C 847.826 82.549, 846.326 81.268, 843.776 84.909 C 835.163 97.206, 707.406 225.869, 669.500 260.421 C 628.766 297.551, 614.731 310.775, 603.340 322.759 C 586.479 340.499, 584.148 343.329, 582.466 348.104 C 581.615 350.522, 579.860 354.075, 578.567 356 C 577.275 357.925, 575.917 361.216, 575.551 363.314 C 575.159 365.560, 574.406 366.969, 573.719 366.740 C 572.896 366.465, 572.501 361.059, 572.380 348.425 C 572.286 338.566, 571.747 327.575, 571.183 324 C 570.618 320.425, 569.883 311.650, 569.548 304.500 C 568.868 289.977, 567.417 273.057, 565.948 262.500 C 565.412 258.650, 564.100 247.850, 563.033 238.500 C 561.966 229.150, 560.427 217, 559.613 211.500 C 558.798 206, 557.871 199.475, 557.551 197 C 554.827 175.910, 544.565 116.999, 541.526 105 C 540.760 101.975, 539.613 96.125, 538.978 92 C 536.914 78.594, 533.063 69.280, 531.603 74.167 M 814.958 124.750 C 808.560 132.136, 790.398 151.311, 785.021 156.358 C 772.670 167.949, 755.762 185.399, 751.764 190.681 C 745.457 199.012, 742 203.987, 742 204.731 C 742 205.094, 740.800 206.643, 739.334 208.173 C 737.868 209.704, 735.730 212.499, 734.584 214.386 C 731.835 218.910, 718.614 236.423, 714.081 241.545 C 710.561 245.522, 705.933 251.706, 701 259.024 C 698.157 263.242, 695.937 266.425, 686.021 280.500 C 682.146 286, 678.194 291.812, 677.238 293.415 C 676.282 295.019, 674.038 297.998, 672.250 300.036 C 670.462 302.075, 669 304.147, 669 304.642 C 669 305.137, 666.494 309.133, 663.432 313.521 C 660.369 317.909, 656.698 323.300, 655.274 325.500 C 653.849 327.700, 651.487 331.300, 650.023 333.500 C 644.305 342.096, 630.937 367.557, 626.398 378.500 C 617.332 400.352, 613.507 419.685, 614.689 437.679 L 615.327 447.380 620.413 452.563 C 623.211 455.414, 626.625 458.316, 628 459.012 C 629.375 459.708, 632.075 461.800, 634 463.661 C 651.773 480.845, 658.871 486.871, 662.537 487.889 C 667.410 489.242, 670 489.300, 670 488.056 C 670 487.098, 664.474 481.598, 660.091 478.195 C 657.566 476.234, 657.911 474, 660.739 474 C 664.286 474, 672.058 478.384, 672.643 480.715 C 673.190 482.894, 676.469 486, 678.223 486 C 680.219 486, 678.650 481.717, 675.500 478.567 C 673.575 476.642, 672 474.583, 672 473.991 C 672 472.108, 659.785 466.914, 656.845 467.546 C 653.827 468.195, 651.913 466.295, 654.687 465.402 C 655.684 465.081, 657.400 464.415, 658.500 463.921 C 659.600 463.428, 663.875 462.906, 668 462.762 C 674.903 462.521, 675.525 462.322, 675.817 460.270 C 676.474 455.644, 689.357 455.362, 700.728 459.726 C 701.428 459.994, 702 459.687, 702 459.042 C 702 457.407, 687.778 451, 684.147 451 C 678.004 451, 676.322 448.829, 679.933 445.561 C 682.385 443.341, 681.730 441.679, 677.266 438.796 C 669.982 434.093, 667.400 433.003, 663.500 432.986 C 657.807 432.962, 656.162 431.700, 659.121 429.628 C 662.050 427.576, 665.249 427.560, 669.151 429.578 C 672.211 431.160, 679.138 431.121, 689.688 429.461 C 693.020 428.936, 694.706 429.269, 697.948 431.091 C 700.916 432.759, 702.319 433.081, 703.123 432.277 C 704.766 430.634, 703.256 429, 700.096 429 C 698.531 429, 696.475 428.076, 695.405 426.891 C 693.273 424.530, 682.872 419, 680.563 419 C 679.741 419, 677.688 417.650, 676 416 C 673.581 413.635, 672.039 412.997, 668.716 412.985 C 659.977 412.953, 659.874 409.534, 668.579 408.447 C 672.918 407.905, 674.830 408.132, 677.353 409.491 C 679.127 410.446, 681.443 411.061, 682.499 410.858 C 685.806 410.221, 674.790 403.098, 668.715 401.946 C 662.601 400.787, 660.144 398.956, 662.300 397.166 C 663.804 395.918, 667.578 396.436, 678.474 399.389 C 683.094 400.640, 685.182 400.765, 687.684 399.939 C 690.353 399.058, 691.738 399.233, 695.587 400.936 C 700.842 403.260, 705.009 403.621, 704.982 401.750 C 704.959 400.256, 690.272 393.400, 687.803 393.731 C 685.698 394.013, 677.487 390.598, 676.524 389.039 C 675.580 387.511, 677.811 385, 680.114 385 C 681.142 385, 682.545 385.900, 683.232 387 C 684.784 389.485, 686 389.573, 686 387.200 C 686 382.697, 690.017 381.836, 693.499 385.594 C 695.792 388.068, 696.193 388.149, 702.202 387.344 C 709.700 386.339, 710.162 385.048, 704.500 380.921 C 697.678 375.949, 692.878 374.015, 688.904 374.641 C 685.239 375.217, 681 371.902, 681 368.459 C 681 365.675, 690.249 365.657, 695.467 368.431 C 698.124 369.844, 701.346 371, 702.626 371 C 703.907 371, 707.850 372.090, 711.389 373.422 C 717.474 375.712, 719 375.792, 719 373.817 C 719 372.484, 712.970 370.166, 707.750 369.491 C 705.138 369.154, 703 368.530, 703 368.105 C 703 367.680, 701.200 365.383, 699 363 C 696.800 360.617, 695 357.801, 695 356.741 C 695 355.682, 694.102 353.673, 693.003 352.277 C 690.245 348.770, 688.657 342.510, 689.924 340.141 C 691.538 337.125, 697.904 332, 700.035 332 C 702.562 332, 702.528 333.103, 699.933 335.326 C 696.355 338.389, 698.055 339.504, 706.233 339.455 C 712.850 339.416, 714.208 339.079, 717.320 336.705 C 719.271 335.217, 721.336 334, 721.910 334 C 723.269 334, 732.064 325.395, 734.826 321.363 L 736.975 318.227 734.830 317.666 C 732.518 317.061, 726.675 319.099, 725.563 320.898 C 724.456 322.690, 722.377 322.161, 721.333 319.821 C 720.485 317.919, 721.009 317.115, 725.468 313.483 C 728.276 311.195, 731.782 309.021, 733.258 308.650 C 735.869 307.995, 738.743 304.410, 737.586 303.253 C 737.269 302.936, 735.150 303.290, 732.878 304.040 C 728.957 305.334, 728.651 305.287, 726.892 303.115 C 725.206 301.033, 725.172 300.568, 726.519 297.963 C 727.334 296.388, 728 293.517, 728 291.583 C 728 287.977, 737.418 276.015, 743.359 272.076 C 744.666 271.209, 746.964 269.032, 748.467 267.237 C 749.970 265.443, 753.517 262.411, 756.349 260.500 C 765.020 254.650, 781 237.701, 781 234.354 C 781 232.180, 774.294 229.793, 768.026 229.736 C 761.269 229.674, 757.278 231.599, 753.024 236.970 C 749.934 240.871, 748 242.045, 748 240.017 C 748 237.401, 760.444 220.760, 772.608 207.110 C 793.641 183.508, 807.931 159.997, 817.002 134.071 C 819.201 127.785, 821 122.272, 821 121.821 C 821 119.825, 817.939 121.309, 814.958 124.750 M 290 156.335 C 290 157.186, 290.450 158.160, 291 158.500 C 291.550 158.840, 291.998 161.679, 291.996 164.809 C 291.991 170.420, 295.093 182.471, 299.123 192.500 C 300.228 195.250, 302.053 200.425, 303.177 204 C 304.301 207.575, 306.502 212.300, 308.067 214.500 C 309.632 216.700, 313.070 222.466, 315.706 227.313 C 318.343 232.160, 322.429 239.430, 324.787 243.468 C 327.359 247.873, 329.437 252.949, 329.981 256.155 C 330.480 259.095, 332.249 263.975, 333.913 267 C 337.073 272.746, 339.955 278.375, 359.421 316.839 C 369.808 337.361, 371.163 340.611, 370.650 343.769 C 369.369 351.664, 364.653 351.980, 363.626 344.241 C 363.227 341.228, 360.497 334.294, 356.605 326.406 C 353.103 319.308, 349.014 310.350, 347.517 306.500 C 346.021 302.650, 343.778 298.375, 342.534 297 C 339.845 294.028, 334.643 284.232, 332.542 278.184 C 331.717 275.810, 330.117 272.569, 328.986 270.981 C 327.855 269.393, 325.608 263.689, 323.992 258.306 C 322.376 252.923, 319.759 246.040, 318.176 243.009 C 316.594 239.979, 315.003 235.925, 314.641 234 C 313.827 229.676, 306.349 217.666, 304.991 218.505 C 303.387 219.497, 303.863 223.273, 306 226.500 C 307.093 228.150, 307.990 230.500, 307.993 231.721 C 307.997 232.943, 309.154 236.543, 310.563 239.721 C 311.973 242.900, 315.851 253.600, 319.180 263.500 C 322.509 273.400, 326.062 283.133, 327.075 285.129 C 328.088 287.125, 329.359 291.500, 329.899 294.852 C 330.438 298.203, 331.562 302.420, 332.395 304.222 C 335.553 311.057, 337.787 317.767, 339.481 325.500 C 340.444 329.900, 342.068 335.146, 343.089 337.157 C 345.635 342.172, 347.728 348.132, 350.057 357 C 351.863 363.879, 354.364 371.176, 358.964 383 C 362.045 390.916, 364 397.692, 364 400.450 C 364 403.617, 365.626 407, 367.149 407 C 368.535 407, 367.390 398.816, 365.330 394 C 364.507 392.075, 363.196 389.022, 362.417 387.216 C 361.637 385.410, 361 382.163, 361 380 C 361 377.837, 360.379 374.590, 359.620 372.784 C 357.831 368.526, 353.523 354.030, 351.958 347 C 350.447 340.213, 345.422 328.816, 343.456 327.716 C 341.517 326.630, 341.601 325, 343.596 325 C 347.867 325, 355.863 335.117, 357.554 342.662 C 358.511 346.929, 363.784 363.292, 367.611 373.865 C 369.475 379.015, 371 384.087, 371 385.136 C 371 387.233, 374.269 399.923, 376.633 407 C 377.459 409.475, 378.582 413.300, 379.128 415.500 C 381.168 423.716, 386.192 436.574, 389.047 440.885 C 390.671 443.337, 392 445.862, 392 446.497 C 392 447.132, 393.125 448.708, 394.500 450 C 395.875 451.292, 397.004 452.833, 397.010 453.424 C 397.015 454.016, 398.115 456.854, 399.455 459.731 C 400.794 462.608, 402.066 467.351, 402.280 470.270 C 402.581 474.371, 403.276 476.185, 405.335 478.244 C 406.801 479.710, 408 481.368, 408 481.929 C 408 482.490, 409.350 483.647, 411 484.500 C 413.107 485.590, 414 486.788, 414 488.526 C 414 491.907, 412.355 491.630, 408.635 487.624 C 406.911 485.767, 404.515 483.945, 403.312 483.576 C 401.896 483.142, 401.013 481.950, 400.812 480.202 C 400.430 476.897, 397.988 476.640, 396.441 479.743 C 395.826 480.977, 394.575 482.812, 393.661 483.822 C 391.413 486.306, 391.568 492.200, 394 496.739 C 395.100 498.791, 396 501.234, 396 502.167 C 396 503.100, 397.316 504.801, 398.924 505.946 C 404.680 510.045, 403.319 517.789, 395.914 523.061 C 394.295 524.214, 392.323 526.409, 391.532 527.938 C 390.741 529.467, 388.694 531.299, 386.981 532.008 C 381.641 534.220, 381.165 532.831, 380.383 512.750 C 379.923 500.957, 379.323 495.006, 378.595 495.017 C 377.201 495.039, 370 508.298, 370 510.843 C 370 511.895, 369.369 513.279, 368.598 513.919 C 367.827 514.558, 366.904 516.246, 366.547 517.670 C 366.190 519.093, 364.830 521.828, 363.526 523.747 C 362.221 525.667, 361.390 527.853, 361.679 528.606 C 361.968 529.358, 360.696 532.997, 358.852 536.692 C 353.586 547.246, 339.061 560.829, 322.085 571.079 C 313.373 576.339, 310.933 579.601, 313.876 582.056 C 314.903 582.912, 316.065 584.628, 316.459 585.871 C 317.670 589.686, 320.670 589.946, 329.097 586.966 C 333.333 585.468, 337.256 583.960, 337.814 583.615 C 338.693 583.072, 342.739 582.723, 359.975 581.705 C 365.040 581.406, 365.211 584.222, 360.313 587.262 C 353.380 591.565, 335.812 597.047, 327.500 597.502 C 320.792 597.869, 310.048 599.867, 307.159 601.286 C 298.567 605.505, 301.061 622.684, 310.676 625.516 C 312.973 626.192, 317.698 628.321, 321.176 630.247 C 327.723 633.871, 341.885 638.877, 348 639.729 C 349.925 639.997, 352.302 640.641, 353.282 641.160 C 360.379 644.921, 395.325 646.839, 405.892 644.047 C 407.876 643.523, 410.625 642.896, 412 642.654 C 420.937 641.081, 436.049 635.106, 439 631.980 C 440.375 630.524, 442.738 628.572, 444.250 627.643 C 445.762 626.714, 447 625.274, 447 624.443 C 447 623.612, 448.462 622.059, 450.250 620.992 C 452.038 619.924, 454.527 617.527, 455.783 615.665 C 458.852 611.114, 464.686 607.888, 466.023 610.002 C 467.528 612.384, 467.458 612.488, 457.903 622.043 C 452.900 627.046, 449.093 631.426, 449.443 631.776 C 450.307 632.640, 456.694 629.155, 460.799 625.580 C 462.642 623.975, 465.804 622.384, 467.825 622.046 C 471.406 621.447, 471.493 621.329, 471.208 617.443 C 470.893 613.140, 474.648 608.156, 478.628 607.595 C 479.658 607.450, 481.077 606.153, 481.782 604.713 C 483.728 600.739, 487.821 597.917, 490.621 598.620 C 492.663 599.132, 493 598.854, 493 596.655 C 493 595.026, 493.945 593.439, 495.595 592.297 C 499.464 589.618, 500.754 588.110, 505.066 581.219 C 508.617 575.545, 511.326 572.993, 512.526 574.193 C 513.365 575.031, 511.038 581.331, 509.121 583.410 C 506.096 586.692, 503 592.822, 503 595.530 C 503 598.889, 504.492 598.641, 505.986 595.035 C 506.661 593.404, 509.153 590.591, 511.524 588.785 C 517.694 584.082, 519.179 581.232, 517.891 576.567 C 516.840 572.763, 517.226 570, 518.808 570 C 520.449 570, 522 575.095, 522 580.488 C 522 586.232, 522.839 587.503, 525.974 586.508 C 527.285 586.092, 528.117 584.669, 528.497 582.194 C 529.980 572.531, 532.244 570.928, 535.370 577.330 C 537.836 582.377, 538.945 581.040, 539.693 572.123 C 540.356 564.208, 541.182 562.950, 544.026 565.523 C 546.848 568.078, 548.705 566.723, 550.494 560.802 C 552.758 553.307, 554.332 538.932, 553.030 537.630 C 551.102 535.702, 551.992 532.133, 555.104 529.313 C 556.811 527.766, 559.832 524.987, 561.816 523.138 C 563.801 521.288, 565.592 520.276, 565.796 520.888 C 566.386 522.659, 570.579 522.181, 574.443 519.901 C 578.787 517.338, 579.441 512.829, 575.750 510.885 C 571.742 508.775, 570.390 504, 573.800 504 C 576.095 504, 578 505.894, 578 508.174 C 578 509.150, 579.350 510.647, 581 511.500 C 584.985 513.561, 585.108 517.360, 581.250 519.209 C 577.969 520.782, 577.496 524.356, 580.512 524.788 C 581.868 524.983, 583.109 524.086, 584.318 522.038 C 585.305 520.367, 586.489 519, 586.950 519 C 590.274 519, 585.647 504.713, 581.928 503.493 C 581.063 503.210, 579.380 501.242, 578.187 499.119 C 576.994 496.997, 575.339 494.696, 574.509 494.008 C 572.448 492.297, 572.611 488.662, 574.839 486.646 C 576.586 485.065, 576.736 485.177, 577.846 488.880 C 579.038 492.859, 583.137 496.545, 585.403 495.676 C 586.085 495.414, 587.152 496.014, 587.774 497.010 C 588.396 498.006, 590.242 499.114, 591.876 499.473 C 593.974 499.934, 595.149 500.989, 595.872 503.063 C 596.731 505.527, 597.437 506, 600.259 506 C 603.607 506, 605.375 507.234, 609.500 512.450 C 611.818 515.381, 613.213 515.778, 612.316 513.250 C 611.438 510.777, 604.758 502, 603.754 502 C 603.295 502, 601.700 501.165, 600.210 500.143 C 594.187 496.017, 591.385 494.611, 589.068 494.557 C 587.147 494.512, 586.447 493.766, 585.733 491 C 584.528 486.332, 582.274 484, 578.968 484 C 576.334 484, 576.262 483.855, 576.752 479.508 C 577.580 472.160, 571.659 468.581, 569.059 474.858 C 567.486 478.655, 560 484.111, 560 481.460 C 560 479.406, 564.290 473.189, 566.358 472.247 C 569.004 471.041, 571.863 467, 570.070 467 C 568.014 467, 555.922 474.277, 554.945 476.103 C 553.520 478.766, 551.333 478.463, 550.589 475.500 C 549.791 472.318, 549.079 472.361, 544.685 475.853 C 542.446 477.632, 538.346 479.365, 533.797 480.455 C 529.784 481.416, 525.021 482.891, 523.214 483.732 C 521.407 484.574, 519.610 484.943, 519.221 484.554 C 517.997 483.330, 525.338 478.055, 528.305 478.027 C 533.474 477.977, 547.745 467.270, 551 461 C 551.999 459.075, 556.178 454.879, 560.287 451.674 C 566.932 446.492, 567.816 445.406, 568.294 441.842 C 569.014 436.474, 569.289 436.345, 574.296 439.001 C 578.545 441.255, 578.670 441.263, 580.814 439.427 C 583.825 436.849, 583.595 436.351, 579.057 435.625 C 576.889 435.278, 574.822 434.520, 574.463 433.941 C 573.490 432.366, 574.873 427.902, 576.278 428.081 C 582.818 428.915, 586.573 425.573, 580.399 424.415 C 577.580 423.886, 576.423 424.193, 574.529 425.973 C 572.935 427.471, 571.509 427.979, 570.129 427.541 C 566.458 426.376, 561.157 428.116, 557.302 431.751 C 555.239 433.698, 552.066 435.910, 550.252 436.668 C 548.438 437.426, 546.104 438.823, 545.066 439.773 C 544.028 440.723, 540.169 443.300, 536.490 445.500 C 532.811 447.700, 528.383 450.655, 526.651 452.066 C 524.918 453.477, 518.325 458.058, 512 462.245 C 505.675 466.433, 497.158 473.046, 493.074 476.941 C 487.236 482.508, 485.204 483.886, 483.574 483.385 C 474.575 480.616, 470.708 475.123, 467.285 460.250 C 466.114 455.166, 469.895 457.964, 475.837 466.579 C 481.593 474.925, 484.288 475.949, 486.509 470.633 C 487.771 467.613, 488.502 467.079, 491.738 466.811 C 495.242 466.521, 495.521 466.260, 495.809 463 C 496.026 460.538, 497.139 458.551, 499.559 456.301 C 501.451 454.542, 503 452.652, 503 452.101 C 503 450.137, 497.040 442.402, 490.978 436.500 C 483.658 429.374, 471.681 415.426, 467.090 408.682 C 465.287 406.033, 463.225 403.640, 462.508 403.365 C 461.307 402.904, 454.432 391.883, 450.595 384.267 C 449.699 382.489, 447.703 380.381, 446.160 379.583 C 444.617 378.785, 442.794 377.456, 442.108 376.630 C 439.985 374.072, 435.274 373.704, 428.421 375.559 C 424.874 376.519, 421.856 377.124, 421.715 376.902 C 419.787 373.881, 417 367.903, 417 366.788 C 417 365.996, 415.889 364.305, 414.531 363.029 C 411.406 360.093, 412.254 358.638, 416.615 359.456 L 420 360.091 419.985 355.295 C 419.977 352.658, 419.415 349.496, 418.735 348.270 C 415.081 341.673, 407.818 330.097, 407.159 329.820 C 406.740 329.644, 404.700 326.125, 402.626 322 C 400.551 317.875, 397.812 313.375, 396.539 312 C 395.266 310.625, 393.899 308.424, 393.500 307.110 C 392.827 304.886, 382.601 288.849, 378.032 282.851 C 376.923 281.393, 375.714 279.368, 375.347 278.351 C 374.397 275.717, 367.358 264.164, 359.625 252.548 C 355.981 247.075, 353 242.156, 353 241.618 C 353 240.731, 349.975 235.963, 338.414 218.632 C 336.261 215.405, 333.570 211.247, 332.434 209.393 C 331.298 207.538, 329.431 205.004, 328.285 203.761 C 327.139 202.517, 324.147 198.093, 321.635 193.930 C 319.123 189.766, 315.253 184.297, 313.034 181.776 C 310.815 179.255, 309 176.704, 309 176.107 C 309 175.123, 301.270 165.677, 297.455 162 C 296.599 161.175, 294.571 159.215, 292.949 157.644 C 290.852 155.614, 290 155.235, 290 156.335 M 524.103 222.315 C 523.496 223.863, 523 225.707, 523 226.411 C 523 227.116, 522.316 229.063, 521.480 230.739 C 519.197 235.317, 514.310 264.713, 511.794 289 C 510.150 304.880, 510.178 368.647, 511.838 390.143 C 512.965 404.729, 514.283 410.883, 518.502 421.250 C 520.004 424.942, 522 423.168, 522 418.140 C 522 408.212, 523.047 404, 525.513 404 C 530.591 404, 532.332 395.910, 533.960 364.752 C 535.425 336.690, 533.483 247.208, 531.332 243.729 C 529.847 241.326, 528.788 247.254, 527.927 262.792 C 527.418 271.982, 526.708 281.075, 526.350 283 L 525.699 286.500 524.932 283.036 C 523.815 277.992, 523.878 246.599, 525.020 239 C 525.557 235.425, 526.260 230.700, 526.581 228.500 C 526.902 226.300, 526.724 223.375, 526.185 222 L 525.206 219.500 524.103 222.315 M 336.658 258.675 C 335.565 259.768, 335.890 260.716, 338.371 263.673 C 339.674 265.228, 341.061 267.966, 341.452 269.758 C 341.843 271.550, 343.026 273.479, 344.081 274.044 C 345.137 274.608, 346 275.634, 346 276.324 C 346 277.013, 346.825 279.135, 347.834 281.039 C 355.425 295.367, 357.527 299.558, 361.108 307.500 C 363.340 312.450, 365.914 317.625, 366.827 319 C 367.741 320.375, 369.198 323.300, 370.066 325.500 C 370.933 327.700, 374.536 333.458, 378.071 338.295 C 381.607 343.132, 385.400 348.587, 386.500 350.416 C 387.600 352.245, 391.425 357.252, 395 361.543 C 398.575 365.834, 403.586 372.080, 406.136 375.422 C 416.428 388.914, 418.255 389.976, 419.600 383.248 C 420.156 380.469, 419.930 380.021, 417.688 379.458 C 415.910 379.012, 414.651 377.586, 413.505 374.721 C 412.603 372.466, 411.262 370.144, 410.524 369.561 C 407.827 367.426, 394.350 351.125, 389 343.526 C 385.975 339.229, 382.116 334.090, 380.424 332.107 C 378.732 330.123, 374.850 323.775, 371.799 318 C 368.747 312.225, 364.672 304.575, 362.742 301 C 360.813 297.425, 357.301 290.900, 354.938 286.500 C 352.576 282.100, 349.598 277.228, 348.321 275.673 C 347.045 274.119, 346 271.960, 346 270.876 C 346 269.791, 344.938 267.913, 343.639 266.702 C 342.340 265.491, 340.973 263.528, 340.600 262.340 C 339.801 259.793, 337.593 257.740, 336.658 258.675 M 372.474 260.500 C 372.921 261.600, 373.936 264.370, 374.731 266.655 C 375.525 268.941, 377.010 271.707, 378.031 272.803 C 379.052 273.899, 380.532 276.337, 381.319 278.221 C 382.106 280.104, 384.072 283.188, 385.688 285.073 C 387.303 286.958, 389.817 290.576, 391.274 293.113 C 394.716 299.106, 401.352 305.124, 401.823 302.679 C 402.458 299.386, 399.809 293.998, 395.569 289.957 C 393.166 287.667, 390.787 284.232, 390.165 282.155 C 389.553 280.113, 387.466 276.905, 385.526 275.025 C 383.587 273.146, 382 270.817, 382 269.851 C 382 266.818, 379.782 263.064, 377.598 262.401 C 376.444 262.050, 374.636 261.029, 373.580 260.132 C 371.772 258.595, 371.708 258.616, 372.474 260.500 M 418.530 286.951 C 418.207 287.475, 419.073 289.162, 420.456 290.701 C 421.839 292.241, 423.910 294.738, 425.058 296.250 C 427.519 299.492, 430 299.845, 430 296.953 C 430 295.731, 428.801 294.221, 427.021 293.203 C 425.382 292.267, 423.528 290.262, 422.900 288.750 C 421.762 286.011, 419.649 285.141, 418.530 286.951 M 319.407 296.207 C 319.705 298.797, 320.904 303.747, 322.070 307.207 C 323.237 310.668, 324.821 316.875, 325.591 321 C 326.361 325.125, 328.065 331.650, 329.377 335.500 C 330.688 339.350, 332.994 347.225, 334.501 353 C 336.008 358.775, 338.308 366.758, 339.614 370.740 C 340.919 374.722, 342.439 380.122, 342.991 382.740 C 343.543 385.358, 345.121 389.750, 346.498 392.500 C 347.874 395.250, 351.265 402.675, 354.033 409 C 356.801 415.325, 359.849 421.175, 360.808 422 C 361.766 422.825, 362.397 424.266, 362.211 425.201 C 362.025 426.137, 363.653 431.537, 365.830 437.201 C 368.007 442.866, 370.174 449.295, 370.644 451.489 C 371.211 454.129, 372.115 455.596, 373.319 455.826 C 374.990 456.145, 375.086 455.576, 374.492 448.837 C 373.396 436.380, 370.321 427.387, 366.359 425.049 C 363.283 423.234, 363 422.660, 363 418.228 C 363 414.636, 362.355 412.515, 360.500 410 C 359.125 408.136, 358 406.068, 358 405.405 C 358 404.741, 355.993 399.005, 353.540 392.658 C 348.206 378.856, 342.039 360.504, 339.039 349.500 C 337.839 345.100, 335.734 337.982, 334.362 333.683 C 332.990 329.383, 331.440 323.211, 330.917 319.968 C 330.395 316.724, 328.625 310.717, 326.984 306.619 C 325.343 302.520, 323.998 298.792, 323.995 298.333 C 323.992 297.875, 322.836 296.150, 321.427 294.500 L 318.863 291.500 319.407 296.207 M 402 306.306 C 402 308.398, 405.668 312.660, 406.637 311.693 C 407.603 310.731, 405.031 305.836, 403.250 305.247 C 402.563 305.019, 402 305.496, 402 306.306 M 200.029 312.570 C 213.111 325.853, 242.617 354.841, 246.500 358.226 C 257.433 367.758, 265.378 374, 266.577 374 C 267.310 374, 269.034 375.125, 270.409 376.500 C 271.784 377.875, 273.787 379, 274.860 379 C 275.933 379, 278.573 380.462, 280.727 382.250 C 282.881 384.038, 287.709 387.075, 291.457 389 C 295.590 391.123, 299.613 394.137, 301.682 396.660 C 303.558 398.948, 306.876 401.533, 309.053 402.405 C 311.231 403.276, 315.741 406.692, 319.075 409.995 C 324.894 415.760, 330.006 417.986, 329.996 414.750 C 329.990 412.524, 326.411 407.550, 322.613 404.487 C 320.575 402.844, 316.791 399.659, 314.204 397.409 C 311.617 395.159, 305.675 390.448, 301 386.939 C 296.325 383.431, 288.225 376.922, 283 372.475 C 274.799 365.494, 269.356 361.222, 250.546 347 C 248.728 345.625, 241.917 340.450, 235.411 335.500 C 228.905 330.550, 222.439 325.738, 221.041 324.806 C 216.871 322.026, 208.614 315.813, 202.364 310.751 C 193.863 303.865, 192.500 304.926, 200.029 312.570 M 543.934 308.669 C 543.024 311.056, 543.267 369.214, 544.315 399.914 C 544.542 406.570, 545.928 407.252, 548.810 402.125 C 550.905 398.396, 550.988 397.350, 550.562 379.856 C 549.444 333.853, 548.641 311.312, 548.041 309.065 C 547.107 305.567, 545.186 305.382, 543.934 308.669 M 707 309.535 C 707 312.531, 712.616 318, 715.691 318 C 719.112 318, 718.522 316.832, 713.498 313.658 C 711.024 312.095, 709 310.408, 709 309.908 C 709 309.409, 708.550 309, 708 309 C 707.450 309, 707 309.241, 707 309.535 M 492.030 331.333 C 492.007 343.568, 492.284 347.071, 493.250 346.747 C 494.185 346.434, 494.439 342.866, 494.259 332.591 C 493.906 312.526, 492.069 311.489, 492.030 331.333 M 890.891 319.822 C 886.813 323.371, 884.174 325.433, 869.301 336.691 C 866.256 338.997, 860.318 344.172, 856.107 348.191 C 833.771 369.510, 830.360 372.310, 821 376.998 C 804.370 385.327, 805.275 388.805, 822.715 383.585 C 838.599 378.831, 837.451 379.706, 875.280 343.533 C 896.726 323.027, 898 321.599, 898 318.066 C 898 315.001, 895.808 315.542, 890.891 319.822 M 446.392 319.422 C 445.398 322.010, 450.899 330, 453.674 330 C 455.483 330, 455.338 328.720, 453.210 325.885 C 452.226 324.573, 450.885 322.262, 450.232 320.750 C 448.938 317.757, 447.254 317.175, 446.392 319.422 M 558.858 324.750 C 558.779 325.712, 558.609 331.225, 558.480 337 C 558.351 342.775, 557.987 348.533, 557.672 349.795 C 556.249 355.484, 557.038 388.665, 558.688 392.500 C 560.302 396.253, 564.196 402, 565.124 402 C 565.633 402, 566.515 400.775, 567.084 399.278 C 568.223 396.282, 567.588 394.445, 563.764 389.677 C 561.621 387.005, 561.510 386.066, 561.680 372.177 C 561.942 350.876, 560.929 323, 559.893 323 C 559.402 323, 558.936 323.788, 558.858 324.750 M 374.015 347.972 C 372.863 350.125, 374.258 355, 376.026 355 C 376.618 355, 378.652 356.688, 380.546 358.750 C 382.804 361.208, 383.992 361.950, 383.995 360.905 C 383.998 360.028, 383.100 358.495, 382 357.500 C 380.900 356.505, 380 354.881, 380 353.892 C 380 348.776, 375.805 344.627, 374.015 347.972 M 446.473 354.044 C 445.666 355.349, 447.777 358, 449.622 358 C 450.425 358, 451 356.957, 451 355.500 C 451 352.897, 447.815 351.872, 446.473 354.044 M 561.603 433.157 C 559.725 435.838, 560.593 438, 563.548 438 C 566.365 438, 567.084 437.037, 566.353 434.243 C 565.570 431.249, 563.302 430.730, 561.603 433.157 M 347.605 434.750 C 348.446 438.346, 350.669 440.731, 351.968 439.432 C 352.612 438.788, 352.275 437.336, 350.990 435.224 C 348.566 431.239, 346.723 430.980, 347.605 434.750 M 785.215 439.332 C 778.171 442.777, 778.102 448.652, 785.118 447.711 C 788.004 447.324, 789.608 447.690, 791.483 449.166 C 794.311 451.390, 797.436 450.922, 798.977 448.044 C 799.781 446.540, 799.424 446.004, 796.928 444.970 C 795.266 444.282, 793.255 442.460, 792.460 440.923 C 790.456 437.047, 790.063 436.961, 785.215 439.332 M 560.872 459.561 C 557.219 461.891, 552.605 466.938, 553.400 467.734 C 554.588 468.922, 565.431 459.640, 564.788 457.986 C 564.629 457.580, 562.867 458.289, 560.872 459.561 M 678.500 464 C 678.160 464.550, 678.021 465, 678.191 465.001 C 678.361 465.001, 680.862 465.899, 683.750 466.996 C 688.131 468.662, 689 468.749, 689 467.522 C 689 464.616, 679.988 461.593, 678.500 464 M 439 472.532 C 439 474.475, 438.331 477.665, 437.513 479.623 C 436.088 483.034, 436.777 487.021, 438.785 486.988 C 440.909 486.953, 450.320 483.980, 451.556 482.953 C 453.749 481.134, 453.287 478.491, 450.517 477.009 C 449.151 476.278, 447.771 474.854, 447.451 473.846 C 446.541 470.977, 444.083 469, 441.429 469 C 439.316 469, 439 469.459, 439 472.532 M 313 480.477 C 313 481.289, 314.238 482.735, 315.750 483.690 C 317.262 484.645, 320.075 487.067, 322 489.073 C 326.179 493.427, 332.561 497.389, 333.982 496.511 C 335.950 495.295, 334.967 493.034, 331.750 491.376 C 329.962 490.454, 325.800 487.295, 322.500 484.355 C 316.567 479.068, 313 477.613, 313 480.477 M 397.374 488.467 C 396.663 490.320, 398.359 495.566, 399.583 495.303 C 400.845 495.031, 401.298 492.325, 400.570 489.421 C 399.891 486.719, 398.235 486.224, 397.374 488.467 M 611.392 498.175 C 611.022 498.774, 611.470 499.684, 612.389 500.198 C 613.307 500.712, 615.176 502.902, 616.542 505.066 C 619.054 509.046, 621 510.156, 621 507.608 C 621 506.016, 615.116 498.392, 613.282 497.608 C 612.612 497.322, 611.761 497.577, 611.392 498.175 M 456.292 522.925 C 452.491 523.879, 447.791 527.795, 442.999 534 C 437.396 541.256, 438.516 549.279, 446.230 557.153 C 452.894 563.954, 458.345 567.858, 464.117 569.962 C 471.085 572.503, 472.529 572.194, 477.859 567.021 L 481.869 563.129 482.514 566.064 C 483.298 569.632, 484.409 569.753, 487.298 566.585 C 495.274 557.838, 501.123 535.206, 495.676 534.171 C 492.999 533.663, 490.125 536.757, 489.438 540.887 C 487.770 550.909, 486.035 555, 483.453 555 C 481.216 555, 481.040 554.720, 481.731 552.250 C 483.518 545.861, 482.640 539.712, 479.242 534.813 C 472.415 524.972, 464.489 520.866, 456.292 522.925 M 561.652 529.250 C 558.005 535.624, 556.507 542.810, 557.613 548.625 C 558.123 551.306, 558.296 555.075, 557.997 557 C 556.913 563.975, 560.165 568.793, 561.540 562.250 C 561.857 560.737, 562.966 556.753, 564.004 553.396 C 567.251 542.889, 567.877 525, 564.997 525 C 564.495 525, 562.990 526.913, 561.652 529.250 M 347.250 535.706 C 345.653 536.013, 345 536.844, 345 538.570 C 345 541.613, 346.046 541.644, 348.826 538.686 C 351.031 536.338, 351.613 534.889, 350.250 535.136 C 349.837 535.211, 348.488 535.467, 347.250 535.706 M 459 538 C 455.977 541.023, 456.147 548.261, 459.230 547.820 C 461.026 547.562, 461.685 546.486, 462.612 542.298 C 464.109 535.536, 462.901 534.099, 459 538 M 574.607 540.582 C 573.593 543.224, 573.919 556, 575 556 C 575.550 556, 576.013 555.888, 576.029 555.750 C 577.451 543.645, 576.662 535.227, 574.607 540.582 M 338.180 546.004 C 334.546 547.653, 332.720 547.849, 326.680 547.232 C 315.066 546.048, 267.663 546.722, 254 548.266 C 247.125 549.043, 237.675 549.489, 233 549.256 C 228.178 549.017, 219.617 549.519, 213.216 550.417 C 207.009 551.288, 198.234 552.014, 193.716 552.032 C 189.197 552.049, 179.875 552.662, 173 553.394 C 166.125 554.125, 156.450 554.810, 151.500 554.915 C 146.550 555.020, 138.225 555.521, 133 556.027 C 120.527 557.237, 107.506 557.221, 97 555.984 C 88.151 554.942, 72 555.665, 72 557.102 C 72 558.841, 76.556 560.217, 86.726 561.552 C 92.524 562.313, 99.570 563.578, 102.384 564.363 C 105.198 565.148, 109.975 566.085, 113 566.446 C 116.025 566.806, 123 568.177, 128.500 569.492 C 134 570.806, 142.100 572.391, 146.500 573.013 C 150.900 573.636, 156.300 574.986, 158.500 576.014 C 160.700 577.042, 163.850 578.167, 165.500 578.514 C 167.150 578.861, 170.075 579.763, 172 580.518 C 173.925 581.273, 178.783 582.600, 182.795 583.467 C 186.808 584.335, 193.481 586.183, 197.626 587.574 C 201.770 588.965, 208.387 590.964, 212.331 592.015 C 216.274 593.067, 224.450 595.255, 230.500 596.878 C 236.550 598.501, 249.296 601.465, 258.824 603.466 C 268.352 605.466, 277.649 607.819, 279.483 608.693 C 283.542 610.629, 285.408 610.021, 287.879 605.958 C 289.422 603.421, 289.572 602.326, 288.693 599.999 C 287.726 597.437, 287.995 596.663, 291.342 592.367 C 297.146 584.918, 296.709 584.576, 280.989 584.267 C 273.570 584.121, 264.256 583.491, 260.291 582.867 C 256.326 582.242, 247.551 581.611, 240.791 581.463 C 234.031 581.316, 226.579 580.878, 224.231 580.491 C 221.804 580.090, 219.431 580.207, 218.731 580.762 C 217.224 581.956, 201.362 580.841, 188 578.601 C 182.775 577.725, 177.037 577.006, 175.250 577.004 C 173.207 577.001, 172 576.504, 172 575.664 C 172 573.960, 245.775 574.133, 256 575.861 C 263.900 577.196, 289.659 577.360, 290.450 576.081 C 291.437 574.483, 284.889 573.171, 273 572.583 C 261.129 571.997, 253.643 570.554, 254.188 568.957 C 254.360 568.454, 264.400 567.885, 276.500 567.693 C 298.116 567.350, 298.587 567.297, 303.492 564.672 C 308.667 561.902, 312.433 561.273, 313.500 563 C 314.719 564.972, 319.316 563.949, 322.878 560.913 C 324.870 559.215, 330.325 555.567, 335 552.806 C 343.543 547.761, 345.286 546.272, 344.375 544.798 C 343.679 543.672, 343.050 543.794, 338.180 546.004 M 524.167 551.750 C 522.822 554.355, 521.787 561, 522.726 561 C 524.090 561, 528.349 552.373, 527.590 551.146 C 526.570 549.495, 525.207 549.735, 524.167 551.750 M 792.711 559.003 C 781.445 560.445, 786.037 560.885, 807.638 560.432 C 819.662 560.180, 832.650 559.973, 836.500 559.972 C 841.385 559.970, 843.047 559.676, 842 559 C 840.266 557.880, 801.470 557.882, 792.711 559.003 M 771 563.552 C 770.175 563.729, 767.354 564.155, 764.731 564.501 C 759.508 565.188, 759.201 567.003, 764.309 566.994 C 768.541 566.987, 775 565.150, 775 563.953 C 775 563.017, 773.982 562.915, 771 563.552 M 871.472 574.913 C 869.257 575.277, 866.332 576.356, 864.972 577.310 L 862.500 579.045 865.500 578.562 C 867.150 578.296, 870.525 577.813, 873 577.490 C 875.475 577.166, 878.625 576.265, 880 575.486 L 882.500 574.071 879 574.161 C 877.075 574.210, 873.687 574.548, 871.472 574.913 M 686.500 584 C 682.561 585.823, 682.561 586.372, 686.500 586.084 C 690.824 585.768, 693 584.897, 693 583.481 C 693 581.580, 691.461 581.703, 686.500 584 M 407.333 587.356 C 405.042 588.535, 400.654 592.330, 397.583 595.788 C 389.671 604.698, 390.065 608.622, 399.254 612.462 C 406.858 615.639, 416.648 613.217, 423.712 606.412 C 431.684 598.733, 431.715 595.332, 423.872 589.087 C 417.887 584.322, 414.018 583.917, 407.333 587.356 M 465.500 590.860 C 459.636 593.266, 458.679 594.034, 455.238 599.098 C 453.519 601.627, 450.963 604.450, 449.557 605.371 C 447.368 606.805, 445.884 611, 447.566 611 C 449.339 611, 453.303 607.876, 459.500 601.595 C 463.350 597.693, 467.773 593.931, 469.329 593.236 C 470.884 592.540, 471.981 591.443, 471.766 590.798 C 471.180 589.040, 469.907 589.052, 465.500 590.860 M 238.543 618.931 C 237.777 620.170, 238.744 620.679, 243.508 621.541 C 245.703 621.938, 248.327 622.691, 249.338 623.214 C 250.348 623.737, 252.307 624.369, 253.690 624.620 C 261.637 626.061, 269.897 628.274, 272.619 629.691 C 275.868 631.382, 279.456 630.868, 278.770 628.810 C 278.049 626.648, 273.572 624.084, 268.500 622.929 C 265.750 622.303, 261.241 620.937, 258.481 619.895 C 253.150 617.882, 239.596 617.227, 238.543 618.931 M 592.667 618.667 C 591.344 619.990, 592.051 621.966, 594.740 624.460 C 598.389 627.843, 599.380 627.662, 598.612 623.750 C 597.811 619.676, 594.494 616.839, 592.667 618.667 M 573.660 620.130 C 572.648 620.719, 570.310 621.200, 568.464 621.200 C 566.619 621.200, 564.297 621.794, 563.304 622.519 C 561.584 623.777, 561.605 623.950, 563.735 626.217 C 564.964 627.526, 566.262 630.059, 566.619 631.846 C 567.698 637.240, 573.561 639.639, 580.240 637.420 C 585.085 635.811, 585.505 635.817, 588.706 637.541 C 591.901 639.262, 592.162 639.266, 593.787 637.621 C 595.405 635.983, 595.391 635.825, 593.534 634.773 C 591.504 633.623, 590.774 632.906, 582.738 624.174 C 577.795 618.805, 576.745 618.337, 573.660 620.130 M 285.104 626.914 C 282.695 628.440, 284.678 630.785, 291.051 633.946 C 297.075 636.935, 303.312 637.923, 304.458 636.068 C 305.438 634.483, 300.751 632, 296.777 632 C 294.700 632, 293 631.550, 293 631 C 293 627.898, 287.800 625.207, 285.104 626.914 M 510.164 633.046 C 508.358 634.145, 506.208 636.651, 505.388 638.615 C 504.567 640.579, 502.824 643.156, 501.514 644.343 C 499.011 646.610, 488.019 667.355, 485.927 673.760 C 485.255 675.817, 483.872 679.068, 482.853 680.985 C 481.834 682.902, 481 685.658, 481 687.109 C 481 688.561, 480.325 691.662, 479.500 694 C 478.675 696.338, 478 700.297, 478 702.797 C 478 705.308, 477.366 708.049, 476.584 708.921 C 475.805 709.790, 474.717 712.750, 474.168 715.500 C 473.618 718.250, 472.257 725, 471.143 730.500 C 469.411 739.056, 468.183 747.124, 466.424 761.500 C 465.094 772.378, 464.148 795.445, 464.335 812.500 C 464.585 835.378, 465.666 840.118, 471.682 844.707 C 475.659 847.740, 476.842 847.110, 478.020 841.330 C 478.450 839.224, 479.980 832.100, 481.422 825.500 C 485.792 805.489, 486.867 799.784, 487.550 793 C 489.122 777.388, 493.769 749.286, 496.544 738.612 C 497.418 735.250, 498.778 728.900, 499.566 724.500 C 500.355 720.100, 501.710 713.575, 502.578 710 C 503.446 706.425, 504.511 701.700, 504.945 699.500 C 505.380 697.300, 506.666 692.125, 507.804 688 C 508.943 683.875, 510.080 678.925, 510.333 677 C 510.585 675.075, 511.315 669.450, 511.955 664.500 C 512.596 659.550, 513.547 653.475, 514.069 651 C 515.435 644.530, 515.676 633.284, 514.474 632.078 C 513.772 631.373, 512.415 631.677, 510.164 633.046 M 364 663.586 C 361.525 664.347, 358.510 664.976, 357.300 664.985 C 356.090 664.993, 354.740 665.616, 354.300 666.370 C 353.059 668.496, 345.978 671.725, 336.602 674.442 C 331.903 675.804, 326.808 677.557, 325.280 678.339 C 323.751 679.120, 320.925 680.086, 319 680.485 C 317.075 680.885, 313.195 682.514, 310.378 684.106 C 307.561 685.698, 304.256 687, 303.032 687 C 300.103 687, 289.853 689.958, 288.208 691.278 C 285.388 693.541, 289.123 694.017, 302.004 693.037 C 309.346 692.478, 315.612 692.279, 315.927 692.595 C 317 693.671, 310.899 698, 308.194 698.082 C 300.099 698.328, 293.485 697.683, 290.250 696.331 C 285.758 694.454, 280.634 695.138, 274 698.500 C 271.341 699.847, 267.216 701.235, 264.833 701.583 C 258.718 702.476, 251.778 704.478, 234 710.477 C 225.475 713.354, 216.858 716.010, 214.850 716.380 C 212.843 716.750, 210.655 717.711, 209.988 718.515 C 206.844 722.303, 217.631 721.674, 232.542 717.199 C 243.907 713.789, 256.062 711.308, 270.500 709.452 C 276 708.745, 283.200 707.321, 286.500 706.286 C 292.315 704.464, 297.260 704.521, 305.750 706.511 C 310.858 707.708, 307.536 709.002, 299.250 709.044 C 293.739 709.072, 289.019 709.671, 286.500 710.664 C 284.300 711.531, 276.766 713.262, 269.758 714.510 C 262.750 715.758, 256.225 717.089, 255.258 717.467 C 254.291 717.846, 249.531 718.802, 244.681 719.593 C 239.831 720.384, 234.206 721.761, 232.181 722.653 C 230.156 723.545, 224.392 724.834, 219.372 725.517 C 212.865 726.403, 209.365 727.410, 207.181 729.024 C 204.394 731.085, 203.346 731.241, 195.559 730.755 C 186.631 730.198, 185.854 730.410, 188.750 732.608 C 190.370 733.837, 190.331 733.939, 188.236 733.968 C 186.991 733.986, 185.191 734.411, 184.236 734.913 C 180.482 736.888, 164.907 742.136, 161.308 742.639 C 159.214 742.931, 156.150 743.796, 154.500 744.560 C 149.549 746.853, 138.423 751, 137.224 751 C 135.648 751, 137.810 756.990, 139.638 757.691 C 140.401 757.984, 141.764 757.611, 142.666 756.862 C 143.569 756.113, 146.151 755.446, 148.404 755.380 C 150.657 755.314, 155.875 754.699, 160 754.013 C 164.125 753.327, 169.297 752.585, 171.494 752.365 C 173.690 752.145, 178.190 751.498, 181.494 750.927 C 184.797 750.357, 190.425 749.458, 194 748.931 C 197.575 748.403, 202.525 747.523, 205 746.974 C 207.475 746.425, 212.390 745.523, 215.922 744.968 C 219.454 744.413, 226.002 742.844, 230.473 741.480 C 234.945 740.116, 239.537 739, 240.679 739 C 241.820 739, 247 737.693, 252.191 736.095 C 257.381 734.498, 264.285 732.858, 267.533 732.453 C 270.781 732.047, 275.027 731.050, 276.969 730.237 C 278.911 729.425, 284.325 728.386, 289 727.930 C 293.675 727.473, 299.972 726.399, 302.993 725.543 C 306.014 724.687, 312.314 723.503, 316.993 722.911 C 321.672 722.320, 327.975 721.243, 331 720.519 C 334.025 719.795, 340.550 718.466, 345.500 717.566 C 350.450 716.666, 357.650 715.084, 361.500 714.052 C 365.350 713.020, 371.918 711.439, 376.096 710.539 C 383.921 708.853, 393.774 705.263, 396.277 703.185 C 397.059 702.536, 399.992 701.571, 402.795 701.039 C 409.244 699.816, 414.858 697.482, 417.642 694.867 C 419.052 693.542, 420.842 692.938, 422.761 693.139 C 425.050 693.379, 426.473 692.660, 429.106 689.935 C 430.973 688.003, 434.271 684.993, 436.436 683.245 C 440.367 680.073, 440.370 680.066, 438.436 677.928 C 437.371 676.751, 434.925 674.995, 433 674.027 C 428.549 671.789, 397.116 663.961, 390.500 663.444 C 375.191 662.247, 368.237 662.284, 364 663.586 M 381.380 673.452 C 380.512 675.714, 381.846 677, 385.059 677 C 388.442 677, 388.772 676.009, 386.171 673.655 C 383.916 671.614, 382.115 671.537, 381.380 673.452 M 394 674.132 C 391.570 675.110, 391.554 675.178, 393.441 676.569 C 394.527 677.369, 397.629 678, 400.481 678 C 403.285 678, 408.225 678.689, 411.459 679.531 C 415.434 680.567, 417.666 680.734, 418.352 680.048 C 419.951 678.449, 418.548 677.803, 411.792 677.031 C 408.331 676.635, 404.150 675.569, 402.500 674.662 C 399.103 672.794, 397.566 672.698, 394 674.132 M 680.500 680.450 C 682.150 681.253, 684.259 681.930, 685.187 681.955 C 686.796 681.998, 700.850 685.245, 704 686.302 C 707.995 687.642, 723.218 692.071, 729 693.575 C 734.822 695.090, 739.634 696.426, 763 703.012 C 766.575 704.020, 775.350 706.443, 782.500 708.397 C 789.650 710.350, 799.550 713.089, 804.500 714.482 C 821.943 719.392, 824.446 720, 827.210 720 C 828.954 720, 830 719.467, 830 718.579 C 830 717.195, 828.757 716.779, 820.500 715.401 C 818.300 715.033, 815.150 714.038, 813.500 713.190 C 811.850 712.341, 807.800 710.897, 804.500 709.981 C 775.065 701.806, 760.361 697.587, 753.960 695.481 C 749.814 694.116, 745.640 693, 744.685 693 C 743.731 693, 740.440 692.118, 737.373 691.040 C 734.305 689.962, 728.129 688.567, 723.648 687.941 C 716.611 686.958, 708.241 684.778, 696.500 680.872 C 694.850 680.323, 689.900 679.675, 685.500 679.432 C 677.934 679.015, 677.663 679.070, 680.500 680.450 M 370.837 681.828 C 368.273 682.747, 365.212 684.379, 364.035 685.452 C 362.705 686.666, 360.307 687.457, 357.698 687.544 C 351.202 687.760, 351 687.846, 351 690.393 C 351 694.614, 354.791 694.440, 368.965 689.567 C 373.071 688.155, 377.657 687, 379.156 687 C 383.137 687, 383.747 685.039, 380.604 682.336 C 377.452 679.624, 377.040 679.603, 370.837 681.828 M 332.872 683.037 C 324.834 684.361, 320.489 688.598, 327.333 688.438 C 328.800 688.403, 333.978 688.291, 338.839 688.188 C 347.260 688.009, 347.734 687.879, 348.839 685.453 C 349.478 684.052, 350 682.741, 350 682.540 C 350 681.892, 337.649 682.250, 332.872 683.037 M 343.803 692.530 C 343.511 692.822, 340.712 693.477, 337.583 693.987 C 333.955 694.577, 330.797 695.834, 328.870 697.456 C 327.207 698.855, 324.756 700, 323.423 700 C 322.090 700, 321 700.470, 321 701.045 C 321 702.274, 326.910 701.350, 331.619 699.384 C 333.335 698.668, 337.762 697.773, 341.457 697.394 C 345.919 696.937, 348.363 696.218, 348.734 695.252 C 349.531 693.174, 345.425 690.908, 343.803 692.530 M 457.208 721.288 C 454.894 723.646, 453 725.876, 453 726.242 C 453 726.609, 450.795 729.858, 448.101 733.462 C 445.406 737.067, 440.658 744.400, 437.549 749.758 C 426.568 768.680, 420.306 779.594, 415.606 788 C 407.161 803.107, 405.812 805.394, 401.372 812.155 C 398.967 815.816, 396.997 819.191, 396.993 819.655 C 396.988 820.120, 394.921 824.100, 392.398 828.500 C 389.875 832.900, 386.340 839.200, 384.541 842.500 C 382.743 845.800, 380.246 850.300, 378.992 852.500 C 377.738 854.700, 374.304 861.200, 371.361 866.945 C 368.418 872.690, 365.558 877.842, 365.005 878.395 C 364.452 878.948, 364 880.088, 364 880.928 C 364 881.768, 360.230 890.341, 355.621 899.978 C 351.013 909.615, 346.934 918.625, 346.556 920 C 346.179 921.375, 345.037 924.300, 344.020 926.500 C 335.450 945.031, 331.727 953.781, 329.520 960.580 C 328.107 964.936, 325.889 971.425, 324.592 975 C 323.296 978.575, 321.680 983.300, 321.002 985.500 C 320.323 987.700, 318.220 992.804, 316.327 996.843 C 311.421 1007.310, 312.723 1013.249, 317.870 1003.879 C 319.193 1001.471, 325.074 992.300, 330.937 983.500 C 336.801 974.700, 343.496 963.759, 345.816 959.186 C 348.136 954.613, 351.601 948.544, 353.517 945.699 C 355.433 942.854, 357 940.169, 357 939.732 C 357 939.295, 360.452 932.989, 364.671 925.719 C 368.890 918.448, 375.260 907.325, 378.827 901 C 382.394 894.675, 387.010 886.800, 389.086 883.500 C 391.162 880.200, 394.963 873.450, 397.533 868.500 C 409.996 844.499, 413 839.607, 413 843.314 C 413 844.256, 412.571 845.809, 412.047 846.764 C 411.037 848.601, 404.106 863.473, 399.611 873.448 C 398.136 876.719, 395.213 882.119, 393.115 885.448 C 391.017 888.776, 388.403 893.525, 387.305 896 C 386.207 898.475, 383.552 903.288, 381.404 906.696 C 379.257 910.104, 375.475 916.324, 373 920.518 C 369.064 927.189, 365.904 932.300, 361.237 939.541 C 360.543 940.618, 359.131 943.300, 358.100 945.500 C 357.069 947.700, 354.603 952.167, 352.622 955.426 C 348.684 961.902, 348.633 963.126, 352.405 960.654 C 354.725 959.134, 364 947.056, 364 945.554 C 364 945.174, 366.614 941.181, 369.808 936.681 C 373.003 932.181, 378.174 924.675, 381.300 920 C 384.426 915.325, 390.025 907.599, 393.742 902.831 C 402.766 891.254, 409.234 882.155, 411.028 878.512 C 411.838 876.869, 414.413 873.595, 416.750 871.236 C 421.677 866.264, 421.911 865.297, 418.500 864 C 415.268 862.771, 415.298 860.114, 418.599 855.294 C 420.893 851.947, 421.131 850.828, 420.620 845.797 C 420.284 842.488, 420.452 839.839, 421.020 839.488 C 422.869 838.345, 422.109 835, 420 835 C 418.024 835, 416.965 830.626, 418.750 829.833 C 419.678 829.421, 423 822.352, 423 820.791 C 423 820.163, 424.538 816.466, 426.418 812.575 C 437.022 790.622, 441.841 780.225, 442.441 778 C 442.812 776.625, 443.748 773.925, 444.521 772 C 445.294 770.075, 448.474 761.525, 451.587 753 C 454.701 744.475, 458.767 734.352, 460.624 730.503 C 464.087 723.327, 465.063 717, 462.708 717 C 461.998 717, 459.523 718.930, 457.208 721.288 M 197.008 722.947 C 195.955 723.632, 195.829 724.229, 196.580 724.980 C 197.835 726.235, 204.998 725.017, 205.301 723.497 C 205.567 722.164, 198.894 721.722, 197.008 722.947 M 664 753.425 C 664 755.345, 674.809 765.123, 680.626 768.465 C 683.307 770.005, 690.900 776.411, 697.500 782.701 C 720.978 805.076, 723.789 807.552, 730.771 812 C 735.260 814.860, 738.319 817.593, 739.167 819.500 C 740.422 822.324, 747.002 826.520, 749.049 825.802 C 750.675 825.231, 746.975 819.498, 743.412 817.068 C 741.451 815.731, 738.509 812.694, 736.875 810.318 C 735.241 807.943, 733.465 806, 732.930 806 C 732.394 806, 730.053 804.313, 727.728 802.250 C 725.402 800.188, 722.600 798.016, 721.500 797.425 C 720.400 796.834, 718.793 794.970, 717.930 793.283 C 716.347 790.193, 713.626 787, 712.575 787 C 712.262 787, 709.854 784.862, 707.223 782.250 C 699.773 774.854, 689.650 767.084, 680.690 761.888 C 676.186 759.275, 671.390 756.319, 670.033 755.319 C 666.281 752.553, 664 751.837, 664 753.425 M 650 790.777 C 650 791.205, 650.593 792.443, 651.318 793.527 C 652.043 794.612, 653.464 797.750, 654.476 800.500 C 656.708 806.561, 663.719 821.119, 665.044 822.444 C 667.821 825.221, 665.428 816.164, 661.250 808.086 C 658.638 803.035, 655.479 796.899, 654.231 794.451 C 652.225 790.517, 650 788.585, 650 790.777 M 559.539 809.823 C 559.155 811.571, 558.539 813, 558.171 813 C 557.802 813, 557.464 825.712, 557.419 841.250 C 557.375 856.787, 556.986 885.362, 556.556 904.750 C 556.114 924.644, 556.152 940, 556.643 940 C 559.314 940, 560.226 933.055, 560.961 907.092 C 561.379 892.334, 561.968 879.861, 562.269 879.374 C 562.570 878.887, 563.120 874.441, 563.491 869.494 C 563.863 864.547, 564.528 858.829, 564.969 856.787 C 566.067 851.700, 563.491 815.502, 561.680 810.573 L 560.236 806.647 559.539 809.823 M 651.041 825.142 C 650.992 827.084, 668.464 861.838, 670.558 863.964 C 677.486 870.999, 662.559 836.054, 655.196 828 C 652.483 825.032, 651.068 824.059, 651.041 825.142 M 667 825.738 C 667 826.659, 674.015 842.672, 675.894 846.038 C 676.366 846.885, 677.066 849.585, 677.449 852.038 C 678.423 858.271, 678.991 860, 680.067 860 C 681.529 860, 681.147 853.806, 679.489 850.627 C 678.665 849.047, 677.322 845.174, 676.505 842.021 C 674.478 834.198, 667 821.387, 667 825.738 M 640 827.301 C 640 830.085, 642.406 837, 643.375 837 C 644.794 837, 643.312 828.883, 641.577 827.148 C 640.141 825.713, 640 825.726, 640 827.301 M 752.963 830.930 C 753.531 831.992, 755.459 833.895, 757.248 835.159 C 759.037 836.422, 761.256 838.366, 762.179 839.478 C 763.347 840.884, 764.181 841.183, 764.919 840.460 C 766.043 839.358, 762.436 835.464, 756.346 831.205 C 752.466 828.493, 751.622 828.425, 752.963 830.930 M 521.617 835.831 C 520.133 837.973, 518.683 841.474, 518.395 843.612 C 517.304 851.698, 517.147 852, 514.022 852 L 511.082 852 510.791 882.918 C 510.527 910.931, 510.123 916.457, 508.461 914.794 C 508.164 914.498, 507.750 903.735, 507.541 890.877 C 507.146 866.632, 506.662 861.794, 504.449 859.958 C 501.169 857.236, 500.500 862.532, 500.500 891.214 C 500.500 916.047, 500.322 919.105, 498.787 920.641 C 497.369 922.059, 496.991 922.109, 496.594 920.928 C 495.940 918.977, 494.829 890.688, 495.164 884.500 C 495.762 873.453, 495.415 865.015, 494.317 863.917 C 492.346 861.946, 489.851 868.444, 489.533 876.376 C 489.377 880.294, 488.787 884.650, 488.223 886.055 C 487.564 887.697, 487.521 890.200, 488.103 893.055 C 488.600 895.500, 489.422 904.177, 489.929 912.339 C 490.646 923.879, 491.223 927.589, 492.525 929.028 C 493.754 930.385, 494.545 934.554, 495.498 944.689 C 497.309 963.950, 499.226 969.070, 502.886 964.418 C 504.909 961.845, 504.938 961.554, 503.392 959.195 C 501.266 955.950, 500.102 932.547, 501.899 929.188 C 504.703 923.949, 505.575 926.934, 506.464 944.826 C 506.819 951.973, 507.586 957.232, 508.541 959.080 C 510.217 962.320, 511.921 973.609, 511.969 981.782 C 511.986 984.687, 512.706 988.737, 513.568 990.782 C 515.512 995.390, 518.582 1011.830, 519.491 1022.500 C 519.866 1026.900, 520.564 1032.075, 521.041 1034 C 521.519 1035.925, 522.425 1045.255, 523.055 1054.733 C 523.685 1064.211, 524.750 1073.825, 525.421 1076.098 L 526.641 1080.229 528.463 1075.459 C 531.693 1067, 532.032 1026.948, 529.465 957 C 529.233 950.675, 529.119 937.850, 529.213 928.500 C 529.548 894.985, 528.862 873.788, 527.272 868.536 C 526.735 866.762, 526.750 863.936, 527.308 861.496 C 528.077 858.134, 527.868 856.600, 526.115 852.752 L 523.988 848.084 526.094 844.044 C 527.785 840.801, 528.028 839.280, 527.331 836.329 C 526.152 831.344, 524.807 831.227, 521.617 835.831 M 652.004 857.781 C 652.006 858.727, 652.830 860.850, 653.835 862.500 C 654.839 864.150, 655.980 866.774, 656.370 868.330 C 657.241 871.810, 660.742 879.493, 671.485 901.500 C 676.049 910.850, 680.708 920.750, 681.838 923.500 C 682.968 926.250, 685.482 931.425, 687.424 935 C 690.605 940.857, 690.957 941.201, 690.977 938.473 C 690.990 936.807, 690.393 934.557, 689.651 933.473 C 688.910 932.388, 687.367 928.800, 686.223 925.500 C 681.471 911.788, 672.015 889.813, 667.506 882 C 666.712 880.625, 663.600 874.496, 660.589 868.379 C 655.456 857.950, 651.995 853.677, 652.004 857.781 M 513.404 932.526 C 512.531 936.006, 514.422 948.843, 516.034 950.375 C 516.943 951.239, 517.055 949.184, 516.517 941.500 C 515.787 931.068, 514.617 927.694, 513.404 932.526" stroke="none" fill="#000" fill-rule="evenodd"/>
</svg>