<svg xmlns="http://www.w3.org/2000/svg" width="1091" height="1200" viewBox="0 0 1091 1200" version="1.1">
	<path d="M 558.986 217.289 C 552.180 220.888, 549.536 225.107, 544.126 241 C 541.412 248.975, 537.828 259.325, 536.162 264 C 534.496 268.675, 532.407 276.325, 531.520 281 C 528.527 296.775, 525.720 307.427, 519.926 325 C 516.752 334.625, 512.992 347.745, 511.570 354.155 C 510.148 360.565, 506.987 371.815, 504.544 379.155 C 502.102 386.495, 499.152 397.225, 497.988 403 C 496.797 408.911, 494.295 416.996, 492.264 421.500 C 490.279 425.900, 487.208 434.450, 485.439 440.500 C 483.670 446.550, 481.022 455.550, 479.554 460.500 C 476.854 469.605, 473.915 482.456, 471.479 495.810 C 469.609 506.063, 468.943 506.638, 462.810 503.300 C 460.087 501.818, 457.415 499.776, 456.873 498.763 C 454.882 495.042, 443.661 482.768, 439.640 479.913 C 434.595 476.330, 419.072 462.014, 405.531 448.456 C 400.014 442.932, 389.225 432.807, 381.555 425.956 C 373.885 419.105, 365.335 411.430, 362.555 408.900 C 359.775 406.370, 354.536 401.645, 350.914 398.400 C 347.292 395.155, 340.148 388.675, 335.039 384 C 329.931 379.325, 325.019 375.085, 324.125 374.579 C 323.231 374.072, 319.568 371.062, 315.984 367.891 C 309.881 362.490, 297.987 355.010, 278 344.004 C 273.325 341.429, 266.800 337.657, 263.500 335.621 C 250.458 327.575, 246.559 330.226, 253.380 342.500 C 255.214 345.800, 259.087 352.775, 261.986 358 C 264.886 363.225, 268.550 369.426, 270.129 371.779 C 271.708 374.133, 273 376.283, 273 376.558 C 273 377.552, 285.907 396.618, 289.884 401.500 C 292.125 404.250, 295.086 408.169, 296.465 410.209 C 297.845 412.249, 302.579 417.746, 306.987 422.425 C 311.394 427.104, 315 431.373, 315 431.912 C 315 432.450, 320.081 438.222, 326.290 444.737 C 332.500 451.253, 338.883 458.365, 340.475 460.542 C 342.067 462.719, 345.704 466.975, 348.558 470 C 351.411 473.025, 358.124 480.900, 363.475 487.500 C 368.826 494.100, 376.754 503.343, 381.094 508.039 C 391.188 518.964, 403.251 534.712, 409 544.471 C 411.475 548.672, 414.491 553.547, 415.703 555.305 C 423.660 566.849, 426.060 571.711, 425.077 574.297 C 423.368 578.791, 421.841 578.999, 390.316 579.021 C 361.945 579.040, 338.751 580.484, 327 582.964 C 324.525 583.486, 318.675 583.941, 314 583.975 C 309.325 584.009, 300.775 584.722, 295 585.559 C 285.131 586.991, 269.442 588.617, 228 592.506 C 218.375 593.409, 204.650 595.206, 197.500 596.500 C 190.350 597.793, 182.475 599.133, 180 599.476 C 177.525 599.820, 169.425 601.188, 162 602.517 C 154.575 603.846, 141.525 605.847, 133 606.963 C 102.846 610.912, 105.177 619.135, 139.407 629.566 C 143.756 630.892, 150.731 633.282, 154.907 634.878 C 159.083 636.475, 165.875 638.322, 170 638.983 C 174.125 639.645, 184.025 641.906, 192 644.009 C 199.975 646.112, 211.686 649.187, 218.025 650.843 C 229.185 653.758, 244.595 656.814, 258 658.771 C 261.575 659.293, 271.250 661.074, 279.500 662.728 C 287.750 664.383, 298.100 666.252, 302.500 666.881 C 306.900 667.510, 316.800 669.138, 324.500 670.499 C 332.200 671.860, 345.475 674.097, 354 675.469 C 362.525 676.842, 371.750 678.666, 374.500 679.522 C 382.791 682.105, 386.934 682.824, 400 683.950 C 425.569 686.155, 429.857 687.541, 426.333 692.464 C 423.076 697.014, 407.180 708.924, 398.726 713.150 C 392.319 716.353, 389.552 718.447, 386.213 722.618 C 383.636 725.838, 378.452 730.272, 373.213 733.737 C 365.961 738.534, 363.713 740.694, 359.809 746.617 C 355.086 753.781, 352.824 756.329, 343.047 765.500 C 340.115 768.250, 334.699 774.563, 331.012 779.530 C 327.326 784.496, 321.246 791.246, 317.502 794.530 C 313.759 797.813, 308.226 803.650, 305.208 807.500 C 302.189 811.350, 294.717 819.450, 288.603 825.500 C 282.489 831.550, 270.965 843.664, 262.993 852.420 C 255.022 861.176, 246.085 870.851, 243.134 873.920 C 240.183 876.989, 236.583 881.300, 235.134 883.500 C 233.685 885.700, 231.514 888.299, 230.310 889.276 C 227.144 891.842, 219.679 903.565, 216.986 910.201 C 215.012 915.066, 214.872 916.141, 216.030 917.537 C 217.962 919.865, 220.602 919.090, 236.054 911.660 C 243.455 908.102, 252.134 904.505, 255.340 903.668 C 258.639 902.806, 265.799 899.355, 271.835 895.718 C 277.701 892.182, 284.685 888.262, 287.356 887.005 C 290.026 885.748, 295.201 882.169, 298.856 879.051 C 302.510 875.934, 307.525 872.214, 310 870.785 C 312.475 869.355, 317.443 865.980, 321.041 863.283 C 324.639 860.587, 329.814 857.311, 332.541 856.005 C 335.268 854.698, 340.425 850.847, 344 847.448 C 347.575 844.049, 355.883 837.559, 362.463 833.024 C 369.043 828.490, 376.819 822.648, 379.743 820.042 C 382.666 817.436, 387.789 813.773, 391.126 811.902 C 394.464 810.031, 399.921 806.250, 403.253 803.500 C 414.267 794.411, 430.399 782.007, 437.069 777.498 C 444.731 772.319, 445.679 771.349, 451.354 762.877 C 456.127 755.754, 463.227 749.742, 466.327 750.199 C 469.436 750.658, 469.908 754.650, 467.840 763.004 C 466.820 767.127, 465.571 775.675, 465.065 782 C 464.558 788.332, 462.767 799.093, 461.079 805.946 C 459.393 812.791, 457.751 822.016, 457.429 826.446 C 457.107 830.876, 455.993 840.575, 454.953 848 C 452.820 863.231, 450.532 891.625, 448.991 922 C 448.419 933.275, 447.535 946.325, 447.026 951 C 442.002 997.121, 443.379 1039.302, 450.460 1056.251 C 453.465 1063.443, 458.365 1059.881, 463.963 1046.433 C 466.996 1039.148, 469.151 1034.905, 475.509 1023.693 C 477.008 1021.049, 479.321 1014.813, 480.650 1009.835 C 482.057 1004.559, 484.647 998.160, 486.857 994.496 C 488.942 991.038, 491.348 986.250, 492.204 983.855 C 493.060 981.460, 495.215 975.450, 496.993 970.500 C 498.771 965.550, 503.325 955.026, 507.113 947.114 C 510.901 939.202, 514 932.221, 514 931.600 C 514 930.980, 516.977 924.404, 520.614 916.986 C 524.252 909.569, 528.299 900.394, 529.607 896.598 C 530.914 892.802, 534.172 885.601, 536.846 880.597 C 542.480 870.052, 546.037 860.251, 549.412 845.970 C 552.689 832.103, 558.361 826.321, 563.316 831.797 C 565.602 834.323, 571.110 846.624, 575.496 859 C 577.543 864.775, 580.023 870.850, 581.007 872.500 C 583.380 876.480, 589.853 892.223, 591.696 898.500 C 592.504 901.250, 594.490 905.878, 596.110 908.783 C 597.730 911.689, 600.426 917.989, 602.102 922.783 C 603.778 927.578, 606.414 935.100, 607.960 939.500 C 609.506 943.900, 613.093 952.811, 615.932 959.301 C 618.771 965.792, 622.006 974.766, 623.120 979.242 C 625.247 987.790, 630.602 1002.183, 634.674 1010.297 C 635.998 1012.935, 638.197 1019.387, 639.560 1024.634 C 640.923 1029.881, 642.645 1035.373, 643.386 1036.837 C 644.126 1038.302, 645.304 1041.300, 646.003 1043.500 C 646.701 1045.700, 648.781 1050.576, 650.624 1054.335 C 652.467 1058.094, 654.969 1064.796, 656.184 1069.228 C 661.943 1090.243, 669.993 1087.697, 672.947 1063.926 C 673.526 1059.267, 675.114 1051.064, 676.475 1045.697 C 681.976 1024.013, 682.109 982.684, 676.923 906.500 C 676.286 897.150, 675.627 883.425, 675.457 876 C 674.518 834.896, 672.910 801.982, 671.549 796 C 669.301 786.120, 669.498 783.164, 672.450 782.423 C 677.036 781.272, 684.949 786.254, 703.078 801.708 C 712.745 809.949, 723.545 818.642, 727.078 821.027 C 730.610 823.412, 738.011 828.769, 743.524 832.931 C 749.037 837.094, 757.254 842.484, 761.786 844.909 C 767.685 848.067, 772.394 851.678, 778.368 857.625 C 785.365 864.591, 788.229 866.647, 796.106 870.363 C 801.273 872.800, 807.928 876.829, 810.896 879.317 C 813.864 881.805, 818.589 885.070, 821.396 886.572 C 824.203 888.074, 829.501 891.731, 833.169 894.699 C 837.102 897.881, 842.230 900.930, 845.669 902.132 C 848.876 903.253, 853.914 905.985, 856.863 908.203 C 859.813 910.421, 866.113 914.039, 870.863 916.242 C 875.614 918.445, 880.400 921.051, 881.500 922.031 C 882.600 923.012, 887.617 925.924, 892.648 928.503 C 897.679 931.082, 904.693 935.596, 908.234 938.536 C 919.679 948.035, 923.345 946.896, 917.467 935.668 C 906.413 914.553, 899.402 902.194, 895.689 897.279 C 893.935 894.958, 891.375 891.432, 890 889.445 C 879.858 874.785, 860.431 852.389, 828.026 818 C 806.711 795.380, 803.220 791.553, 799.339 786.555 C 797.228 783.835, 791.568 777.535, 786.762 772.555 C 781.957 767.575, 776.744 761.475, 775.178 759 C 773.613 756.525, 768.834 751.379, 764.558 747.564 C 760.283 743.749, 753.346 736.352, 749.142 731.126 C 744.939 725.899, 737.078 717.771, 731.673 713.062 C 717.861 701.028, 703 684.293, 703 680.773 C 703 675.561, 705.968 674.750, 726.292 674.413 C 736.306 674.246, 746.975 673.618, 750 673.016 C 753.025 672.415, 761.768 671.470, 769.428 670.917 C 777.089 670.364, 787.889 669.069, 793.428 668.040 C 798.968 667.010, 806.875 665.877, 811 665.520 C 815.125 665.164, 823.225 663.817, 829 662.526 C 834.775 661.236, 846.475 659.422, 855 658.497 C 873.180 656.523, 887.878 654.149, 904.500 650.502 C 911.100 649.054, 921.900 646.977, 928.500 645.885 C 940.308 643.933, 980.173 631.429, 989.355 626.797 C 996.461 623.212, 1006.872 616.108, 1007.938 614.117 C 1010.520 609.291, 1006.785 607.425, 991.776 606.043 C 985.877 605.500, 978.002 604.332, 974.276 603.448 C 967.650 601.876, 957.138 599.837, 936 596.025 C 930.225 594.984, 918.750 593.631, 910.500 593.020 C 885.350 591.154, 865.986 589.005, 855.843 586.953 C 850.532 585.879, 843.782 584.997, 840.843 584.993 C 837.904 584.990, 829.650 584.120, 822.500 583.061 C 795.526 579.064, 727.134 576.385, 697.751 578.174 C 693.184 578.452, 691.600 577.039, 691.600 572.686 C 691.600 568.795, 700.027 556.227, 707.482 549 C 710.036 546.525, 713.464 541.997, 715.101 538.938 C 716.854 535.663, 720.577 531.176, 724.155 528.027 C 727.497 525.085, 732.842 519.393, 736.033 515.378 C 742.077 507.772, 744.191 505.625, 760.176 490.856 C 765.498 485.939, 772.423 478.560, 775.565 474.458 C 778.707 470.356, 781.625 467, 782.049 467 C 782.474 467, 788.128 460.363, 794.614 452.250 C 801.100 444.137, 808.940 434.800, 812.035 431.500 C 815.131 428.200, 819.414 422.800, 821.553 419.500 C 823.692 416.200, 828.755 409.979, 832.804 405.675 C 836.852 401.371, 840.796 396.340, 841.566 394.496 C 842.337 392.652, 844.942 388.298, 847.356 384.821 C 853.702 375.680, 863.249 356.126, 862.609 353.578 C 862.321 352.429, 860.318 349.763, 858.158 347.655 L 854.232 343.821 846.366 347.286 C 836.331 351.708, 813.916 364.108, 809.153 367.873 C 807.144 369.462, 802.800 372.176, 799.500 373.905 C 796.200 375.634, 790.800 379.091, 787.500 381.589 C 784.200 384.086, 778.800 387.411, 775.500 388.977 C 772.200 390.543, 766.575 394.359, 763 397.456 C 759.425 400.554, 753.305 404.813, 749.401 406.922 C 742.898 410.433, 738.961 413.351, 723 426.493 C 719.975 428.984, 715.475 432.255, 713 433.761 C 710.525 435.267, 705.125 439.823, 701 443.885 C 696.875 447.947, 690.179 453.512, 686.120 456.253 C 682.061 458.994, 674.450 465.234, 669.207 470.121 C 663.964 475.007, 655.726 481.709, 650.900 485.014 C 646.075 488.319, 640.753 492.690, 639.074 494.726 C 632.172 503.099, 623.657 507.428, 621.326 503.750 C 620.890 503.063, 620.677 497.264, 620.852 490.865 C 621.130 480.741, 620.780 477.557, 618.161 466.365 C 614.220 449.521, 611.442 435.062, 609.541 421.500 C 608.693 415.450, 607.122 406.450, 606.050 401.500 C 601.146 378.860, 597.898 362.399, 596.926 355.262 C 596.344 350.993, 595.030 344.125, 594.005 340 C 592.980 335.875, 591.187 326.650, 590.021 319.500 C 587.918 306.601, 582.153 279.947, 579.460 270.664 C 577.540 264.048, 576.322 256.797, 574.559 241.500 C 572.781 226.071, 570.755 218.642, 567.750 216.537 C 564.865 214.517, 564.105 214.582, 558.986 217.289" stroke="none" fill="#000" fill-rule="evenodd"/>
</svg>