<svg xmlns="http://www.w3.org/2000/svg" width="972" height="1200" viewBox="0 0 972 1200" version="1.1">
	<path d="M 206 128.716 C 206 129.626, 207.518 133.324, 209.374 136.935 C 211.229 140.546, 213.087 144.625, 213.501 146 C 215.422 152.375, 230.827 185.303, 235.045 192.052 C 237.642 196.206, 240.987 202.014, 242.479 204.959 C 243.972 207.904, 247.109 213.281, 249.452 216.907 C 251.794 220.533, 257.038 229.031, 261.105 235.791 C 265.172 242.552, 269.377 249.527, 270.449 251.291 C 273.651 256.561, 288.480 278.899, 306.435 305.500 C 315.716 319.250, 325.125 333.200, 327.343 336.500 C 329.562 339.800, 336.355 349.394, 342.438 357.819 C 348.522 366.245, 356.344 377.270, 359.820 382.319 C 363.296 387.369, 366.955 392.400, 367.951 393.500 C 371.130 397.010, 386.834 420.669, 388.296 424.148 C 389.070 425.992, 390.894 429.249, 392.350 431.387 C 393.806 433.526, 395.920 438.373, 397.048 442.161 C 398.737 447.834, 399.704 449.438, 402.537 451.273 C 405.622 453.271, 405.977 453.969, 405.988 458.059 C 406.005 464.379, 407.416 465.796, 416.994 469.115 C 426.514 472.414, 427.272 472.973, 432.493 480.554 C 439.720 491.048, 438.822 495.752, 428.041 503.870 C 426.310 505.173, 421.009 511.473, 416.260 517.870 C 411.511 524.266, 406.600 530.558, 405.348 531.851 C 404.095 533.144, 402.787 535.096, 402.440 536.189 C 402.093 537.283, 400.571 538.700, 399.058 539.338 C 396.261 540.520, 383 554.234, 383 555.945 C 383 558.572, 385.356 557.438, 390.685 552.244 C 399.040 544.102, 402.989 540.716, 407 538.258 C 408.925 537.079, 411.063 535.193, 411.752 534.067 C 412.440 532.942, 416.458 529.276, 420.681 525.920 C 424.903 522.565, 431.145 516.935, 434.551 513.410 C 437.957 509.884, 441.610 507, 442.669 507 C 444.739 507, 450.235 512.325, 454.022 518 C 455.307 519.925, 459.340 525.100, 462.984 529.500 C 466.629 533.900, 473.285 542.450, 477.776 548.500 C 482.266 554.550, 488.186 562.200, 490.931 565.500 C 493.676 568.800, 497.852 573.925, 500.211 576.888 C 505.714 583.802, 522.479 607.583, 524.612 611.500 C 525.510 613.150, 529.315 618.823, 533.066 624.108 C 536.818 629.392, 542.050 637.669, 544.694 642.501 C 549.716 651.683, 557.623 661.586, 562.154 664.369 C 565.435 666.385, 572.834 666.440, 575.441 664.468 C 577.684 662.772, 581 662.516, 581 664.040 C 581 664.613, 580.066 666.344, 578.925 667.887 C 575.103 673.057, 575.210 678.330, 579.237 683.244 C 583.070 687.923, 584.607 693.342, 584.542 701.951 C 584.502 707.180, 584.378 707.429, 581.500 708.068 C 579.850 708.435, 575.800 710.185, 572.500 711.958 C 567.137 714.839, 565.817 715.139, 560.064 714.781 C 555.600 714.504, 553.489 713.940, 553.176 712.941 C 552.130 709.597, 530 691.556, 530 694.047 C 530 694.606, 530.634 695.306, 531.410 695.604 C 532.185 695.901, 533.089 697.217, 533.417 698.527 C 533.746 699.838, 537.387 704.314, 541.508 708.475 C 549.457 716.502, 550.600 719.494, 547.708 724.696 C 545.379 728.887, 524.893 746.172, 513.127 753.875 C 508.598 756.840, 505 760.083, 505 761.200 C 505 762.323, 510.715 759.360, 514.500 756.274 C 518.885 752.700, 539.201 741, 541.023 741 C 541.879 741, 544.567 739.202, 546.995 737.004 C 549.424 734.807, 553.456 732.297, 555.955 731.427 C 558.455 730.557, 562.804 728.962, 565.620 727.881 C 568.436 726.800, 572.486 725.638, 574.620 725.298 C 578.697 724.648, 584.551 721.451, 586.944 718.567 C 588.104 717.170, 589.277 716.993, 593.430 717.589 C 596.218 717.989, 599.962 718.231, 601.750 718.127 C 604.699 717.955, 605 718.201, 605 720.782 C 605 724.179, 601.454 727.808, 595 731.017 C 592.525 732.248, 588.426 735.181, 585.892 737.535 C 583.358 739.889, 579.450 742.750, 577.208 743.894 C 574.966 745.037, 572.424 746.992, 571.558 748.237 C 570.693 749.481, 567.541 752.300, 564.554 754.500 C 555.338 761.288, 547.897 767.110, 541.492 772.544 C 538.114 775.409, 533.584 778.901, 531.425 780.305 C 529.266 781.708, 522.775 786.517, 517 790.992 C 511.225 795.466, 504.025 800.748, 501 802.730 C 497.975 804.712, 493.700 807.776, 491.500 809.540 C 485.308 814.505, 445.139 841.847, 434.998 848 C 411.524 862.241, 400.605 869.291, 388.165 878.239 C 370.531 890.923, 362.022 889.075, 369.500 874.187 C 370.875 871.449, 372 868.665, 372 867.999 C 372 867.333, 373.385 865.039, 375.079 862.901 C 376.772 860.763, 378.584 857.323, 379.106 855.257 C 379.627 853.190, 381.275 849.155, 382.766 846.289 C 386.374 839.357, 385.246 837.971, 377.922 840.336 C 375.088 841.251, 372.180 842, 371.459 842 C 370.738 842, 366.627 846.714, 362.324 852.477 C 358.021 858.239, 353.750 863.207, 352.832 863.518 C 346.672 865.604, 344.617 870.099, 348.027 874.031 C 355.345 882.469, 347.021 889.521, 339.423 881.322 C 332.922 874.308, 326 871.707, 326 876.277 C 326 877.530, 326.657 879.493, 327.460 880.640 C 328.264 881.787, 329.870 885.149, 331.030 888.112 C 332.190 891.076, 335.132 896.049, 337.569 899.166 C 342.527 905.504, 342.733 906.368, 340.212 910.192 C 336.924 915.176, 320.543 932.137, 315.500 935.778 C 312.750 937.763, 308.662 940.987, 306.415 942.943 C 295.699 952.272, 268.437 972.870, 246 988.590 C 242.425 991.095, 237.025 994.924, 234 997.099 C 230.975 999.273, 226.688 1002.278, 224.473 1003.776 C 222.258 1005.274, 218.433 1008.158, 215.973 1010.185 C 213.513 1012.212, 205.425 1018.691, 198 1024.583 C 168.205 1048.225, 162 1053.886, 162 1057.425 C 162 1062.457, 168.421 1063.264, 179.016 1059.562 L 185.994 1057.124 188.891 1059.562 C 193.870 1063.751, 200.623 1062.563, 203.504 1056.992 C 205.806 1052.541, 214.937 1047.142, 221.459 1046.376 C 225.719 1045.875, 227.457 1045.116, 229.440 1042.890 C 230.835 1041.325, 233.219 1039.796, 234.738 1039.493 C 236.257 1039.190, 239.374 1038.316, 241.663 1037.551 C 246.223 1036.028, 246.992 1036.296, 247.015 1039.417 C 247.060 1045.526, 248.516 1044.974, 261.375 1033.971 C 263.644 1032.030, 266.646 1029.865, 268.047 1029.160 C 271.450 1027.449, 273.522 1024.122, 272.082 1022.682 C 271.487 1022.087, 271 1020.521, 271 1019.202 C 271 1016.863, 271.146 1016.821, 276.939 1017.493 L 282.878 1018.182 289.689 1012.794 C 293.435 1009.831, 298.031 1006.336, 299.902 1005.027 C 301.773 1003.718, 306.544 999.914, 310.504 996.574 C 314.463 993.233, 319.683 989.050, 322.102 987.277 C 324.521 985.505, 330.775 980.670, 336 976.534 C 341.225 972.397, 353.600 962.956, 363.500 955.553 C 373.400 948.150, 383.654 940.272, 386.287 938.046 C 388.920 935.821, 391.785 934, 392.655 934 C 394.677 934, 400.023 939.608, 407 949.048 C 410.025 953.141, 413.992 957.842, 415.817 959.495 C 417.641 961.148, 421.016 964.212, 423.317 966.305 C 428.502 971.022, 429.834 968.853, 425.079 963.437 C 423.385 961.508, 422 959.536, 422 959.055 C 422 958.574, 420.254 955.970, 418.119 953.270 C 415.984 950.569, 413.923 946.816, 413.537 944.930 C 413.152 943.043, 411.302 938.963, 409.426 935.862 C 404.758 928.144, 404.617 925.916, 408.729 924.817 C 411.543 924.065, 412.156 923.273, 413.498 918.656 C 414.752 914.342, 415.844 912.790, 419.380 910.298 C 421.768 908.614, 424.572 905.500, 425.611 903.376 C 426.650 901.253, 428.425 899.062, 429.556 898.508 C 430.686 897.954, 433.397 895.700, 435.580 893.500 C 437.763 891.300, 443.363 887.374, 448.025 884.775 C 452.686 882.177, 459.650 877.527, 463.500 874.442 C 467.350 871.357, 471.625 868.236, 473 867.506 C 474.375 866.776, 476.850 864.753, 478.500 863.010 C 480.150 861.267, 484.425 857.830, 488 855.372 C 491.575 852.914, 496.525 849.334, 499 847.415 C 508.506 840.044, 514.442 835.321, 520.257 830.500 C 527.366 824.606, 532.987 820.133, 538.500 815.983 C 550.978 806.592, 556.794 801.969, 561.852 797.423 C 564.958 794.631, 571.019 789.730, 575.319 786.533 C 579.619 783.335, 583.801 779.708, 584.610 778.472 C 585.420 777.236, 588.942 774.376, 592.436 772.116 C 595.930 769.856, 602.232 764.793, 606.439 760.864 C 617.513 750.521, 618.862 750.626, 628.883 762.609 C 640.647 776.677, 650.005 788.578, 664.178 807.500 C 667.474 811.900, 672.152 817.750, 674.574 820.500 C 678.467 824.921, 693.973 845.236, 708.500 864.948 C 718.924 879.093, 724.900 886.820, 725.885 887.429 C 726.749 887.963, 733.442 896.518, 744 910.584 C 747.771 915.607, 795.594 970.129, 811.028 987 C 815.305 991.675, 824.415 1001.800, 831.272 1009.500 C 838.130 1017.200, 848.792 1028.450, 854.966 1034.500 C 861.139 1040.550, 868.199 1048.088, 870.654 1051.250 C 874.876 1056.690, 877.184 1058.130, 878.434 1056.106 C 879.032 1055.140, 871.931 1037.514, 866.718 1027.025 C 862.856 1019.252, 852.885 1002.713, 845.008 991.010 C 838.393 981.183, 822.752 956.825, 818.352 949.500 C 808.880 933.730, 780.557 890.837, 768.970 874.716 C 764.311 868.234, 758.599 860.134, 756.276 856.716 C 749.298 846.447, 745.707 841.305, 741.500 835.555 C 737.787 830.481, 732.170 822.353, 708.977 788.500 C 690.635 761.729, 687.078 756.847, 675.860 743.056 C 673.308 739.919, 670.310 735.586, 669.198 733.426 C 668.085 731.267, 665.511 727.925, 663.477 726 C 661.442 724.075, 658.903 720.492, 657.834 718.038 C 656.764 715.584, 653.664 711.224, 650.945 708.348 C 645.580 702.676, 644.932 700.137, 647.757 695.859 C 650.163 692.215, 667.679 676.915, 676.134 671.072 C 678.535 669.413, 683.425 665.587, 687 662.571 C 690.575 659.555, 698.165 653.580, 703.867 649.294 C 709.570 645.007, 716.518 639.587, 719.308 637.250 C 722.098 634.912, 724.715 633, 725.125 633 C 725.534 633, 729.161 630.389, 733.184 627.197 C 739.935 621.843, 745.755 617.596, 757.695 609.311 C 760.223 607.557, 763.913 604.589, 765.895 602.716 C 767.878 600.843, 771.241 598.271, 773.369 597 C 775.497 595.729, 779.772 592.458, 782.869 589.731 C 785.966 587.004, 790.075 584.054, 792 583.175 C 793.925 582.296, 797.441 580.044, 799.814 578.170 C 806.168 573.150, 812.909 568.390, 818 565.330 C 820.475 563.842, 824.975 560.517, 828 557.940 C 834.850 552.106, 842.840 547, 845.119 547 C 846.069 547, 848.962 545.385, 851.548 543.412 C 854.133 541.438, 860.281 537.526, 865.209 534.718 C 871.594 531.081, 874.992 528.419, 877.028 525.459 C 878.601 523.174, 881.075 520.526, 882.527 519.574 C 883.979 518.623, 885.844 516.192, 886.671 514.172 C 887.499 512.152, 889.728 508.222, 891.625 505.438 C 898.172 495.828, 899.003 476.072, 893.082 470.782 C 887.702 465.975, 886.172 466.425, 857.995 481.110 C 854.417 482.974, 847.442 487.106, 842.495 490.292 C 837.548 493.477, 824.585 501.802, 813.689 508.792 C 779.072 530.998, 775.722 533.242, 750 551.450 C 744.225 555.538, 735.900 561.382, 731.500 564.436 C 719.971 572.438, 714.235 576.580, 708 581.404 C 704.975 583.744, 699.575 587.625, 696 590.028 C 692.425 592.431, 682.447 599.595, 673.827 605.949 C 665.208 612.302, 655.195 619.525, 651.578 622 C 641.558 628.856, 630.840 636.861, 627.500 639.984 C 624.132 643.133, 616.882 646.964, 608.271 650.143 C 605.097 651.315, 600.415 653.787, 597.866 655.637 C 590.497 660.985, 585.937 659.193, 590.862 652.885 C 595.025 647.555, 594.423 642.314, 588.846 635.318 C 587.171 633.218, 584.958 629.853, 583.927 627.841 C 582.896 625.828, 580.353 622.147, 578.276 619.659 C 576.199 617.172, 572.563 612.518, 570.196 609.318 C 567.829 606.118, 563.464 600.350, 560.495 596.500 C 555.757 590.355, 549.153 580.274, 537.239 561 C 535.369 557.975, 531.626 551.999, 528.920 547.719 C 526.214 543.440, 524 539.712, 524 539.436 C 524 539.159, 520.916 534.336, 517.147 528.717 C 513.377 523.097, 509.283 516.518, 508.047 514.095 C 506.812 511.672, 504.046 507.469, 501.900 504.755 C 499.755 502.041, 498 499.243, 498 498.537 C 498 497.831, 496.421 495.059, 494.491 492.377 C 492.561 489.694, 487.567 482.775, 483.392 477 C 479.217 471.225, 474.882 464.700, 473.757 462.500 C 472.633 460.300, 470.257 456.700, 468.478 454.500 C 466.699 452.300, 464.925 449.375, 464.535 448 C 464.146 446.625, 462.340 443.250, 460.523 440.500 C 458.576 437.552, 456.946 433.560, 456.552 430.773 C 456.185 428.174, 455.429 425.765, 454.872 425.421 C 453.052 424.296, 452.255 420.566, 453.235 417.755 C 455.110 412.376, 465.100 414.754, 475 422.935 C 477.475 424.981, 482.151 428.342, 485.390 430.405 C 493.326 435.457, 509.782 448.970, 518.082 457.250 C 524.129 463.282, 528 465.583, 528 463.145 C 528 462.674, 525.383 459.412, 522.185 455.895 C 518.986 452.378, 514.990 447.475, 513.305 445 C 506.711 435.317, 483.713 413.921, 469.905 404.622 C 463.754 400.480, 460.748 400.159, 453.500 402.873 C 445.580 405.839, 429.438 408.540, 426.279 407.429 C 424.428 406.778, 422.110 404, 418.825 398.492 C 413.628 389.781, 410.786 385.573, 395.868 364.500 C 390.417 356.800, 384.313 348.025, 382.303 345 C 380.294 341.975, 376.158 336.366, 373.111 332.536 C 370.065 328.705, 364.181 320.773, 360.036 314.909 C 353.369 305.476, 326.639 269.512, 320.340 261.500 C 319.043 259.850, 314.783 254.225, 310.872 249 C 306.962 243.775, 302.098 237.700, 300.063 235.500 C 298.028 233.300, 295.719 230.541, 294.932 229.369 C 293.522 227.272, 284.793 216.278, 274 203.007 C 270.975 199.288, 258.596 185.052, 246.491 171.372 C 234.386 157.693, 220.976 142.377, 216.690 137.337 C 208.685 127.925, 206 125.760, 206 128.716 M 399.500 472 C 395.238 477.806, 394.048 478.013, 388.100 473.982 C 382.347 470.084, 379.872 470.217, 374.919 474.692 C 371.329 477.936, 370.083 478.435, 364.666 478.803 C 360.559 479.083, 357.832 479.831, 356.500 481.045 C 355.400 482.047, 351.350 484.272, 347.500 485.990 C 343.647 487.709, 338.477 491.051, 336 493.424 C 333.525 495.795, 329.907 498.807, 327.961 500.117 C 326.014 501.428, 320.113 505.988, 314.846 510.250 C 309.580 514.513, 298.493 522.613, 290.209 528.250 C 281.926 533.888, 269.377 542.460, 262.324 547.299 C 255.271 552.139, 243.875 559.647, 237 563.983 C 230.125 568.320, 221.800 573.709, 218.500 575.958 C 215.200 578.208, 209.954 581.725, 206.843 583.774 C 186.734 597.018, 176.231 604.140, 167 610.791 C 153.339 620.633, 135.684 633.788, 130 638.360 C 127.525 640.352, 125.096 641.985, 124.603 641.990 C 124.110 641.996, 121.661 643.676, 119.161 645.724 C 114.862 649.247, 105.120 656.056, 100.576 658.714 C 99.434 659.382, 96.250 661.530, 93.500 663.487 C 87.757 667.574, 80.686 672.253, 74.085 676.336 C 71.563 677.897, 67.925 680.629, 66 682.409 C 64.075 684.188, 59.858 687.187, 56.630 689.072 C 53.401 690.957, 48.156 694.750, 44.974 697.500 C 37.053 704.345, 26.807 712.596, 18.852 718.536 C 13.110 722.822, 9 727.357, 9 729.404 C 9 730.766, 13.656 729.835, 18.645 727.475 C 21.581 726.086, 27.025 724.228, 30.742 723.345 C 34.459 722.463, 39.975 720.700, 43 719.427 C 46.025 718.154, 50.211 716.838, 52.303 716.501 C 55.543 715.980, 67.515 710.441, 89.500 699.291 C 92.250 697.896, 97.650 695.182, 101.500 693.259 C 105.350 691.336, 109.850 688.524, 111.500 687.009 C 113.212 685.438, 116.169 684.004, 118.388 683.669 C 120.526 683.345, 124.039 681.825, 126.193 680.291 C 134.319 674.502, 141.680 669.948, 146.989 667.424 C 150.008 665.988, 154.346 663.168, 156.627 661.157 C 162.218 656.229, 165.647 653.906, 171.012 651.411 C 173.494 650.257, 176.765 647.686, 178.281 645.698 C 180.010 643.431, 182.399 641.708, 184.686 641.076 C 186.692 640.522, 189.827 638.622, 191.652 636.853 C 193.477 635.083, 196.890 632.672, 199.235 631.494 C 202.205 630.003, 203.605 628.616, 203.846 626.926 C 204.382 623.165, 206.037 621.844, 209.929 622.071 C 216.659 622.464, 218.499 620.460, 213.500 618.182 C 210.477 616.805, 210.364 615.636, 213 613 C 216.237 609.763, 220.748 611.033, 219.737 614.897 C 218.507 619.603, 224.306 617.653, 231.728 610.866 C 234.053 608.740, 236.707 607, 237.625 607 C 238.543 607, 241.140 605.494, 243.397 603.654 C 245.654 601.813, 249.171 599.520, 251.213 598.557 C 254.709 596.909, 256.431 594.439, 256.480 591 C 256.495 590.010, 257.869 589.317, 260.523 588.963 C 264.729 588.401, 276.357 580.904, 279.788 576.542 C 280.780 575.281, 283.441 573.305, 285.702 572.152 C 287.962 570.999, 290.675 568.957, 291.732 567.614 C 292.788 566.271, 295.202 564.525, 297.095 563.734 C 298.988 562.943, 301.803 560.635, 303.351 558.607 C 304.898 556.578, 307.927 554.213, 310.082 553.350 C 312.237 552.488, 314 551.382, 314 550.891 C 314 548.525, 318.034 546.057, 320.948 546.640 C 323.410 547.132, 324.784 546.553, 328.719 543.369 C 338.523 535.435, 369.655 515, 371.938 515 C 373.084 515, 391.429 499.275, 397.500 493.090 C 415.367 474.885, 414.893 475.830, 409.201 469.750 C 405.560 465.862, 403.687 466.296, 399.500 472 M 235.560 596.582 C 234.461 597.682, 234.213 598.613, 234.848 599.248 C 236.194 600.594, 241.500 598.734, 241.500 596.917 C 241.500 594.844, 237.523 594.620, 235.560 596.582 M 723.500 606.872 C 716.785 609.130, 706.953 614.810, 705.499 617.271 C 704.598 618.797, 702.879 620.643, 701.680 621.373 C 700.481 622.102, 695.225 625.230, 690 628.323 C 680.459 633.971, 677.549 635.850, 659.253 648.186 C 653.799 651.863, 647.685 655.659, 645.668 656.621 C 643.651 657.583, 642 658.671, 642 659.039 C 642 659.407, 640.896 660.899, 639.548 662.354 C 636.615 665.518, 633.756 665.689, 628.739 663 C 621.347 659.038, 618.749 661.172, 623.741 667.104 C 626.365 670.222, 628.535 674.844, 629.711 679.819 C 630.113 681.520, 629.421 683.002, 627.112 685.384 C 625.381 687.170, 624.273 688.939, 624.649 689.316 C 625.960 690.627, 629.747 689.987, 632.229 688.035 C 633.603 686.954, 636.870 685.589, 639.490 685.002 C 645.864 683.574, 647.540 682.610, 654.073 676.614 C 662.357 669.013, 668.740 663.883, 676 658.993 C 679.575 656.585, 687.144 650.163, 692.820 644.721 C 698.659 639.122, 705.009 633.999, 707.446 632.921 C 711.934 630.936, 718.331 624.684, 719.435 621.204 C 719.797 620.063, 721.905 618.458, 724.288 617.510 C 729.652 615.373, 732 613.253, 732 610.545 C 732 606.539, 728.713 605.119, 723.500 606.872 M 535 662.616 C 535 665.208, 541.954 673.950, 544.530 674.597 C 550.610 676.123, 550.517 671.053, 544.361 665.320 C 539.569 660.857, 535 659.538, 535 662.616 M 254.035 1025.934 C 252.162 1029.435, 253.520 1033.204, 255.500 1030 C 255.840 1029.450, 257.216 1029, 258.559 1029 C 261.466 1029, 261.666 1027.912, 259.171 1025.655 C 256.773 1023.485, 255.303 1023.565, 254.035 1025.934" stroke="none" fill="#000" fill-rule="evenodd"/>
</svg>