<svg xmlns="http://www.w3.org/2000/svg" width="1200" height="1200" viewBox="0 0 1200 1200" version="1.1">
	<path d="M 219.933 407.580 C 218.906 408.819, 218.870 409.818, 219.770 412.203 C 220.787 414.896, 220.666 415.450, 218.718 417.027 C 216.696 418.665, 216.645 418.959, 218.084 420.655 C 219.955 422.857, 222.299 434.373, 221.832 439.059 C 221.526 442.125, 221.765 442.442, 224.865 443.091 C 230.011 444.167, 235.488 450.234, 233.800 452.989 C 232.708 454.772, 232.740 455.249, 234 455.975 C 239.285 459.021, 242.519 461.854, 242.644 463.546 C 242.723 464.621, 242.835 465.997, 242.894 466.605 C 242.952 467.213, 244.427 468.120, 246.172 468.620 C 249.549 469.589, 251.046 471.724, 248.833 472.416 C 248.100 472.645, 246.173 473.126, 244.552 473.485 C 240.856 474.303, 242.898 475.962, 247.631 475.985 C 250.412 475.998, 251.069 476.607, 253.512 481.436 C 255.025 484.427, 256.004 487.548, 255.687 488.373 C 255.370 489.198, 255.845 491.741, 256.742 494.024 C 258.035 497.317, 258.127 498.567, 257.186 500.074 C 255.663 502.513, 255.603 519.203, 257.112 520.712 C 257.832 521.432, 257.920 522.732, 257.362 524.393 C 256.325 527.480, 257.593 566.236, 259.100 577.500 C 260.237 585.999, 259.014 592.117, 255.376 596.137 C 254.511 597.092, 254.100 598.352, 254.461 598.937 C 255.428 600.501, 257 600.230, 257 598.500 C 257 597.675, 257.450 597, 258 597 C 259.451 597, 259.348 597.306, 255.500 604.432 C 251.326 612.162, 251.348 612, 254.500 612 C 257.360 612, 257.814 614.079, 255.394 616.088 C 254.198 617.080, 253.915 618.552, 254.286 621.843 C 254.723 625.726, 254.370 626.808, 251.392 630.709 C 247.489 635.823, 247.138 637.962, 250.077 638.730 C 251.219 639.029, 252.568 640.224, 253.074 641.387 C 253.581 642.549, 254.559 644.334, 255.248 645.353 C 256.306 646.919, 256.199 647.384, 254.559 648.353 C 253.491 648.984, 251.494 650.577, 250.120 651.893 L 247.622 654.287 250.311 656.431 C 252.042 657.811, 253 659.542, 253 661.288 C 253 662.856, 253.552 664, 254.309 664 C 257.245 664, 259.519 666.670, 258.070 668.416 C 255.948 670.972, 257.240 671.125, 261.818 668.860 C 267.049 666.272, 269 667.425, 269 673.103 C 269 676.416, 269.365 677.053, 271.578 677.609 L 274.156 678.256 270.680 681.878 C 265.615 687.156, 265.096 690.977, 268.950 694.614 C 273.192 698.619, 273.162 703.671, 268.863 709.021 C 266.030 712.546, 265.799 713.339, 266.479 717.212 C 266.893 719.570, 267.206 725.325, 267.174 730 C 267.137 735.519, 267.687 740.035, 268.743 742.878 C 270.282 747.021, 270.271 747.329, 268.537 748.597 C 266.808 749.861, 266.853 749.994, 269.324 750.933 C 270.827 751.505, 272.211 752.993, 272.570 754.424 C 273.610 758.568, 276 759.856, 276 756.272 C 276 753.441, 280.189 748.811, 287.423 743.646 C 289.283 742.319, 289.259 742.216, 286.693 740.534 C 283.201 738.246, 284.366 735.988, 290.536 733.088 C 293.133 731.867, 295.868 729.648, 296.818 727.989 C 297.794 726.285, 299.655 724.798, 301.251 724.446 C 306.875 723.208, 305.220 713.716, 298.801 710.397 C 297.260 709.600, 296 708.541, 296 708.042 C 296 706.238, 302.074 702.786, 304.248 703.355 C 306.760 704.012, 309.100 702.424, 308.381 700.550 C 308.072 699.746, 308.958 698.978, 310.690 698.545 C 312.236 698.160, 314.314 697.111, 315.309 696.214 C 320.133 691.865, 323.241 702.051, 318.576 706.921 C 317.168 708.391, 315.593 711.597, 315.076 714.047 C 313.235 722.770, 311.691 727.526, 310.107 729.356 C 307.179 732.739, 308.524 741.609, 312.602 745.808 C 317.001 750.338, 316.885 751.603, 312 752.384 C 307.407 753.119, 307.541 752.891, 309.494 756.636 C 311.964 761.372, 311.459 763.824, 307.818 764.767 C 303.600 765.860, 303.300 767.297, 306.999 768.694 C 309.166 769.512, 310.187 770.685, 310.622 772.858 C 311.055 775.024, 312.047 776.169, 314.113 776.890 C 316.291 777.649, 317 778.531, 317 780.479 C 317 782.027, 317.702 783.322, 318.750 783.708 C 322.473 785.082, 322.058 789.513, 317.891 792.888 C 316.046 794.381, 315.926 795.026, 316.837 798.537 C 317.403 800.717, 318.173 805.089, 318.549 808.253 L 319.231 814.005 315.616 815.516 C 311.158 817.379, 311.150 817.766, 315.473 822.055 C 323.618 830.134, 326.222 830.999, 328.757 826.470 C 329.267 825.558, 331.217 824.499, 333.090 824.116 C 335.853 823.550, 336.595 822.861, 337.030 820.460 C 337.631 817.135, 340.065 816.897, 343.356 819.840 C 344.376 820.753, 346.736 821.500, 348.599 821.500 C 352.504 821.500, 353.272 823.041, 350.095 824.500 C 347.396 825.739, 346.388 829.362, 347.850 832.570 C 348.997 835.088, 348.074 839.218, 346.089 840.445 C 345.520 840.797, 344.546 842.978, 343.924 845.292 C 343.302 847.606, 342.319 849.795, 341.741 850.155 C 340.441 850.965, 332.755 848.725, 329.487 846.583 C 326.773 844.805, 324.401 844.542, 323.546 845.925 C 322.898 846.975, 324.949 852, 326.026 852 C 326.413 852, 329.378 853.824, 332.615 856.054 C 339.143 860.551, 344.032 860.860, 351.593 857.254 C 354.595 855.823, 355.526 855.775, 358.290 856.911 C 368.494 861.104, 370.205 861.441, 371.603 859.528 C 372.702 858.025, 372.679 857.380, 371.461 855.640 C 368.760 851.785, 370.187 847, 374.036 847 C 374.936 847, 378.476 849.250, 381.902 852 C 388.876 857.596, 390.210 857.865, 396.587 854.961 C 403.693 851.723, 403.615 853.657, 396.357 860.600 L 389.634 867.033 391.675 869.766 C 394.398 873.414, 395.323 873.216, 396.426 868.750 C 397.229 865.502, 397.737 865, 400.226 865 C 403.640 865, 407.775 863.011, 410.407 860.102 C 412.660 857.613, 416.630 857.401, 421.654 859.500 C 426.574 861.556, 427.416 861.435, 432.159 858 C 436.838 854.610, 439.011 854.175, 438.393 856.750 C 437.686 859.702, 439.510 861.153, 444.520 861.621 C 447.998 861.946, 450.242 862.883, 452.692 865.034 C 456.787 868.630, 459.254 868.788, 461.350 865.589 C 462.218 864.263, 464.633 862.630, 466.715 861.959 C 468.797 861.288, 471.063 860.293, 471.750 859.747 C 473.333 858.491, 473.375 853.775, 471.817 852.217 C 471.166 851.566, 470.876 850.790, 471.174 850.493 C 472.189 849.478, 474.728 851.107, 475.800 853.461 C 477.083 856.277, 481.970 857.622, 485.008 855.996 C 486.700 855.090, 487.658 855.201, 489.697 856.537 L 492.261 858.217 489.717 860.358 C 486.437 863.119, 485.493 866.334, 487.477 867.981 C 489.671 869.801, 489.361 870.871, 486.427 871.608 C 483.602 872.317, 481.488 876.386, 482.627 878.922 C 483.017 879.790, 483.598 882.975, 483.918 886 C 484.485 891.360, 484.585 891.508, 487.815 891.818 C 491.631 892.184, 493.332 891.019, 496.649 885.765 C 499.513 881.227, 502.284 880.683, 501.816 884.750 C 501.568 886.910, 500.910 887.568, 498.750 887.816 C 497.163 887.999, 496 888.745, 496 889.580 C 496 890.376, 495.488 891.847, 494.862 892.849 C 493.208 895.498, 495.051 900.411, 497.853 900.823 C 500.659 901.235, 502.464 904.155, 503.985 910.739 C 505.112 915.623, 505.462 916.058, 509.140 917.160 C 515.076 918.939, 516.851 916.846, 515.124 910.106 C 514.032 905.846, 514.080 904.745, 515.478 902.042 C 516.767 899.550, 516.883 898.206, 516.049 895.456 C 515.472 893.555, 514.550 890.506, 514 888.679 C 511.742 881.179, 513.357 876.496, 517.802 877.658 C 520.492 878.362, 520.501 878.548, 518 881.727 C 515.758 884.578, 515.347 888.008, 517.250 887.985 C 521.434 887.934, 527.225 885.073, 530.267 881.554 C 533.555 877.750, 537.352 876.999, 536.928 880.237 C 536.569 882.980, 537.077 884, 538.800 884 C 542.818 884, 544.628 878.652, 541 877.500 C 539.900 877.151, 539 876.290, 539 875.588 C 539 874.885, 539.900 873.495, 541 872.500 C 542.100 871.505, 543 870.115, 543 869.412 C 543 868.710, 543.907 867.847, 545.015 867.495 C 546.123 867.144, 546.780 866.454, 546.477 865.962 C 546.173 865.471, 544.407 865.792, 542.553 866.676 C 535.324 870.123, 533.892 866.037, 540.330 860.335 C 545.414 855.832, 548.435 851.513, 547.527 850.044 C 545.981 847.541, 541.890 849.150, 536.337 854.443 C 533.196 857.437, 530.236 859.646, 529.759 859.351 C 528.872 858.803, 536.828 849.286, 538.327 849.102 C 539.599 848.945, 545 843.288, 545 842.112 C 545 841.539, 545.900 840.589, 547 840 C 549.030 838.914, 549.672 836.533, 548.184 835.614 C 547.317 835.078, 540.506 837.160, 539.352 838.315 C 538.975 838.692, 538.357 839, 537.979 839 C 537.079 839, 541.735 829.282, 543.015 828.491 C 544.840 827.363, 544.036 824.244, 541.750 823.578 L 539.500 822.923 541.750 821.340 C 543.205 820.316, 544 818.728, 544 816.847 C 544 813.675, 541.601 811.999, 539.733 813.867 C 537.745 815.855, 537.493 815.144, 537.835 808.502 C 538.152 802.354, 539.366 800.184, 540.636 803.494 C 541.551 805.880, 543.224 804.030, 542.557 801.370 C 542.224 800.044, 542.447 798.033, 543.053 796.901 C 545.010 793.244, 543.443 791.507, 540.368 793.925 C 537.798 795.947, 534.927 796.594, 533.750 795.416 C 532.842 794.508, 537.034 788, 538.527 788 C 540.287 788, 543 785.227, 543 783.429 C 543 781.599, 541.244 781.624, 537.636 783.506 C 534.872 784.948, 532 785.480, 532 784.550 C 532 783.193, 538.492 774.827, 542.901 770.500 C 547.783 765.710, 549.680 761.021, 546.750 760.985 C 542.527 760.933, 542.839 755.868, 547.294 752.171 C 549.154 750.627, 548.571 734.043, 546.361 725.608 C 545.265 721.424, 544.998 717.511, 545.441 712.108 C 545.858 707.028, 545.505 700.845, 544.379 693.500 C 542.533 681.460, 542.303 677.287, 541.653 644 C 541.411 631.625, 540.718 619.090, 540.113 616.145 C 539.507 613.200, 539.266 610.379, 539.577 609.876 C 540.909 607.721, 539.962 579.958, 538.399 575.356 C 537.117 571.579, 537.051 570.273, 538.047 568.411 C 538.783 567.037, 539.028 564.577, 538.659 562.271 C 538.321 560.155, 538.502 556.766, 539.062 554.739 C 540.146 550.813, 538.817 546.753, 535.566 544.055 C 533.833 542.616, 533.426 536.473, 535 535.500 C 536.689 534.456, 536.110 530.110, 534 528 C 532.900 526.900, 532 525.403, 532 524.672 C 532 523.942, 530.200 519.195, 528 514.122 C 524.447 505.931, 524 504.015, 524 496.985 C 524 489.704, 523.770 488.806, 521.135 485.785 C 519.559 483.978, 517.355 480.696, 516.238 478.492 C 514.238 474.547, 508.034 470, 504.649 470 C 502.598 470, 501 466.941, 501 463.015 C 501 460.357, 500.447 459.668, 497.250 458.337 C 491.193 455.815, 490.481 453.312, 494.708 449.394 C 499.793 444.683, 494.233 441.238, 486.889 444.550 L 483.061 446.276 480.129 443.138 C 477.565 440.394, 476.527 439.994, 471.849 439.956 C 468.907 439.932, 464.700 439.264, 462.500 438.471 C 456.366 436.261, 454.142 436.588, 452.203 439.985 C 451.267 441.626, 449.264 443.402, 447.753 443.932 C 446.242 444.461, 444.479 446.049, 443.836 447.461 C 442.941 449.424, 442.176 449.881, 440.583 449.399 C 438.306 448.711, 438.298 448.710, 435.719 448.882 C 434.328 448.974, 433.988 449.757, 434.170 452.449 C 434.468 456.886, 431.766 459.995, 427.595 460.014 C 422.374 460.037, 419.986 461.127, 418.387 464.218 C 417.005 466.891, 417.009 467.353, 418.427 468.920 C 419.292 469.875, 420 471.829, 420 473.261 C 420 474.987, 420.675 476.079, 422 476.500 C 424.101 477.167, 424.688 479.457, 423.021 480.487 C 421.262 481.574, 418.029 479.005, 416.475 475.287 C 414.602 470.804, 412.912 471.928, 412.070 478.217 C 411.621 481.569, 410.925 482.750, 408.794 483.770 C 407.306 484.483, 405.183 486.338, 404.077 487.892 C 402.031 490.766, 393.432 494, 387.839 494 C 383.637 494, 380.077 499.694, 383.108 501.567 C 383.811 502.001, 383.195 503.067, 381.424 504.479 L 378.632 506.705 379.979 515.366 C 380.720 520.129, 381.928 524.525, 382.663 525.135 C 384.759 526.875, 384.244 528.354, 380.873 530.273 C 378.572 531.583, 377.416 531.760, 376.443 530.953 C 374.632 529.450, 366 537.520, 366 540.717 C 366 543.475, 360.857 548.307, 357.173 549.010 C 354.034 549.609, 353.632 551.308, 356.500 551.852 C 359.550 552.431, 359.924 553.866, 358.282 558.685 C 356.939 562.627, 356.942 563.280, 358.306 564.799 C 360.355 567.082, 356.923 571.481, 352.334 572.452 C 350.592 572.821, 348.919 573.770, 348.615 574.561 C 348.311 575.352, 347.185 576, 346.113 576 C 340.610 576, 339.913 577.708, 343.500 582.411 C 346.508 586.354, 346.614 587.601, 344.061 588.968 C 342.395 589.859, 342.294 590.322, 343.343 592.253 C 344.949 595.206, 350.536 601, 351.779 601 C 353.597 601, 355.401 603.999, 354.265 605.135 C 352.940 606.460, 349 604.542, 349 602.573 C 349 601.827, 347.762 600.908, 346.250 600.530 C 344.738 600.153, 342.825 599.265, 342 598.556 C 341.175 597.848, 339.262 596.975, 337.750 596.615 C 333.811 595.679, 334.120 598.891, 338.221 601.500 C 341.483 603.576, 347.818 611.565, 347.934 613.750 C 348.026 615.499, 346.335 615.314, 345.638 613.500 C 345.322 612.675, 344.458 612, 343.718 612 C 342.979 612, 341.081 610.650, 339.500 609 C 337.919 607.350, 336.035 606, 335.313 606 C 333.560 606, 333.697 610.015, 335.532 612.441 C 337.575 615.143, 337.364 618.735, 335.090 619.952 C 333.899 620.589, 332.915 622.579, 332.475 625.237 C 331.509 631.073, 330.988 631.635, 328.994 628.992 C 326.748 626.014, 325.399 626.985, 324.717 632.074 C 324.382 634.570, 323.388 636.740, 322.198 637.574 C 320.450 638.798, 320.342 639.467, 321.224 643.600 C 322.218 648.263, 321.886 649.084, 318.500 650.338 C 317.940 650.545, 318.218 651.542, 319.133 652.604 C 321.583 655.447, 325 662.644, 325 664.960 C 325 667.271, 322.741 667.613, 318.393 665.959 C 313.855 664.234, 312.968 665.230, 314.662 670.146 C 316.221 674.670, 316.028 675.103, 311.220 677.875 C 310.198 678.464, 310.257 679.372, 311.514 682.380 C 313.467 687.052, 312.689 690, 309.504 690 C 304.524 690, 303.388 686.958, 305.550 679.414 C 305.952 678.009, 305.308 676.331, 303.574 674.270 C 300.476 670.588, 300.403 669.575, 303 666.273 C 305.565 663.012, 305.815 652.608, 303.410 649.175 C 301.956 647.099, 301.959 646.560, 303.449 642.836 C 304.712 639.681, 304.845 638.061, 304.043 635.631 C 303.474 633.907, 303.057 630.698, 303.115 628.498 C 303.242 623.720, 301.588 611.271, 299.994 605 C 299.365 602.525, 298.505 598.700, 298.082 596.500 C 297.168 591.738, 295.435 585.255, 293.349 578.792 C 292.513 576.203, 292.048 573.728, 292.315 573.292 C 292.581 572.857, 292.404 565.750, 291.921 557.500 C 291.200 545.176, 291.329 541.015, 292.644 534.173 C 293.829 528.014, 293.953 525.553, 293.123 524.723 C 291.754 523.354, 291.607 507.163, 292.932 503.680 C 293.444 502.332, 295.509 499.631, 297.519 497.678 C 301.693 493.625, 301.618 492.216, 296.875 485.669 C 293.357 480.812, 293.305 479.591, 296.500 476.813 C 299.606 474.113, 299.891 467.973, 297.121 463.431 C 296.092 461.743, 294.911 459.294, 294.496 457.987 C 294.081 456.681, 292.819 454.864, 291.690 453.950 C 289.815 452.432, 289.754 452.007, 290.988 449.029 C 292.182 446.146, 292.146 445.661, 290.669 444.835 C 288.375 443.551, 288.578 441.524, 291.175 439.800 C 294.269 437.745, 292.947 435.306, 287.413 432.858 C 283.213 431, 282.861 430.581, 283.473 428.159 C 285.092 421.744, 284.727 420.564, 280.825 419.596 C 272.091 417.429, 264.956 421.935, 269.956 426.460 C 272.679 428.924, 272.538 431.601, 269.584 433.537 C 266.386 435.632, 265.884 437.233, 267.273 440.913 C 269.794 447.592, 263.540 447.515, 259.782 440.821 C 258.072 437.774, 256.210 436.186, 252.351 434.478 C 248.181 432.632, 247.075 431.619, 246.531 429.142 C 245.895 426.247, 240.042 420, 237.965 420 C 236.450 420, 236.837 416.380, 238.500 415 C 240.227 413.567, 240.537 409, 238.908 409 C 238.307 409, 236.671 409.900, 235.273 411 C 231.704 413.807, 229.891 413.514, 226 409.500 C 222.146 405.524, 221.745 405.397, 219.933 407.580 M 1007.828 443.222 C 1006.197 443.767, 1004.756 445.261, 1004.130 447.057 C 1002.877 450.653, 1002.233 450.744, 1001 447.500 C 999.721 444.137, 997.278 444.346, 995.203 447.997 C 993.253 451.429, 989.550 452.854, 982.872 452.743 C 978.939 452.678, 977.551 453.234, 973.635 456.443 C 968.361 460.764, 959.912 471.745, 957.201 477.800 C 956.188 480.062, 952.878 484.297, 949.844 487.212 C 945.413 491.469, 944.223 493.303, 943.789 496.539 C 943.492 498.754, 941.843 502.851, 940.124 505.644 C 937.666 509.638, 936.991 511.871, 936.958 516.111 C 936.931 519.647, 935.698 524.938, 933.373 531.500 C 931.424 537, 929.379 543.750, 928.828 546.500 C 928.277 549.250, 927.190 553.975, 926.411 557 C 925.459 560.701, 924.887 569.887, 924.662 585.080 C 924.478 597.499, 923.917 608.299, 923.414 609.080 C 922.911 609.861, 922.432 613.200, 922.348 616.500 C 922.148 624.406, 920.497 633.570, 918.779 636.305 C 918.021 637.512, 916.553 641.056, 915.517 644.180 C 913.673 649.742, 913.673 649.947, 915.515 654.033 C 917.311 658.016, 917.319 658.423, 915.698 662.987 C 914.764 665.617, 914 669.141, 914 670.819 C 914 672.497, 913.515 675.137, 912.922 676.685 C 911.619 680.087, 909.820 696.673, 909.635 707 C 909.544 712.041, 908.736 716.631, 907.170 721 L 904.839 727.500 906.814 731.873 C 908.417 735.422, 908.592 736.836, 907.741 739.373 C 906.602 742.766, 906.249 746.112, 905.382 761.734 L 904.814 771.967 907.907 775.061 C 911.669 778.823, 911.745 780.093, 908.421 783.680 C 906.359 785.904, 905.974 787.070, 906.504 789.482 C 906.869 791.142, 907.129 794.362, 907.082 796.638 C 907.036 798.914, 907.888 802.739, 908.977 805.138 C 910.065 807.537, 910.966 810.897, 910.978 812.604 C 911.003 816.185, 913.796 819.583, 919.857 823.410 C 924.780 826.518, 925.390 829.859, 921.500 832.408 C 918.404 834.436, 918.295 837.621, 921.216 840.729 C 922.905 842.527, 923.385 844.144, 923.238 847.532 C 923.050 851.846, 923.197 852.080, 928.259 855.488 C 932.303 858.212, 934.486 859.001, 937.987 859.004 C 940.868 859.006, 943.766 859.791, 946 861.175 C 951.699 864.704, 959.659 865.856, 968.657 864.455 C 972.428 863.868, 973.069 864.095, 975.572 866.904 C 977.089 868.607, 979.195 870, 980.251 870 C 984.839 870, 995.330 873.548, 995.775 875.250 C 996.131 876.610, 997.303 877, 1001.035 877 C 1006.745 877, 1009 877.728, 1009 879.572 C 1009 883.719, 1000.067 883.558, 997.317 879.361 C 994.864 875.617, 990.411 876.388, 990.741 880.500 C 990.873 882.150, 990.986 886.297, 990.992 889.715 C 991 894.900, 991.333 896.108, 993.001 897 C 994.145 897.613, 995 899.094, 995 900.464 C 995 909.451, 1005.985 906.454, 1010.446 896.250 C 1011.993 892.710, 1012.770 892, 1015.093 892 C 1018.735 892, 1019.463 893.364, 1017.455 896.428 C 1016.560 897.794, 1016.081 899.322, 1016.391 899.823 C 1016.909 900.662, 1026.105 901.762, 1036.975 902.285 C 1041.121 902.484, 1041.623 902.812, 1043.793 906.736 L 1046.134 910.972 1050.027 908.986 C 1056.138 905.869, 1057 906.234, 1057 911.935 C 1057 921.628, 1060.281 924.844, 1066.345 921.096 C 1069.117 919.383, 1069.590 918.570, 1069.234 916.138 C 1068.593 911.776, 1070.499 909, 1074.134 909 C 1075.819 909, 1078.687 908.293, 1080.508 907.429 C 1083.521 905.999, 1084.239 906.002, 1088.524 907.456 C 1093.885 909.277, 1096 908.399, 1096 904.353 C 1096 901.255, 1092.361 899.749, 1087.940 901.017 C 1084.117 902.114, 1081 900.778, 1081 898.044 C 1081 896.772, 1081.954 895.949, 1083.931 895.515 C 1085.543 895.161, 1087.398 894.225, 1088.053 893.436 C 1089.738 891.406, 1091.336 891.630, 1096.757 894.657 C 1102.866 898.067, 1106.928 897.440, 1112.659 892.200 C 1116.007 889.139, 1116.955 887.481, 1117.522 883.699 C 1118.122 879.700, 1118.563 879, 1120.479 879 C 1123.210 879, 1128 875.420, 1128 873.378 C 1128 872.565, 1127.302 870.551, 1126.449 868.901 C 1125.007 866.112, 1125.040 865.672, 1126.916 862.636 C 1128.385 860.260, 1128.776 858.396, 1128.354 855.794 C 1127.859 852.741, 1128.229 851.742, 1130.887 848.961 C 1134.417 845.267, 1134.383 845.397, 1132.908 841.166 C 1131.986 838.521, 1132.142 837.507, 1133.908 834.649 C 1135.059 832.787, 1136 830.322, 1136 829.171 C 1136 828.019, 1137.800 825.295, 1140 823.117 L 1144 819.157 1144 803.682 C 1144 792.656, 1143.446 785.232, 1142.074 777.854 C 1141.014 772.159, 1139.889 760.750, 1139.574 752.500 C 1138.526 725.115, 1134.239 675.834, 1132.484 671 C 1131.585 668.525, 1130.234 663.800, 1129.482 660.500 C 1128.730 657.200, 1127.434 652.639, 1126.602 650.365 C 1125.770 648.091, 1124.772 642.033, 1124.385 636.902 C 1123.680 627.565, 1123.040 625.722, 1117.473 617 C 1115.128 613.327, 1109.888 596.102, 1105.456 577.500 C 1104.670 574.200, 1102.861 568.350, 1101.437 564.500 C 1097.596 554.122, 1097.617 554.264, 1099.043 548.320 C 1100.595 541.851, 1099.679 537.175, 1094.948 527.421 C 1093.327 524.078, 1091.997 520.028, 1091.994 518.421 C 1091.983 512.550, 1089.948 508.165, 1084.862 503.052 L 1079.771 497.935 1080.456 490.629 C 1081.121 483.527, 1081.039 483.139, 1077.488 476.680 C 1073.088 468.676, 1070.009 465.393, 1063.457 461.725 C 1060.731 460.198, 1056.986 457.989, 1055.135 456.815 C 1053.003 455.464, 1050.348 454.737, 1047.893 454.833 C 1043.105 455.021, 1030.324 450.938, 1023.314 446.982 C 1016.909 443.367, 1011.397 442.029, 1007.828 443.222 M 692 457.500 C 691.274 458.375, 689.091 459, 686.762 459 C 683.001 459, 682.239 459.567, 673.649 468.750 C 668.634 474.113, 661.774 481.229, 658.406 484.565 C 654.578 488.356, 652.081 491.731, 651.748 493.565 C 651.454 495.179, 649.768 500.100, 648.001 504.500 C 642.572 518.016, 640.952 523.264, 640.303 529.425 C 639.783 534.358, 639.078 536.015, 636.089 539.322 C 632.776 542.989, 632.437 543.955, 631.678 551.897 C 630.695 562.180, 630.665 566.151, 631.529 571.588 C 631.952 574.247, 631.449 579.048, 630.090 585.321 C 628.940 590.625, 628 596.803, 628 599.048 C 628 601.294, 627.591 603.895, 627.092 604.829 C 626.592 605.762, 625.955 608.607, 625.675 611.152 C 625.395 613.696, 624.454 617.156, 623.583 618.839 C 622.712 620.523, 621.998 623.386, 621.995 625.200 C 621.992 627.015, 620.881 630.300, 619.526 632.500 C 617.009 636.587, 616.204 642.390, 618 643.500 C 619.575 644.474, 619.176 646.961, 617 649.727 C 615.616 651.487, 615 653.784, 615 657.190 C 615 660.028, 614.128 664.024, 612.939 666.634 C 611.315 670.198, 610.851 673.379, 610.750 681.636 C 610.680 687.400, 610.257 692.341, 609.811 692.617 C 609.365 692.892, 609 695.255, 609 697.868 C 609 700.496, 608.344 703.485, 607.532 704.559 C 605.519 707.220, 605.642 709.209, 608.134 714.339 C 610.221 718.635, 610.229 718.832, 608.504 723.351 C 607.533 725.893, 606.123 728.483, 605.370 729.108 C 604.524 729.810, 604 732.283, 604 735.575 C 604 738.507, 603.479 742.050, 602.841 743.449 C 601.890 745.536, 601.980 746.320, 603.341 747.825 C 605.542 750.256, 605.435 751.727, 603 752.500 C 600.553 753.277, 600.345 757.070, 602.564 760.457 C 603.885 762.474, 603.938 763.475, 602.904 766.925 C 601.979 770.014, 601.959 771.614, 602.821 773.507 C 603.476 774.944, 603.703 777.887, 603.355 780.424 C 602.826 784.289, 603.078 785.169, 605.375 787.466 C 608.386 790.477, 608.657 792.616, 606.432 795.793 C 603.911 799.393, 604.957 802.122, 609.452 803.672 C 615.034 805.597, 616.990 810.104, 613.500 813 C 611.338 814.794, 611.647 816.706, 614.500 819.187 C 616.638 821.046, 617 822.214, 617 827.257 C 617 833.844, 616.258 832.828, 629.954 845 C 633.977 848.575, 638.423 852.124, 639.835 852.887 C 641.246 853.650, 643.099 855.105, 643.951 856.120 C 646.168 858.762, 660.152 859.077, 662.946 856.549 C 663.994 855.601, 665.672 854.981, 666.676 855.173 C 669.047 855.625, 669.713 860.021, 667.590 861.209 C 664.750 862.799, 665.845 864.184, 669.546 863.685 C 672.286 863.316, 673.745 863.756, 675.957 865.617 C 679.958 868.984, 685.221 871, 690.008 871 C 692.664 871, 695.138 871.783, 697.121 873.250 C 699.754 875.199, 701.388 875.500, 709.330 875.500 C 718.196 875.500, 718.497 875.426, 718.421 873.250 C 718.351 871.267, 718.831 871, 722.471 871 C 728.826 871, 731.412 874.944, 726.519 877.173 C 723.548 878.527, 722.375 881.542, 724.040 883.548 C 725.642 885.479, 733.370 885.464, 734.978 883.526 C 735.651 882.716, 737.843 881.787, 739.850 881.463 C 748.003 880.145, 750.199 877.300, 746 873.500 C 743.721 871.438, 743.356 869, 745.326 869 C 746.055 869, 747.726 867.856, 749.039 866.458 C 752.885 862.365, 756.104 863.793, 757.443 870.186 C 758.094 873.294, 763.554 877.526, 772.662 881.984 C 780.147 885.648, 778.975 885.698, 784 881.500 C 786.304 879.575, 788.785 878, 789.513 878 C 791.300 878, 799.432 870.099, 798.552 869.218 C 798.167 868.834, 795.749 868.515, 793.177 868.510 C 786.481 868.496, 786.536 865.626, 793.241 865.196 C 798.133 864.881, 801.766 861.766, 803.381 856.500 C 803.719 855.400, 805.358 853.726, 807.024 852.781 C 809.403 851.432, 809.934 850.572, 809.496 848.781 C 809.067 847.026, 810.156 845.109, 814.219 840.468 C 817.124 837.150, 821.685 831.234, 824.355 827.323 L 829.209 820.210 829.580 809.855 C 830.125 794.636, 831.653 778.064, 832.933 773.500 C 833.898 770.058, 835.996 751.237, 837.726 730.500 C 838.001 727.200, 837.669 716.175, 836.988 706 C 835.666 686.248, 834.734 661.268, 834.861 649 C 834.945 640.955, 833.947 636.019, 830.859 629.211 C 829.125 625.386, 829.042 624.277, 830.091 618.945 C 830.844 615.115, 830.990 610.370, 830.496 605.734 C 830.073 601.755, 829.796 595.432, 829.880 591.683 C 829.993 586.721, 829.476 583.604, 827.982 580.227 C 826.110 575.994, 825.266 572.672, 821.828 556 C 820.712 550.589, 816.764 542.395, 812.433 536.500 C 809.113 531.982, 806.253 525.864, 805.444 521.552 C 805.029 519.343, 803.301 516.125, 801.398 514.019 C 798.636 510.962, 797.889 509.088, 796.974 502.920 C 796.369 498.839, 795.275 494.150, 794.544 492.500 C 793.812 490.850, 792.644 487.997, 791.948 486.159 C 790.580 482.549, 785.745 478.916, 779.830 477.053 C 777.811 476.418, 775.619 475.246, 774.958 474.449 C 774.294 473.649, 772.053 473, 769.954 473 C 767.307 473, 765.203 472.200, 763.022 470.365 C 760.747 468.451, 758.197 467.525, 753.695 466.979 C 750.288 466.565, 744.350 465.023, 740.500 463.551 C 728.738 459.055, 726.679 458.778, 718.168 460.545 C 709.066 462.434, 703.521 461.843, 698.519 458.448 C 694.302 455.586, 693.665 455.494, 692 457.500 M 427.664 469.668 C 425.826 470.631, 425.044 471.672, 425.421 472.655 C 425.740 473.485, 426 474.534, 426 474.987 C 426 476.383, 434.711 481, 437.346 481 C 443.731 481, 444.643 478.809, 438.965 477.108 C 435.682 476.124, 434.818 475.342, 434.333 472.914 C 433.536 468.928, 431.224 467.803, 427.664 469.668 M 228.441 484.441 C 226.891 485.593, 226.722 486.247, 227.602 487.691 C 229.124 490.188, 232.232 490.443, 234.892 488.289 C 239.560 484.509, 233.344 480.801, 228.441 484.441 M 399.750 496.689 C 398.788 496.941, 398 498.014, 398 499.073 C 398 501.563, 403.739 501.843, 404.677 499.399 C 405.211 498.007, 403.437 495.842, 402 496.131 C 401.725 496.187, 400.712 496.438, 399.750 496.689 M 376 538.931 C 376 541.604, 380.045 547.620, 382.678 548.863 C 383.980 549.478, 384.986 551.008, 385.178 552.664 C 385.918 559.043, 395.937 559.366, 396.843 553.040 C 397.031 551.724, 397.860 549.617, 398.685 548.358 C 400.055 546.267, 399.998 545.805, 398.024 543.034 C 395.437 539.401, 391.530 539.008, 387.727 542 C 383.642 545.214, 380.370 544.651, 379 540.500 C 377.752 536.719, 376 535.802, 376 538.931 M 473.392 538.422 C 473.092 539.204, 473.361 540.806, 473.990 541.982 C 475.358 544.537, 480.302 544.457, 480.791 541.871 C 481.469 538.297, 474.658 535.122, 473.392 538.422 M 404.250 552.175 C 400.211 554.672, 399.983 557, 403.777 557 C 407.342 557, 411 554.439, 411 551.943 C 411 549.457, 408.509 549.542, 404.250 552.175 M 568.217 553.250 C 566.764 555.019, 566.487 557.144, 567.371 559.750 C 569.022 564.614, 574.961 560.649, 573.421 555.712 C 572.326 552.203, 569.987 551.097, 568.217 553.250 M 478.518 557.971 C 478.188 558.504, 478.612 560.282, 479.459 561.921 C 480.307 563.560, 481 566.273, 481 567.950 C 481 571.822, 483.425 572.015, 487.269 568.451 C 490.458 565.495, 490.046 563.985, 484.883 559.708 C 481.458 556.871, 479.524 556.343, 478.518 557.971 M 485.750 577.080 C 484.640 577.727, 484 579.312, 484 581.415 C 484 583.238, 483.153 585.808, 482.117 587.124 C 479.080 590.985, 479.839 598.152, 483.621 601.335 C 486.834 604.038, 487.676 603.873, 490.308 600.027 C 492.563 596.733, 492.445 593.759, 490 592.232 C 487.644 590.760, 487.368 586.770, 489.500 585 C 491.247 583.551, 491.435 580.682, 489.965 577.934 C 488.795 575.749, 488.231 575.635, 485.750 577.080 M 230.919 585.896 C 229.694 587.553, 227.363 589.201, 225.740 589.557 C 223.949 589.950, 222.143 591.342, 221.145 593.096 C 220.240 594.686, 218.739 595.990, 217.809 595.994 C 215.253 596.003, 214.554 597.986, 216.450 599.846 C 218.022 601.388, 218.287 601.313, 220.356 598.750 C 221.747 597.026, 223.544 596, 225.171 596 C 226.915 596, 227.936 595.352, 228.283 594.025 C 228.567 592.939, 230.443 591.081, 232.452 589.896 C 235.057 588.359, 236.018 587.154, 235.803 585.699 C 235.331 582.516, 233.359 582.596, 230.919 585.896 M 163 586.917 C 163 587.421, 163.522 588.007, 164.161 588.220 C 165.002 588.501, 164.866 589.946, 163.668 593.460 C 162.016 598.310, 162.596 601, 165.294 601 C 165.871 601, 167.149 601.730, 168.134 602.621 C 170.781 605.017, 172.642 603.707, 173.272 599.006 C 174.045 593.246, 171.792 588, 168.546 588 C 167.210 588, 165.840 587.550, 165.500 587 C 164.726 585.747, 163 585.689, 163 586.917 M 430.239 586.666 C 427.987 587.573, 426.729 590.969, 428.053 592.564 C 429.548 594.365, 433.338 594.374, 438.465 592.590 C 443.268 590.918, 444.251 589.012, 440.333 588.968 C 438.775 588.951, 436.626 588.276, 435.559 587.468 C 433.561 585.957, 432.424 585.786, 430.239 586.666 M 53.850 595 C 53.275 596.650, 52.414 598, 51.937 598 C 49.751 598, 48.947 601.997, 50.521 605.041 C 52.691 609.238, 51.679 611.805, 47.702 612.190 C 44.586 612.492, 44.480 612.662, 43.755 618.498 C 43.345 621.796, 42.181 625.621, 41.168 626.998 C 37.278 632.281, 36.913 633.645, 38.151 638.275 C 39.224 642.285, 39.126 642.911, 36.974 645.821 C 34.690 648.911, 34.672 649.089, 36.314 652.532 C 38.660 657.453, 38.460 658.435, 34.778 660.070 C 29.766 662.294, 28.238 672.598, 32.004 678.774 C 34.519 682.899, 34.504 684.089, 31.900 687.400 C 30.489 689.193, 29.997 690.852, 30.399 692.455 C 30.758 693.884, 30.306 696.047, 29.272 697.848 C 27.747 700.506, 27.704 701.293, 28.906 704.616 C 30.212 708.228, 30.162 708.459, 27.633 710.476 C 23.983 713.386, 24.132 717.246, 28 720 C 31.513 722.502, 31.746 724.015, 29 726.500 C 26.468 728.791, 26.468 731.538, 29 736.261 C 31.360 740.665, 31.533 742.858, 29.577 743.609 C 27.266 744.495, 26.962 746.772, 28.741 749.871 C 30.308 752.603, 30.296 753.016, 28.535 756.923 C 26.694 761.004, 26.696 761.116, 28.639 763.718 C 31.763 767.903, 42.326 773.213, 44.445 771.664 C 47.169 769.672, 45.492 765.407, 41.150 763.285 C 38.832 762.151, 37.383 760.679, 37.180 759.250 C 36.686 755.770, 39.218 756.502, 43.433 761.057 C 47.986 765.978, 52.287 766.339, 52.807 761.843 C 52.977 760.382, 52.527 758.692, 51.807 758.088 C 46.355 753.509, 38.406 748, 37.252 748 C 36.449 748, 36.007 747.255, 36.215 746.250 C 36.671 744.047, 42.512 744.200, 47.455 746.546 C 52.570 748.973, 57.178 748.150, 58.909 744.500 C 59.691 742.850, 61.838 739.303, 63.679 736.618 C 67.628 730.860, 66.944 729, 60.878 729 L 57 729 57 734.417 C 57 740.103, 55.930 741.465, 52.750 739.830 C 50.214 738.525, 50.603 734.720, 53.604 731.482 C 55.681 729.242, 56.099 727.996, 55.667 725.336 C 55.369 723.501, 55.547 722, 56.063 722 C 56.578 722, 57 722.450, 57 723 C 57 723.550, 58.098 724, 59.441 724 C 60.784 724, 62.160 723.550, 62.500 723 C 62.840 722.450, 62.621 722, 62.014 722 C 60.189 722, 56 717.231, 56 715.154 C 56 713.828, 57.261 712.713, 60 711.617 C 65.311 709.492, 65.533 706.102, 60.554 703.164 C 56.923 701.022, 51.532 693.566, 52.492 692.013 C 52.802 691.511, 51.421 689.615, 49.423 687.800 C 44.725 683.533, 41.710 679.278, 42.490 678.016 C 43.264 676.764, 49.652 679.324, 52.551 682.048 C 57.239 686.452, 58.282 684.915, 57.506 674.750 C 57.117 669.663, 56.394 665.073, 55.899 664.550 C 54.324 662.886, 54.930 661, 57.040 661 C 60.183 661, 65 665.040, 65 667.675 C 65 670.581, 74.515 680.400, 76.568 679.612 C 78.746 678.776, 78.284 676.168, 75.500 673.588 C 74.125 672.313, 73 670.520, 73 669.603 C 73 668.686, 72.133 667.613, 71.073 667.218 C 68.480 666.252, 64.375 660.027, 62.870 654.776 C 62.196 652.424, 60.502 649.542, 59.106 648.372 C 56.127 645.874, 57.058 642.315, 61.634 638.716 C 64.631 636.359, 64.337 630.483, 60.903 624.086 C 59.071 620.674, 59.063 620.437, 60.739 619.207 C 64.129 616.718, 62.738 605.982, 58.511 602.011 C 55.321 599.014, 55.343 597.621, 58.602 596.136 C 60.747 595.158, 60.988 594.691, 59.979 593.475 C 57.909 590.981, 54.999 591.705, 53.850 595 M 149 594.801 C 144.987 596.757, 143.782 600.997, 146.414 603.905 C 147.274 604.855, 148.587 607.403, 149.333 609.566 C 150.440 612.778, 151.222 613.560, 153.594 613.825 C 155.192 614.004, 157.914 615.508, 159.643 617.168 C 163.545 620.914, 166.553 619.899, 167.567 614.495 C 168.844 607.687, 166.310 606.185, 161.034 610.624 C 159.319 612.068, 157.787 613.080, 157.630 612.874 C 155.494 610.070, 154.828 605.553, 156.017 601.947 C 157.014 598.928, 157.053 597.411, 156.182 595.499 C 154.855 592.587, 153.762 592.481, 149 594.801 M 204.677 594.750 C 204.434 595.163, 203.922 596.962, 203.538 598.750 C 202.700 602.658, 203.804 602.902, 208.684 599.886 C 211.949 597.868, 212.027 597.687, 210.397 595.886 C 208.679 593.988, 205.497 593.356, 204.677 594.750 M 64 598.313 C 64 600.460, 69.704 605.327, 71.440 604.661 C 73.552 603.851, 73.410 600.681, 71.171 598.655 C 68.982 596.673, 64 596.436, 64 598.313 M 208.597 610.165 C 206.302 613.441, 206.604 614.666, 210 615.850 C 214.621 617.461, 213.133 621, 207.835 621 C 206.094 621, 204.674 621.740, 204 623 C 203.411 624.100, 202.383 625.007, 201.715 625.015 C 197.698 625.066, 197.557 626.990, 201.341 630.120 C 205.304 633.396, 205.923 636.843, 203.532 642.310 C 202.932 643.682, 203.255 644.254, 204.870 644.676 C 206.042 644.983, 207 645.683, 207 646.233 C 207 646.783, 206.031 646.980, 204.847 646.670 C 203.663 646.360, 201.369 646.792, 199.750 647.629 C 197.108 648.996, 196.872 649.504, 197.451 652.589 C 197.893 654.946, 197.609 656.720, 196.548 658.235 C 194.035 661.822, 194.679 662.659, 200.982 663.996 C 207.740 665.430, 207.970 665.322, 218.500 655.719 C 223.110 651.514, 223.397 650.989, 222.182 648.983 C 221.066 647.142, 221.104 646.543, 222.432 645.075 C 224.655 642.618, 224.386 639.695, 221.391 633.786 C 219.130 629.324, 218.870 627.870, 219.434 622.877 C 220.011 617.783, 219.857 616.994, 218.106 616.057 C 216.895 615.409, 216.005 613.736, 215.813 611.749 C 215.406 607.526, 211.106 606.583, 208.597 610.165 M 484.667 611.667 C 483.642 612.692, 483.877 616.806, 485 617.500 C 485.550 617.840, 486 619.441, 486 621.059 C 486 624.421, 487.442 624.911, 488.965 622.066 C 490.735 618.758, 490.236 613.197, 488.066 612.035 C 485.788 610.816, 485.544 610.789, 484.667 611.667 M 81.150 615 C 80.575 616.650, 79.428 618, 78.602 618 C 77.478 618, 77.024 619.426, 76.800 623.671 C 76.469 629.933, 74.631 631.790, 73.003 627.509 C 72.338 625.758, 71.400 624.977, 70.247 625.213 C 68.011 625.673, 68.114 631.364, 70.405 633.895 C 71.327 634.914, 72 637.413, 72 639.820 C 72 642.919, 72.517 644.305, 74.025 645.242 C 75.209 645.977, 76.298 648.038, 76.646 650.204 C 76.973 652.241, 78.087 654.673, 79.120 655.609 C 80.154 656.545, 81 658.333, 81 659.584 C 81 660.834, 81.707 662.564, 82.571 663.429 C 84.313 665.170, 90.531 665.568, 91.500 664 C 91.840 663.450, 94.116 663, 96.559 663 C 101.954 663, 102.115 661.922, 97.347 657.719 C 90.784 651.935, 90.094 651.605, 88.188 653.330 C 86.053 655.262, 83.586 654.033, 81.500 650 C 79.351 645.844, 79.641 643.062, 82.500 640.412 C 85.568 637.569, 85.770 633.249, 83 629.727 C 80.356 626.366, 80.409 620.718, 83.118 617.055 C 84.283 615.479, 84.931 613.697, 84.559 613.095 C 83.404 611.226, 82.239 611.877, 81.150 615 M 418.396 621.410 C 417.680 623.276, 420.804 629.232, 422.246 628.751 C 424.162 628.113, 425.345 623.120, 423.972 621.466 C 422.424 619.601, 419.103 619.567, 418.396 621.410 M 130.621 635.522 C 127.990 638.153, 128.716 639.620, 133.750 641.840 L 138.500 643.935 140.300 641.795 C 141.290 640.618, 141.965 638.495, 141.800 637.078 C 141.532 634.774, 141.009 634.468, 136.871 634.200 C 133.624 633.990, 131.759 634.384, 130.621 635.522 M 331.209 637.566 C 328.690 639.330, 328.157 644, 330.474 644 C 332.320 644, 335.495 638.095, 334.294 636.894 C 333.793 636.393, 332.473 636.681, 331.209 637.566 M 473.035 637.934 C 471.420 640.952, 471.796 643, 473.965 643 C 476.262 643, 478.258 639.837, 477.389 637.572 C 476.560 635.410, 474.285 635.599, 473.035 637.934 M 124.589 644.500 C 123.554 648.624, 124.887 652, 127.549 652 C 130.285 652, 131.570 650.418, 130.224 648.706 C 129.702 648.043, 128.980 646.263, 128.619 644.750 C 127.799 641.316, 125.425 641.169, 124.589 644.500 M 114 655.378 C 114 657.223, 116.651 659.334, 117.956 658.527 C 120.128 657.185, 119.103 654, 116.500 654 C 115.043 654, 114 654.575, 114 655.378 M 153.392 661.422 C 153.092 662.204, 153.331 663.749, 153.923 664.856 C 154.515 665.963, 155 667.768, 155 668.867 C 155 672.387, 159.033 672.695, 161.687 669.378 C 164.032 666.447, 164.478 664.410, 163.393 661.582 C 162.588 659.484, 154.187 659.349, 153.392 661.422 M 41 662.800 C 41 665.104, 42.896 667, 45.200 667 C 47.410 667, 47.432 666.588, 45.385 663.465 C 43.499 660.586, 41 660.207, 41 662.800 M 201.200 669.200 C 199.292 671.108, 199.789 672.001, 202.750 671.985 C 206.165 671.966, 208.480 670.586, 207.569 669.112 C 206.658 667.637, 202.708 667.692, 201.200 669.200 M 94.157 673.617 C 94.352 674.653, 95.522 675.944, 96.756 676.487 C 97.990 677.030, 99 677.756, 99 678.100 C 99 678.899, 104.330 685.871, 106.977 688.535 C 109.527 691.101, 109.533 692, 107 692 C 105.889 692, 105 691.333, 105 690.500 C 105 689.675, 104.550 689, 104 689 C 103.450 689, 102.084 688.084, 100.964 686.964 C 98.670 684.670, 97 685.145, 97 688.090 C 97 690.551, 94.462 691.628, 92.500 690 C 90.028 687.949, 87.667 689.509, 89.124 692.231 C 91 695.736, 90.697 706.764, 88.684 708.268 C 87.178 709.393, 87.167 709.881, 88.556 713.878 C 89.941 717.861, 89.931 718.419, 88.441 720.065 C 87.541 721.060, 87.100 722.352, 87.461 722.937 C 88.498 724.615, 91.402 724.179, 93.204 722.074 C 95.049 719.920, 98.693 720.250, 100.702 722.753 C 102.208 724.630, 105.185 723.645, 104.376 721.538 C 104.052 720.692, 103.373 720, 102.868 720 C 99.308 720, 100.218 709.700, 103.880 708.538 C 109.830 706.650, 118.678 713.922, 114.958 717.642 C 114.234 718.366, 114.388 719.077, 115.458 719.965 C 117.769 721.883, 117.359 722.726, 113.500 724 C 108.084 725.787, 109.109 730, 114.959 730 C 118.094 730, 119.158 727.327, 119.611 718.312 L 120.052 709.534 114.948 704.767 C 111.838 701.863, 108.921 700, 107.481 700 C 104.101 700, 103.455 698.205, 106.359 696.882 C 107.718 696.263, 109.033 694.980, 109.281 694.032 C 110.119 690.827, 116 692.598, 116 696.054 C 116 699.952, 117.272 700.394, 121.686 698.028 C 123.767 696.913, 126.865 696, 128.569 696 C 132.792 696, 133.403 695.058, 130.904 692.398 C 129.742 691.161, 129.100 689.647, 129.479 689.034 C 130.718 687.029, 138.432 682.511, 141.489 682 C 144.875 681.434, 146.139 678.374, 143.418 677.330 C 142.283 676.894, 141.086 677.411, 139.934 678.833 C 137.869 681.383, 135.756 681.531, 130.065 679.523 L 125.879 678.046 124.517 681.273 C 123.098 684.636, 119.494 689, 118.135 689 C 116.588 689, 113 684.333, 113 682.320 C 113 678.529, 109.130 674.836, 105.487 675.149 C 103.692 675.304, 101.608 674.920, 100.856 674.296 C 100.104 673.671, 98.209 672.840, 96.645 672.447 C 94.213 671.837, 93.853 672.006, 94.157 673.617 M 247.440 675.614 C 245.823 677.623, 243.713 679.982, 242.750 680.856 C 240.793 682.632, 240.418 685, 242.094 685 C 242.695 685, 243.423 684.100, 243.710 683 C 244.046 681.717, 245.074 681, 246.578 681 C 249.490 681, 253.177 677.199, 252.789 674.598 C 252.314 671.409, 250.556 671.743, 247.440 675.614 M 151 683.378 C 151 685.223, 153.651 687.334, 154.956 686.527 C 157.128 685.185, 156.103 682, 153.500 682 C 152.043 682, 151 682.575, 151 683.378 M 199 685.500 C 196.696 687.425, 194.403 689, 193.905 689 C 191.454 689, 193.435 690.859, 196.500 691.434 C 202.127 692.490, 200.893 697, 194.977 697 C 192.368 697, 191.482 698.911, 193.265 700.694 C 194.429 701.858, 195.227 701.949, 196.818 701.098 C 197.946 700.494, 199.743 700, 200.812 700 C 201.881 700, 203.315 699.325, 204 698.500 C 204.685 697.675, 206.058 697, 207.051 697 C 208.924 697, 212 694.507, 212 692.989 C 212 692.511, 210.313 691.981, 208.250 691.810 C 204.177 691.473, 202.901 688.816, 206.500 688.167 C 209.416 687.641, 210.285 686.475, 209.532 684.101 C 208.479 680.784, 203.919 681.390, 199 685.500 M 68.253 697.147 C 67.266 698.134, 67.982 698.856, 71.757 700.684 C 78.987 704.186, 80.752 703.775, 76.750 699.521 C 73.992 696.590, 69.942 695.458, 68.253 697.147 M 145.287 702.011 C 144.399 705.405, 135 705.418, 135 702.025 C 135 700.744, 132.979 700.725, 131 701.987 C 129.729 702.798, 129.849 703.190, 131.790 704.557 C 134.393 706.390, 134.046 709.266, 130.854 712.310 C 127.428 715.576, 131.583 717.539, 135.559 714.532 C 136.626 713.724, 138.310 713.049, 139.301 713.032 C 140.292 713.014, 142.542 711.492, 144.301 709.649 C 146.060 707.806, 149.075 705.709, 151 704.989 C 156.094 703.083, 156.671 702.206, 153.598 701.037 C 149.174 699.355, 145.880 699.741, 145.287 702.011 M 204.231 702.250 C 204.450 702.938, 205.534 703.910, 206.639 704.412 C 207.744 704.913, 209.382 706.600, 210.278 708.162 C 212.182 711.479, 215 711.948, 215 708.948 C 215 707.573, 214.023 706.555, 212.041 705.864 C 210.413 705.297, 208.808 703.970, 208.473 702.916 C 208.139 701.862, 206.958 701, 205.849 701 C 204.691 701, 204.003 701.532, 204.231 702.250 M 232.655 702.828 C 231.595 703.999, 231.060 706.159, 231.165 708.839 C 231.288 711.990, 230.754 713.633, 228.999 715.501 C 226.982 717.648, 226.826 718.323, 227.835 720.537 C 228.476 721.943, 229 723.904, 229 724.893 C 229 730.314, 236.527 739.633, 241.686 740.601 C 243.509 740.943, 245 741.553, 245 741.956 C 245 743.272, 241.441 745.950, 238.185 747.085 C 235.035 748.184, 233.833 751.161, 236 752.500 C 236.550 752.840, 236.996 754.779, 236.992 756.809 C 236.983 760.690, 234.472 762.476, 220.750 768.360 C 213.996 771.256, 216.036 772.345, 226.745 771.559 C 237.842 770.744, 237.530 770.860, 236.058 768.109 C 234.374 764.962, 236.653 762, 240.760 762 C 243.757 762, 243.984 762.214, 243.411 764.500 C 242.846 766.751, 243.082 767, 245.785 767 C 249.575 767, 250.525 764.758, 248.474 760.647 C 247.041 757.774, 247.056 757.432, 248.673 756.250 C 250.187 755.143, 250.608 755.312, 251.745 757.484 C 253.368 760.581, 256.258 760.713, 258.961 757.811 C 261.644 754.932, 261.545 754.333, 258.092 752.548 C 255.414 751.163, 255.229 750.715, 255.744 746.870 C 256.385 742.090, 254.598 740, 249.868 740 C 243.479 740, 246.941 735.851, 254.429 734.533 C 259.041 733.722, 265.356 728.092, 264.413 725.633 C 262.945 721.810, 255.133 722.600, 252.085 726.881 C 249.744 730.168, 243.832 733.533, 241.780 732.746 C 239.526 731.881, 238.749 722.811, 240.610 719.081 C 241.877 716.540, 241.925 715.106, 240.912 709.960 C 239.235 701.436, 236.249 698.857, 232.655 702.828 M 159.750 704.715 C 155.892 705.667, 159.318 714, 163.567 714 C 164.710 714, 164.952 714.575, 164.460 716.125 C 163.664 718.633, 165.293 719.963, 169.191 719.985 C 172.925 720.006, 173.755 718.078, 170.929 715.947 C 169.275 714.699, 168.533 713.086, 168.445 710.543 C 168.276 705.678, 164.931 703.435, 159.750 704.715 M 190 706.294 C 187.028 707.798, 186.714 710.321, 189.434 710.845 C 191.413 711.226, 194 708.656, 194 706.309 C 194 704.685, 193.188 704.682, 190 706.294 M 459.335 709.237 C 457.334 710.155, 452 720.139, 452 722.967 C 452 723.637, 452.900 725.329, 454 726.727 C 456.789 730.273, 456.497 733.499, 453.061 737.094 C 450.091 740.202, 448.321 745.092, 449.485 746.976 C 450.750 749.022, 453.134 747.925, 454.493 744.670 C 455.258 742.839, 456.611 740.737, 457.500 740 C 458.389 739.263, 459.699 737.273, 460.413 735.580 C 461.126 733.886, 463.350 730.545, 465.355 728.155 C 469.683 722.997, 469.726 722.651, 466.500 718.818 C 465.125 717.184, 464 714.586, 464 713.046 C 464 709.414, 462.184 707.931, 459.335 709.237 M 283.232 723.985 C 280.070 727.993, 282.168 728.913, 287.646 725.920 C 292.861 723.071, 293.336 720.977, 288.750 721.055 C 286.403 721.095, 284.870 721.909, 283.232 723.985 M 39.143 729.890 C 37.487 730.940, 38.333 734.087, 40.896 736.406 C 42.922 738.239, 48 736.887, 48 734.514 C 48 731.218, 41.995 728.083, 39.143 729.890 M 89.341 732.553 C 88.617 734.440, 89.932 737.144, 91.893 737.798 C 92.763 738.088, 93.045 737.217, 92.821 734.934 C 92.466 731.304, 90.371 729.870, 89.341 732.553 M 137.432 736.500 C 135.216 739.406, 134.124 740, 131.004 740 C 126.746 740, 124.331 741.931, 126.224 743.824 C 126.871 744.471, 128.307 745, 129.417 745 C 130.526 745, 133.344 745.730, 135.679 746.621 C 141.700 748.921, 144.445 747.728, 140.456 744.546 L 137.500 742.187 140.209 740.952 C 142.479 739.916, 143.329 739.985, 145.451 741.376 C 148.937 743.660, 156.553 744.616, 158.486 743.012 C 161.156 740.796, 160.129 740, 154.599 740 C 149.486 740, 149.087 739.813, 147.133 736.500 C 145.654 733.994, 144.362 733, 142.585 733 C 140.922 733, 139.220 734.157, 137.432 736.500 M 174.500 734.979 C 172.850 736.083, 170.713 736.990, 169.750 736.993 C 167.568 737.002, 167.458 738.578, 169.582 739.393 C 175.498 741.663, 184.519 738.789, 182.398 735.309 C 180.843 732.758, 177.996 732.639, 174.500 734.979 M 114.245 746.250 C 114.471 746.938, 115.592 747.638, 116.734 747.807 C 117.958 747.988, 119.062 749.112, 119.421 750.542 C 120.523 754.930, 130.500 754.829, 130.500 750.429 C 130.500 748.926, 129.524 748.385, 125.872 747.863 C 123.326 747.499, 120.318 746.705, 119.187 746.100 C 116.429 744.624, 113.736 744.705, 114.245 746.250 M 157.750 749.689 C 155.699 750.225, 155.537 751.137, 157.200 752.800 C 158.945 754.545, 161.444 754.272, 163.388 752.124 C 165.766 749.496, 163.022 748.312, 157.750 749.689 M 57 755.345 C 57 756.635, 57.900 758.505, 59 759.500 C 61.493 761.756, 61.503 762.589, 59.059 764.681 C 57.707 765.839, 57.278 767.140, 57.644 768.972 C 58.072 771.109, 57.668 771.830, 55.487 772.824 C 53.676 773.649, 52.999 774.555, 53.404 775.611 C 55.679 781.540, 55.291 784.926, 52.130 786.725 C 49.778 788.064, 49.011 789.206, 49.006 791.375 C 49 794.084, 49.187 794.213, 52.237 793.603 C 56.783 792.693, 58.492 790.788, 57.098 788.182 C 55.526 785.246, 55.668 785, 58.923 785 C 60.724 785, 63.607 786.344, 66.432 788.500 C 68.954 790.425, 71.351 791.995, 71.759 791.989 C 72.824 791.974, 81 784.015, 81 782.993 C 81 781.289, 75.041 777.947, 70.485 777.096 C 64.822 776.038, 62.694 774.330, 65.246 772.890 C 66.362 772.260, 66.971 770.751, 66.934 768.703 C 66.903 766.941, 67.181 764.038, 67.552 762.250 C 67.983 760.175, 67.837 759, 67.148 759 C 66.555 759, 64.532 757.650, 62.653 756 C 58.542 752.390, 57 752.212, 57 755.345 M 140.005 753.894 C 136.023 755.002, 135.970 758.385, 139.948 757.511 C 141.890 757.085, 143.632 757.280, 144.528 758.023 C 146.635 759.772, 149 758.454, 149 755.531 C 149 752.826, 145.882 752.258, 140.005 753.894 M 155.496 757.004 C 153.998 758.660, 153.880 759.442, 154.820 761.504 C 156.405 764.984, 160.691 764.942, 162.025 761.435 C 164.045 756.121, 159.244 752.863, 155.496 757.004 M 124.785 759.572 C 123.837 761.654, 123.889 762.317, 125.057 763.056 C 128.284 765.098, 130.780 763.007, 129.215 759.572 C 128.570 758.157, 127.574 757, 127 757 C 126.426 757, 125.430 758.157, 124.785 759.572 M 398.445 763.061 C 396.848 764.825, 396.790 765.255, 398.040 766.046 C 401.238 768.069, 408 766.389, 408 763.572 C 408 760.472, 401.121 760.104, 398.445 763.061 M 136 765.186 C 136 765.838, 136.984 767.419, 138.187 768.699 C 139.874 770.495, 140.102 771.298, 139.187 772.213 C 135.890 775.510, 139.318 775.936, 143.327 772.727 C 148.270 768.772, 145.523 764.058, 138.250 764.014 C 137.012 764.006, 136 764.533, 136 765.186 M 373.653 769 C 372.265 770.650, 370.078 772.400, 368.793 772.889 C 365.649 774.084, 363.255 778.595, 364.618 780.756 C 366.424 783.619, 367.853 783.240, 368.182 779.811 C 368.524 776.245, 369.225 776.032, 375.735 777.509 C 378.387 778.112, 379.090 777.907, 379.639 776.372 C 380.008 775.342, 381.380 773.600, 382.687 772.500 C 384.921 770.621, 384.969 770.364, 383.476 768.250 C 381.139 764.941, 376.789 765.274, 373.653 769 M 157.122 768.904 C 154.192 770.759, 157.235 771.930, 164.595 771.780 C 176.080 771.546, 175.992 768.031, 164.500 768.031 C 161.200 768.031, 157.880 768.423, 157.122 768.904 M 124.693 771.358 C 124.406 772.105, 122.808 772.988, 121.140 773.322 C 115.872 774.376, 114.484 780, 119.492 780 C 120.905 780, 122.098 780.733, 122.441 781.813 C 123.059 783.760, 132.103 786.673, 133.962 785.524 C 135.959 784.289, 134.970 781.304, 131.373 777.706 C 128.807 775.140, 127.902 773.483, 128.279 772.040 C 128.898 769.676, 125.580 769.045, 124.693 771.358 M 174.616 778.003 C 170.332 782.746, 170.251 783.341, 173.455 786.545 C 179.793 792.884, 190.899 787.286, 186.881 779.778 C 185.940 778.020, 186.139 777.398, 188.131 775.866 L 190.500 774.044 184.366 774.022 C 178.468 774.001, 178.094 774.153, 174.616 778.003 M 206.200 775.200 C 204.414 776.986, 204.742 778.792, 207.078 780.042 C 210.108 781.663, 212 780.506, 212 777.031 C 212 773.745, 208.698 772.702, 206.200 775.200 M 237.500 778 C 236.609 779.442, 237.834 781, 239.859 781 C 241.665 781, 244 779.195, 244 777.800 C 244 776.639, 238.232 776.816, 237.500 778 M 425.698 777.721 C 422.662 778.178, 421.692 779.867, 420.546 786.698 L 419.842 790.895 425.671 791.198 C 430.733 791.460, 431.500 791.763, 431.500 793.500 C 431.500 795.833, 423.594 796.923, 420.127 795.068 C 417.431 793.625, 413.741 796.706, 413.603 800.515 C 413.518 802.867, 412.923 803.524, 410.250 804.216 C 405.986 805.320, 406.079 807.515, 410.565 811.623 C 413.575 814.380, 413.964 815.199, 413.065 816.879 C 411.410 819.971, 411.798 823.868, 414.184 828.114 C 417.522 834.053, 419.828 833.365, 420.200 826.318 C 420.478 821.062, 420.707 820.580, 423.263 819.901 C 424.782 819.497, 427.982 818.219, 430.374 817.061 C 435.101 814.773, 437.382 815.094, 440.250 818.451 L 442 820.500 444 818.139 C 446.599 815.071, 446.597 815.057, 442.500 810.271 C 438.562 805.671, 438.061 802.159, 440.968 799.529 C 442.448 798.189, 442.697 797.302, 441.971 795.947 C 441.441 794.956, 441.270 793.461, 441.590 792.625 C 442.268 790.858, 439.099 786.078, 437.219 786.031 C 436.514 786.014, 435.678 786.675, 435.362 787.500 C 434.462 789.844, 430 789.428, 430 787 C 430 785.889, 430.667 785, 431.500 785 C 433.507 785, 433.458 780.601, 431.429 778.571 C 430.564 777.707, 429.552 777.067, 429.179 777.150 C 428.805 777.232, 427.239 777.489, 425.698 777.721 M 155.268 783.250 C 154.162 784.664, 151.895 791, 152.495 791 C 153.805 791, 159.922 786.647, 160.414 785.364 C 161.609 782.249, 157.401 780.521, 155.268 783.250 M 213.015 782.687 C 213.053 784.705, 214.928 786.146, 217.113 785.837 C 220.755 785.323, 220.101 782.558, 216.250 782.187 C 214.463 782.014, 213.007 782.239, 213.015 782.687 M 266.200 783.200 C 264.526 784.874, 264.699 788, 266.465 788 C 267.922 788, 270 785.099, 270 783.066 C 270 781.631, 267.687 781.713, 266.200 783.200 M 347.450 790.081 C 347.082 790.676, 348.068 792.515, 349.641 794.167 C 353.330 798.044, 355.680 799.327, 356.540 797.935 C 356.904 797.346, 356.269 796.622, 355.125 796.323 C 353.731 795.958, 352.840 794.666, 352.413 792.390 C 351.772 788.973, 348.947 787.659, 347.450 790.081 M 165.622 792.287 C 161.222 795.504, 166.117 799.191, 172.621 797.559 C 174.894 796.989, 175.991 793.701, 174.250 792.677 C 171.890 791.288, 167.274 791.079, 165.622 792.287 M 124.250 792.978 C 120.965 794.376, 121.382 794.736, 127.750 795.998 C 130.912 796.624, 134.918 797.781, 136.651 798.568 C 140.595 800.360, 147.334 800.503, 146.761 798.782 C 145.680 795.541, 128.585 791.134, 124.250 792.978 M 263.560 795.510 C 261.152 798.667, 261.079 799, 262.794 799 C 264.814 799, 268 796.081, 268 794.230 C 268 791.681, 266.052 792.243, 263.560 795.510 M 106.058 797.430 C 105.110 798.572, 105.274 799.076, 106.870 799.930 C 109.724 801.458, 111.966 801.253, 112.677 799.399 C 113.827 796.403, 108.280 794.753, 106.058 797.430 M 201.513 797.979 C 199.828 800.706, 206.456 806.625, 209.951 805.516 C 212.666 804.654, 212.549 801.864, 209.686 799.174 C 207.302 796.935, 202.584 796.246, 201.513 797.979 M 359.607 808.536 C 357.557 810.586, 358.383 812, 361.629 812 C 363.637 812, 364.075 811.565, 363.820 809.828 C 363.406 807.021, 361.658 806.485, 359.607 808.536 M 522.179 808.644 C 520.977 810.793, 523.852 815.985, 526.250 815.994 C 528.478 816.002, 528.584 812.279, 526.443 809.223 C 524.590 806.576, 523.425 806.419, 522.179 808.644 M 393.525 817.959 C 392.693 819.306, 395.128 822.906, 397.348 823.611 C 400.194 824.514, 401.568 822.542, 400.194 819.527 C 399.022 816.954, 394.765 815.953, 393.525 817.959 M 505.990 826.526 C 505.462 827.915, 504.348 829.313, 503.515 829.633 C 502.136 830.162, 501.296 833, 502.518 833 C 502.804 833, 505.279 831.828, 508.018 830.395 C 513.078 827.750, 514.279 825.705, 511.418 824.607 C 508.451 823.468, 506.951 823.998, 505.990 826.526 M 523.193 825.681 C 521.714 826.274, 517 830.805, 517 831.634 C 517 831.933, 515.008 834.454, 512.573 837.238 L 508.147 842.298 510.323 844.185 C 512.449 846.028, 512.455 846.101, 510.578 847.286 C 509.521 847.954, 506.596 850.546, 504.078 853.046 C 501.560 855.546, 498.262 858.209, 496.750 858.965 C 493.417 860.629, 493.205 862.747, 496.250 863.962 C 498.125 864.710, 498.917 864.334, 501 861.709 C 507.045 854.089, 512.860 850, 517.649 850 L 520.136 850 517.818 853.088 C 511.573 861.406, 510.652 864, 513.941 864 C 515.009 864, 516.191 864.500, 516.568 865.110 C 517.371 866.410, 523.522 865.641, 525.508 863.993 C 526.604 863.083, 526.508 862.142, 524.961 858.644 C 523.928 856.309, 523.330 853.453, 523.633 852.296 C 524.035 850.760, 523.619 850.014, 522.091 849.529 C 518.625 848.429, 520.216 844, 524.079 844 C 526.009 844, 528.509 838.770, 527.650 836.529 C 527.195 835.344, 526.513 835.235, 524.452 836.018 C 519.282 837.984, 518.626 835.203, 523.041 830.038 C 526.893 825.531, 526.940 824.181, 523.193 825.681 M 359 826.845 C 359 828.443, 362.927 831.242, 364.385 830.682 C 367.066 829.654, 365.113 826, 361.883 826 C 360.298 826, 359 826.380, 359 826.845 M 245.607 828.582 C 243.667 833.638, 245.709 840.316, 248.490 838.009 C 249.970 836.780, 253 831.817, 253 830.621 C 253 827.724, 246.612 825.962, 245.607 828.582 M 375.910 832.608 C 374.135 834.748, 377.045 837, 381.584 837 C 385.584 837, 386.728 834.623, 383.736 832.527 C 380.909 830.547, 377.592 830.582, 375.910 832.608 M 409.250 838.662 C 408.563 838.940, 408 840.243, 408 841.558 C 408 844.908, 412.859 847.353, 417.252 846.214 C 422.232 844.924, 421.907 842.495, 416.432 840.073 C 411.521 837.901, 411.263 837.850, 409.250 838.662 M 488.714 841.418 C 487.471 842.362, 485.874 842.535, 483.459 841.991 C 480.698 841.368, 477.399 842.386, 479.150 843.320 C 479.342 843.423, 480.944 844.518, 482.710 845.753 C 486.858 848.657, 487.983 848.586, 491.799 845.179 C 496.108 841.333, 493.315 837.928, 488.714 841.418 M 532.362 842.500 C 532.034 843.355, 530.542 844, 528.893 844 C 526.988 844, 526 844.512, 526 845.500 C 526 846.500, 527 847, 529 847 C 530.888 847, 532 846.487, 532 845.617 C 532 844.856, 532.900 843.998, 534 843.710 C 535.100 843.423, 536 842.695, 536 842.094 C 536 840.447, 533.022 840.780, 532.362 842.500 M 827.750 843.484 C 824.353 846.474, 824.151 849, 827.309 849 C 830.443 849, 832.757 847.055, 833.554 843.750 C 834.419 840.160, 831.670 840.034, 827.750 843.484 M 376 858.566 C 376 861.815, 378.037 864, 381.067 864 C 385.058 864, 386.097 861.307, 383.056 858.844 C 380.227 856.554, 376 856.387, 376 858.566 M 988.657 862.745 C 986.734 865.858, 989.217 867.763, 996.083 868.440 C 999.885 868.814, 1003.427 868.854, 1003.954 868.528 C 1006.070 867.221, 1003.552 865.070, 998.685 864.026 C 995.853 863.418, 992.564 862.678, 991.376 862.380 C 990.189 862.082, 988.966 862.246, 988.657 862.745 M 504.618 865.525 C 500.598 869.545, 500.586 873.540, 504.603 870.500 C 505.646 869.710, 507.544 869.049, 508.820 869.032 C 510.646 869.007, 511.071 868.522, 510.820 866.750 C 510.423 863.954, 506.887 863.256, 504.618 865.525 M 461.667 869.667 C 459.960 871.373, 461.098 876.018, 463.629 877.677 C 466.174 879.344, 466.318 879.326, 468.115 877.107 C 471.340 873.124, 465.244 866.089, 461.667 869.667 M 524.174 872.314 C 522.978 873.587, 522 874.937, 522 875.314 C 522 876.583, 524.843 876.014, 526.429 874.429 C 528.095 872.762, 528.560 870, 527.174 870 C 526.720 870, 525.370 871.042, 524.174 872.314 M 1112 874.465 C 1112 876.518, 1115.903 878.497, 1117.265 877.135 C 1117.999 876.401, 1117.929 875.620, 1117.035 874.542 C 1115.410 872.585, 1112 872.532, 1112 874.465 M 1087.392 884.524 C 1085.918 886.775, 1085.871 887.308, 1087.079 888.091 C 1089.919 889.931, 1092.500 888.704, 1092.500 885.514 C 1092.500 881.545, 1089.700 881.002, 1087.392 884.524 M 528.250 888.662 C 526.738 889.273, 526.598 895.380, 528.035 898.066 C 530.943 903.499, 535.408 897.175, 532.689 891.474 C 531.032 887.999, 530.589 887.718, 528.250 888.662 M 1073.412 891.686 C 1073.096 892.684, 1072.424 894.534, 1071.919 895.797 C 1070.578 899.150, 1070.775 900, 1072.894 900 C 1075.537 900, 1081.232 894.450, 1080.820 892.276 C 1080.332 889.702, 1074.195 889.213, 1073.412 891.686 M 1060.250 901.662 C 1059.563 901.940, 1059 903.038, 1059 904.102 C 1059 906.119, 1061.999 906.005, 1066.250 903.826 C 1070.235 901.784, 1064.804 899.825, 1060.250 901.662 M 528.212 914.188 C 526.021 916.379, 526.759 919, 529.566 919 C 531.760 919, 532.087 918.612, 531.816 916.327 C 531.456 913.282, 529.989 912.411, 528.212 914.188 M 502.500 927.703 C 498.741 928.666, 497.773 930.092, 499.548 932.053 C 503.409 936.319, 510.372 935.050, 509.810 930.183 C 509.488 927.392, 507.002 926.549, 502.500 927.703" stroke="none" fill="#000" fill-rule="evenodd"/>
</svg>